{
.appVersion = "3108";
.formatVersion = 3;
DisplayStrings = (
"¹²³¾",
"A/acutecomb.case ÁĂǍÂÄÀĀĄÅǺÃÆǼBCĆČÇĈĊDÐĎĐEÉĔĚÊËĖÈĒĘFGĞĜĢĠHĦĤIĲÍĬÎÏİÌĪĮĨJĴKĶLĹĽĻĿŁMNŃŇŅÑŊOÓŎÔÖÒŐŌØǾÕŒPÞQRŔŘŖSŚŠŞŜȘẞTŦŤŢȚUÚŬÛÜÙŰŪŲŮŨVWẂŴẄẀXYÝŶŸỲZŹŽŻaáăǎâäàāąåǻãæǽbcćčçĉċdðďđeéĕěêëėèēęfgğĝģġhħĥiıíĭîï/idotaccent ìĳīįĩjȷĵkķĸlĺľļŀłmnńŉňņñŋoóŏôöòőōøǿõœpþqrŕřŗsśšşŝșßtŧťţțuúŭûüùűūųůũvwẃŵẅẁxyýŷÿỳzźžż"
);
customParameters = (
{
name = panose;
value = (
2,
0,
5,
3,
5,
0,
0,
2,
0,
3
);
}
);
date = "2022-05-26 14:51:32 +0000";
familyName = Belleza;
featurePrefixes = (
{
code = "languagesystem DFLT dflt;
languagesystem latn dflt; # Latin default
";
name = Languagesystems;
},
{
code = "#
# Feature definitions
#

###
# OpenType Layout feature definitions
# Format: Adobe FDK for OpenType (AFDKO) version 2.5
# Generated on: 2013-11-19 17:24
# Generated by: Fontlab
# Tool options: fea-inline-lookups: yes, fea-inline-classes: 0, fea-additional-tables: yes, fea-table-overrides: no
# Font path: /Users/etunni/Documents/TIPOGRAFIAS 2013/Belleza-PRO/Belleza-Regular-AL3.vfb
# Font PostScript name: Belleza-Regular
# Font copyright: Copyright (c) 2012, Eduardo Tunni (http://www.tipo.net.ar), with Reserved Font Name \"Belleza\"
#
# Totals:
# Languagesystems: 1
# GSUB lookups: 1
# GSUB features: 1 (liga)
# GPOS lookups: 1
# GPOS features: 1 (kern)

#
# Languagesystem definitions
#

#
# Lookup definitions
#
feature kern {
# GPOS feature: Kerning
# Lookups: 1

  script latn; # Latin
    lookup kern_latn_1 {
    # GPOS lookup 1, type 2 (Pair adjustment)
      pos \\Aacute \\T -60;
      pos \\Aacute \\V -25;
      pos \\Aacute \\W -20;
      pos \\Acircumflex \\T -60;
      pos \\Acircumflex \\V -25;
      pos \\Acircumflex \\W -20;
      pos \\Adieresis \\T -60;
      pos \\Adieresis \\V -25;
      pos \\Adieresis \\W -20;
      pos \\Agrave \\T -60;
      pos \\Agrave \\V -25;
      pos \\Agrave \\W -20;
      pos \\Aring \\T -60;
      pos \\Aring \\V -25;
      pos \\Aring \\W -20;
      pos \\Atilde \\T -60;

glyphs = (
{
glyphname = A;
lastChange = "2022-05-26 15:06:09 +0000";
layers = (
{
anchors = (
{
name = bottom;
pos = (315,0);
},
{
name = ogonek;
pos = (566,10);
},
{
name = top;
pos = (315,662);
}
);
background = {
shapes = (
{
closed = 1;
nodes = (
(10,0,l),
(64,0,l),
(138,180,l),
(435,180,l),
(510,0,l),
(619,0,l),
(322,678,l),
(307,678,l,{
name = hr00;
})
);
},
{
closed = 1;
nodes = (
(153,218,l),
(287,542,l),
(419,218,l)
);
}
);
};
layerId = master01;
shapes = (
{
closed = 1;
nodes = (
(10,0,l),
(64,0,l),
(138,180,l),
(435,180,l),
(510,0,l),
(619,0,l),
(322,678,l),
(307,678,l,{
name = hr00;
})
);
},
{
closed = 1;
nodes = (
(153,218,l),
(287,542,l),
(419,218,l)
);
}
);
width = 629;
}
);
unicode = 65;
},
{
glyphname = Aacute;
lastChange = "2022-05-26 15:06:28 +0000";
layers = (
{
background = {
shapes = (
{
closed = 1;
nodes = (
(10,0,l),
(64,0,l),
(138,180,l),
(435,180,l),
(510,0,l),
(619,0,l),
(322,678,l),
(307,678,l,{
name = hr00;
})
);
},
{
closed = 1;
nodes = (
(153,218,l),
(287,542,l),
(419,218,l)
);
},
{
closed = 1;
nodes = (
(258,717,l),
(446,855,l),
(390,905,l),
(218,717,l,{
name = hr00;
})
);
}
);
};
layerId = master01;
shapes = (
{
ref = A;
},
{
pos = (145,0);
ref = acutecomb.case;
}
);
width = 629;
}
);
unicode = 193;
},
{
glyphname = Abreve;
lastChange = "2022-05-26 15:06:09 +0000";
layers = (
{
background = {
shapes = (
{
closed = 1;
nodes = (
(10,0,l),
(64,0,l),
(138,180,l),
(435,180,l),
(510,0,l),
(619,0,l),
(322,678,l),
(307,678,l,{
name = hr00;
})
);
},
{
closed = 1;
nodes = (
(153,218,l),
(287,542,l),
(419,218,l)
);
},
{
closed = 1;
nodes = (
(407,824,o),
(390,777,o),
(314,777,cs),
(250,777,o),
(213,813,o),
(203,874,c),
(174,874,l),
(174,869,ls),
(174,764,o),
(241,717,o),
(312,717,cs),
(440,717,o),
(452,843,o),
(455,874,c),
(426,874,l,{
name = hr00;
})
);
}
);
};
layerId = master01;
shapes = (
{
ref = A;
},
{
pos = (148,0);
ref = brevecomb.case;
}
);
width = 629;
}
);
unicode = 258;
},
{
color = 9;
glyphname = Acaron;
lastChange = "2022-05-26 15:06:09 +0000";
layers = (
{
background = {
shapes = (
{
closed = 1;
nodes = (
(10,0,l),
(64,0,l),
(138,180,l),
(435,180,l),
(510,0,l),
(619,0,l),
(322,678,l),
(307,678,l,{
name = hr00;
})
);
},
{
closed = 1;
nodes = (
(153,218,l),
(287,542,l),
(419,218,l)
);
},
{
closed = 1;
nodes = (
(771,506,l),
(819,506,l),
(944,673,l),
(904,673,l),
(795,580,l),
(685,673,l),
(645,673,l,{
name = hr00;
})
);
}
);
};
layerId = master01;
shapes = (
{
ref = A;
},
{
pos = (149,0);
ref = caroncomb.case;
}
);
width = 629;
}
);
unicode = 461;
},
{
glyphname = Acircumflex;
lastChange = "2022-05-26 15:06:09 +0000";
layers = (
{
background = {
shapes = (
{
closed = 1;
nodes = (
(10,0,l),
(64,0,l),
(138,180,l),
(435,180,l),
(510,0,l),
(619,0,l),
(322,678,l),
(307,678,l,{
name = hr00;
})
);
},
{
closed = 1;
nodes = (
(153,218,l),
(287,542,l),
(419,218,l)
);
},
{
closed = 1;
nodes = (
(338,884,l),
(290,884,l),
(165,717,l),
(205,717,l),
(314,810,l),
(424,717,l),
(464,717,l,{
name = hr00;
})
);
}
);
};
layerId = master01;
shapes = (
{
ref = A;
},
{
pos = (148,0);
ref = circumflexcomb.case;
}
);
width = 629;
}
);
unicode = 194;
},
{
glyphname = Adieresis;
lastChange = "2022-05-26 15:06:09 +0000";
layers = (
{
background = {
shapes = (
{
closed = 1;
nodes = (
(10,0,l),
(64,0,l),
(138,180,l),
(435,180,l),
(510,0,l),
(619,0,l),
(322,678,l),
(307,678,l,{
name = hr00;
})
);
},
{
closed = 1;
nodes = (
(153,218,l),
(287,542,l),
(419,218,l)
);
},
{
closed = 1;
nodes = (
(363,773,o),
(385,751,o),
(413,751,cs),
(441,751,o),
(463,773,o),
(463,801,cs),
(463,829,o),
(441,851,o),
(413,851,cs),
(385,851,o),
(363,829,o),
(363,801,c,{
name = hr00;
})
);
},
{
closed = 1;
nodes = (
(166,773,o),
(188,751,o),
(216,751,cs),
(244,751,o),
(266,773,o),
(266,801,cs),
(266,829,o),
(244,851,o),
(216,851,cs),
(188,851,o),
(166,829,o),
(166,801,cs)
);
}
);
};
layerId = master01;
shapes = (
{
ref = A;
},
{
pos = (148,0);
ref = dieresiscomb.case;
}
);
width = 629;
}
);
unicode = 196;
},
{
glyphname = Agrave;
lastChange = "2022-05-26 15:06:09 +0000";
layers = (
{
background = {
shapes = (
{
closed = 1;
nodes = (
(10,0,l),
(64,0,l),
(138,180,l),
(435,180,l),
(510,0,l),
(619,0,l),
(322,678,l),
(307,678,l,{
name = hr00;
})
);
},
{
closed = 1;
nodes = (
(153,218,l),
(287,542,l),
(419,218,l)
);
},
{
closed = 1;
nodes = (
(389,717,l),
(201,855,l),
(257,905,l),
(429,717,l,{
name = hr00;
})
);
}
);
};
layerId = master01;
shapes = (
{
ref = A;
},
{
pos = (187,0);
ref = gravecomb.case;
}
);
width = 629;
}
);
unicode = 192;
},
{
glyphname = Amacron;
lastChange = "2022-05-26 15:06:09 +0000";
layers = (
{
background = {
shapes = (
{
closed = 1;
nodes = (
(10,0,l),
(64,0,l),
(138,180,l),
(435,180,l),
(510,0,l),
(619,0,l),
(322,678,l),
(307,678,l,{
name = hr00;
})
);
},
{
closed = 1;
nodes = (
(153,218,l),
(287,542,l),
(419,218,l)
);
},
{
closed = 1;
nodes = (
(159,811,l),
(159,757,l),
(470,757,l),
(470,811,l,{
name = hr00;
})
);
}
);
};
layerId = master01;
shapes = (
{
ref = A;
},
{
pos = (148,0);
ref = macroncomb.case;
}
);
width = 629;
}
);
unicode = 256;
},
{
glyphname = Aogonek;
lastChange = "2022-05-26 15:06:01 +0000";
layers = (
{
background = {
shapes = (
{
closed = 1;
nodes = (
(10,0,l),
(64,0,l),
(138,180,l),
(435,180,l),
(510,0,l),
(619,0,l),
(322,678,l),
(307,678,l,{
name = hr00;
})
);
},
{
closed = 1;
nodes = (
(153,218,l),
(287,542,l),
(419,218,l)
);
},
{
closed = 1;
nodes = (
(478,-20,o),
(453,-54,o),
(453,-97,cs),
(453,-135,o),
(488,-165,o),
(532,-165,cs),
(576,-165,o),
(621,-127,o),
(634,-80,c),
(618,-73,l),
(607,-97,o),
(577,-116,o),
(552,-116,cs),
(527,-116,o),
(507,-103,o),
(507,-75,cs),
(507,-41,o),
(529,-19,o),
(553,0,c),
(509,0,l,{
name = hr00;
})
);
}
);
};
layerId = master01;
shapes = (
{
ref = A;
},
{
pos = (323,10);
ref = ogonekcomb;
}
);
width = 629;
}
);
unicode = 260;
},
{
glyphname = Aring;
lastChange = "2022-05-26 15:06:09 +0000";
layers = (
{
background = {
shapes = (
{
closed = 1;
nodes = (
(10,0,l),
(64,0,l),
(138,180,l),
(435,180,l),
(510,0,l),
(619,0,l),
(322,678,l),
(307,678,l,{
name = hr00;
})
);
},
{
closed = 1;
nodes = (
(153,218,l),
(287,542,l),
(419,218,l)
);
},
{
closed = 1;
nodes = (
(215,767,o),
(257,722,o),
(314,722,cs),
(369,722,o),
(414,766,o),
(414,821,cs),
(414,876,o),
(369,921,o),
(314,921,cs),
(258,921,o),
(215,875,o),
(215,821,c,{
name = hr00;
})
);
},
{
closed = 1;
nodes = (
(351,887,o),
(380,857,o),
(380,821,cs),
(380,785,o),
(351,756,o),
(313,756,cs),
(268,756,o),
(249,797,o),
(249,822,cs),
(249,846,o),
(269,887,o),
(314,887,c)
);
}
);
};
layerId = master01;
shapes = (
{
ref = A;
},
{
pos = (148,0);
ref = ringcomb.case;
}
);
width = 629;
}
);
unicode = 197;
},
{
glyphname = Aringacute;
lastChange = "2022-05-26 15:06:28 +0000";
layers = (
{
background = {
shapes = (
{
closed = 1;
nodes = (
(10,0,l),
(64,0,l),
(138,180,l),
(435,180,l),
(510,0,l),
(619,0,l),
(322,678,l),
(307,678,l,{
name = hr00;
})
);
},
{
closed = 1;
nodes = (
(153,218,l),
(287,542,l),
(419,218,l)
);
},
{
closed = 1;
nodes = (
(215,767,o),
(257,722,o),
(314,722,cs),
(369,722,o),
(414,766,o),
(414,821,cs),
(414,876,o),
(369,921,o),
(314,921,cs),
(258,921,o),
(215,875,o),
(215,821,cs,{
name = hr00;
})
);
},
{
closed = 1;
nodes = (
(351,887,o),
(380,857,o),
(380,821,cs),
(380,785,o),
(351,756,o),
(313,756,cs),
(268,756,o),
(249,797,o),
(249,822,cs),
(249,846,o),
(269,887,o),
(314,887,cs)
);
},
{
closed = 1;
nodes = (
(493,971,l),
(437,1021,l),
(331,905,l),
(370,881,l)
);
}
);
};
layerId = master01;
shapes = (
{
ref = A;
},
{
pos = (148,0);
ref = ringcomb.case;
},
{
pos = (145,49);
ref = acutecomb.case;
}
);
width = 629;
}
);
unicode = 506;
},
{
glyphname = Atilde;
lastChange = "2022-05-26 15:06:09 +0000";
layers = (
{
background = {
shapes = (
{
closed = 1;
nodes = (
(10,0,l),
(64,0,l),
(138,180,l),
(435,180,l),
(510,0,l),
(619,0,l),
(322,678,l),
(307,678,l,{
name = hr00;
})
);
},
{
closed = 1;
nodes = (
(153,218,l),
(287,542,l),
(419,218,l)
);
},
{
closed = 1;
nodes = (
(428,821,o),
(415,803,o),
(389,803,cs),
(369,803,o),
(297,844,o),
(258,844,c,{
name = hr01;
}),
(202,826,o),
(170,789,o),
(156,755,c),
(183,740,l),
(201,765,o),
(214,783,o),
(240,783,cs),
(260,783,o),
(332,742,o),
(371,742,c,{
name = hr02;
}),
(427,760,o),
(459,797,o),
(473,831,c),
(446,846,l)
);
}
);
};
layerId = master01;
shapes = (
{
ref = A;
},
{
pos = (148,0);
ref = tildecomb.case;
}
);
width = 629;
}
);
unicode = 195;
},
{
glyphname = AE;
lastChange = "2022-05-26 15:05:57 +0000";
layers = (
{
anchors = (
{
name = bottom;
pos = (431,0);
},
{
name = top;
pos = (431,662);
}
);
background = {
shapes = (
{
closed = 1;
nodes = (
(472,328,l),
(709,328,l),
(709,366,l),
(472,366,l),
(472,608,l),
(510,619,o),
(541,625,o),
(580,625,c),
(791,594,l),
(791,661,l),
(375,661,l),
(10,0,l),
(64,0,l),
(158,180,l),
(375,180,l),
(375,0,l),
(797,0,l),
(797,67,l),
(472,36,l,{
name = hr00;
})
);
},
{
closed = 1;
nodes = (
(375,218,l),
(178,218,l),
(375,593,l)
);
}
);
};
layerId = master01;
shapes = (
{
closed = 1;
nodes = (
(472,328,l),
(709,328,l),
(709,366,l),
(472,366,l),
(472,608,l),
(510,619,o),
(541,625,o),
(580,625,c),
(791,594,l),
(791,661,l),
(375,661,l),
(10,0,l),
(64,0,l),
(158,180,l),
(375,180,l),
(375,0,l),
(797,0,l),
(797,67,l),
(472,36,l,{
name = hr00;
})
);
},
{
closed = 1;
nodes = (
(375,218,l),
(178,218,l),
(375,593,l)
);
}
);
width = 862;
}
);
unicode = 198;
},
{
glyphname = AEacute;
lastChange = "2022-05-26 15:06:28 +0000";
layers = (
{
background = {
shapes = (
{
closed = 1;
nodes = (
(472,328,l),
(709,328,l),
(709,366,l),
(472,366,l),
(472,608,l),
(510,619,o),
(541,625,o),
(580,625,c),
(791,594,l),
(791,661,l),
(375,661,l),
(10,0,l),
(64,0,l),
(158,180,l),
(375,180,l),
(375,0,l),
(797,0,l),
(797,67,l),
(472,36,l,{
name = hr00;
})
);
},
{
closed = 1;
nodes = (
(375,218,l),
(178,218,l),
(375,593,l)
);
},
{
closed = 1;
nodes = (
(494,707,l),
(682,845,l),
(626,895,l),
(454,707,l,{
name = hr00;
})
);
}
);
};
layerId = master01;
shapes = (
{
ref = AE;
},
{
pos = (261,0);
ref = acutecomb.case;
}
);
width = 862;
}
);
unicode = 508;
},
{
glyphname = B;
lastChange = "2022-05-26 15:05:57 +0000";
layers = (
{
anchors = (
{
name = bottom;
pos = (322,0);
},
{
name = center;
pos = (322,331);
},
{
name = top;
pos = (322,662);
}
);
background = {
shapes = (
{
closed = 1;
nodes = (
(90,0,l),
(298,0,l),
(404,0,o),
(568,49,o),
(568,186,cs),
(568,258,o),
(511,325,o),
(384,349,c),
(474,376,o),
(530,432,o),
(530,506,cs,{
name = hr01;
}),
(530,615,o),
(424,662,o),
(279,662,cs),
(90,662,l)
);
},
{
closed = 1;
nodes = (
(187,606,l),
(221,617,o),
(279,626,o),
(317,626,c),
(397,602,o),
(429,552,o),
(429,501,cs),
(429,430,o),
(390,359,o),
(259,359,c),
(187,359,l)
);
},
{
closed = 1;
nodes = (
(263,330,l),
(370,330,o),
(457,262,o),
(457,178,cs,{
name = hr02;
}),
(457,81,o),
(370,35,o),
(278,35,cs),
(246,35,o),
(206,39,o),
(187,45,c),
(187,330,l)
);
}
);
};
layerId = master01;
shapes = (
{
closed = 1;
nodes = (
(90,0,l),
(298,0,l),
(404,0,o),
(568,49,o),
(568,186,cs),
(568,258,o),
(511,325,o),
(384,349,c),
(474,376,o),
(530,432,o),
(530,506,cs,{
name = hr01;
}),
(530,615,o),
(424,662,o),
(279,662,cs),
(90,662,l)
);
},
{
closed = 1;
nodes = (
(187,606,l),
(221,617,o),
(279,626,o),
(317,626,c),
(397,602,o),
(429,552,o),
(429,501,cs),
(429,430,o),
(390,359,o),
(259,359,c),
(187,359,l)
);
},
{
closed = 1;
nodes = (
(263,330,l),
(370,330,o),
(457,262,o),
(457,178,cs,{
name = hr02;
}),
(457,81,o),
(370,35,o),
(278,35,cs),
(246,35,o),
(206,39,o),
(187,45,c),
(187,330,l)
);
}
);
width = 644;
}
);
unicode = 66;
},
{
glyphname = C;
lastChange = "2022-05-26 15:05:57 +0000";
layers = (
{
anchors = (
{
name = bottom;
pos = (316,0);
},
{
name = top;
pos = (316,662);
}
);
background = {
shapes = (
{
closed = 1;
nodes = (
(561,41,o),
(484,23,o),
(414,23,cs),
(252,23,o),
(134,128,o),
(134,329,cs),
(134,487,o),
(210,601,o),
(352,633,c),
(439,633,o),
(504,606,o),
(576,576,c),
(586,644,l),
(553,655,o),
(475,674,o),
(413,674,cs),
(236,674,o),
(28,569,o),
(28,313,cs),
(28,92,o),
(202,-12,o),
(395,-12,cs),
(454,-12,o),
(541,-2,o),
(602,22,c),
(602,77,l,{
name = hr00;
})
);
}
);
};
layerId = master01;
shapes = (
{
closed = 1;
nodes = (
(561,41,o),
(484,23,o),
(414,23,cs),
(252,23,o),
(134,128,o),
(134,329,cs),
(134,487,o),
(210,601,o),
(352,633,c),
(439,633,o),
(504,606,o),
(576,576,c),
(586,644,l),
(553,655,o),
(475,674,o),
(413,674,cs),
(236,674,o),
(28,569,o),
(28,313,cs),
(28,92,o),
(202,-12,o),
(395,-12,cs),
(454,-12,o),
(541,-2,o),
(602,22,c),
(602,77,l,{
name = hr00;
})
);
}
);
width = 632;
}
);
unicode = 67;
},
{
glyphname = Cacute;
lastChange = "2022-05-26 15:06:28 +0000";
layers = (
{
background = {
shapes = (
{
closed = 1;
nodes = (
(561,41,o),
(484,23,o),
(414,23,cs),
(252,23,o),
(134,128,o),
(134,329,cs),
(134,487,o),
(210,601,o),
(352,633,c),
(439,633,o),
(504,606,o),
(576,576,c),
(586,644,l),
(553,655,o),
(475,674,o),
(413,674,cs),
(236,674,o),
(28,569,o),
(28,313,cs),
(28,92,o),
(202,-12,o),
(395,-12,cs),
(454,-12,o),
(541,-2,o),
(602,22,c),
(602,77,l,{
name = hr00;
})
);
},
{
closed = 1;
nodes = (
(319,717,l),
(507,855,l),
(451,905,l),
(279,717,l,{
name = hr00;
})
);
}
);
};
layerId = master01;
shapes = (
{
ref = C;
},
{
pos = (146,0);
ref = acutecomb.case;
}
);
width = 632;
}
);
unicode = 262;
},
{
glyphname = Ccaron;
lastChange = "2022-05-26 15:06:01 +0000";
layers = (
{
background = {
shapes = (
{
closed = 1;
nodes = (
(561,41,o),
(484,23,o),
(414,23,cs),
(252,23,o),
(134,128,o),
(134,329,cs),
(134,487,o),
(210,601,o),
(352,633,c),
(439,633,o),
(504,606,o),
(576,576,c),
(586,644,l),
(553,655,o),
(475,674,o),
(413,674,cs),
(236,674,o),
(28,569,o),
(28,313,cs),
(28,92,o),
(202,-12,o),
(395,-12,cs),
(454,-12,o),
(541,-2,o),
(602,22,c),
(602,77,l,{
name = hr00;
})
);
},
{
closed = 1;
nodes = (
(352,716,l),
(400,716,l),
(525,883,l),
(485,883,l),
(376,790,l),
(266,883,l),
(226,883,l,{
name = hr00;
})
);
}
);
};
layerId = master01;
shapes = (
{
ref = C;
},
{
pos = (150,0);
ref = caroncomb.case;
}
);
width = 632;
}
);
unicode = 268;
},
{
glyphname = Ccedilla;
lastChange = "2022-05-26 15:06:01 +0000";
layers = (
{
background = {
shapes = (
{
closed = 1;
nodes = (
(561,41,o),
(484,23,o),
(414,23,cs),
(252,23,o),
(134,128,o),
(134,329,cs),
(134,487,o),
(210,601,o),
(352,633,c),
(439,633,o),
(504,606,o),
(576,576,c),
(586,644,l),
(553,655,o),
(475,674,o),
(413,674,cs),
(236,674,o),
(28,569,o),
(28,313,cs),
(28,92,o),
(202,-12,o),
(395,-12,cs),
(454,-12,o),
(541,-2,o),
(602,22,c),
(602,77,l,{
name = hr00;
})
);
},
{
closed = 1;
nodes = (
(258,-100,l),
(296,-100,o),
(329,-110,o),
(345,-141,c),
(345,-163,o),
(319,-180,o),
(287,-180,cs),
(279,-180,o),
(242,-175,o),
(225,-168,c),
(211,-199,l),
(233,-208,o),
(273,-215,o),
(299,-215,cs),
(366,-215,o),
(420,-178,o),
(420,-132,c),
(397,-88,o),
(349,-65,o),
(308,-65,c),
(333,0,l),
(298,0,l,{
name = hr00;
})
);
}
);
};
layerId = master01;
shapes = (
{
ref = C;
},
{
pos = (159,0);
ref = cedillacomb;
}
);
width = 632;
}
);
unicode = 199;
},
{
glyphname = Ccircumflex;
lastChange = "2022-05-26 15:06:01 +0000";
layers = (
{
background = {
shapes = (
{
closed = 1;
nodes = (
(561,41,o),
(484,23,o),
(414,23,cs),
(252,23,o),
(134,128,o),
(134,329,cs),
(134,487,o),
(210,601,o),
(352,633,c),
(439,633,o),
(504,606,o),
(576,576,c),
(586,644,l),
(553,655,o),
(475,674,o),
(413,674,cs),
(236,674,o),
(28,569,o),
(28,313,cs),
(28,92,o),
(202,-12,o),
(395,-12,cs),
(454,-12,o),
(541,-2,o),
(602,22,c),
(602,77,l,{
name = hr00;
})
);
},
{
closed = 1;
nodes = (
(399,884,l),
(351,884,l),
(226,717,l),
(266,717,l),
(375,810,l),
(485,717,l),
(525,717,l,{
name = hr00;
})
);
}
);
};
layerId = master01;
shapes = (
{
ref = C;
},
{
pos = (149,0);
ref = circumflexcomb.case;
}
);
width = 632;
}
);
unicode = 264;
},
{
glyphname = Cdotaccent;
lastChange = "2022-05-26 15:06:01 +0000";
layers = (
{
background = {
shapes = (
{
closed = 1;
nodes = (
(561,41,o),
(484,23,o),
(414,23,cs),
(252,23,o),
(134,128,o),
(134,329,cs),
(134,487,o),
(210,601,o),
(352,633,c),
(439,633,o),
(504,606,o),
(576,576,c),
(586,644,l),
(553,655,o),
(475,674,o),
(413,674,cs),
(236,674,o),
(28,569,o),
(28,313,cs),
(28,92,o),
(202,-12,o),
(395,-12,cs),
(454,-12,o),
(541,-2,o),
(602,22,c),
(602,77,l,{
name = hr00;
})
);
},
{
closed = 1;
nodes = (
(346,855,o),
(324,832,o),
(324,803,cs),
(324,776,o),
(346,751,o),
(375,751,cs),
(403,751,o),
(427,776,o),
(427,803,cs),
(427,832,o),
(403,855,o),
(375,855,cs,{
name = hr00;
})
);
}
);
};
layerId = master01;
shapes = (
{
ref = C;
},
{
pos = (199,0);
ref = dotaccentcomb.case;
}
);
width = 632;
}
);
unicode = 266;
},
{
glyphname = D;
lastChange = "2022-05-26 15:05:57 +0000";
layers = (
{
anchors = (
{
name = bottom;
pos = (354,0);
},
{
name = center;
pos = (354,331);
},
{
name = top;
pos = (354,662);
}
);
background = {
shapes = (
{
closed = 1;
nodes = (
(90,0,l),
(298,0,ls),
(491,0,o),
(665,92,o),
(665,313,cs),
(665,569,o),
(457,662,o),
(279,662,cs),
(90,662,l,{
name = hr00;
})
);
},
{
closed = 1;
nodes = (
(225,617,o),
(293,626,o),
(340,626,c),
(465,593,o),
(559,483,o),
(559,329,cs),
(559,128,o),
(440,34,o),
(278,34,cs),
(246,34,o),
(206,38,o),
(188,43,c),
(188,605,l)
);
}
);
};
layerId = master01;
shapes = (
{
closed = 1;
nodes = (
(90,0,l),
(298,0,ls),
(491,0,o),
(665,92,o),
(665,313,cs),
(665,569,o),
(457,662,o),
(279,662,cs),
(90,662,l,{
name = hr00;
})
);
},
{
closed = 1;
nodes = (
(225,617,o),
(293,626,o),
(340,626,c),
(465,593,o),
(559,483,o),
(559,329,cs),
(559,128,o),
(440,34,o),
(278,34,cs),
(246,34,o),
(206,38,o),
(188,43,c),
(188,605,l)
);
}
);
width = 708;
}
);
unicode = 68;
},
{
glyphname = Eth;
lastChange = "2022-05-26 14:56:42 +0000";
layers = (
{
background = {
shapes = (
{
closed = 1;
nodes = (
(90,0,l),
(298,0,ls),
(491,0,o),
(665,92,o),
(665,313,cs),
(665,569,o),
(457,662,o),
(279,662,cs),
(90,662,l,{
name = hr00;
})
);
},
{
closed = 1;
nodes = (
(225,617,o),
(293,626,o),
(340,626,c),
(465,593,o),
(559,483,o),
(559,329,cs),
(559,128,o),
(440,34,o),
(278,34,cs),
(246,34,o),
(206,38,o),
(188,43,c),
(188,605,l)
);
},
{
closed = 1;
nodes = (
(0,374,l),
(0,325,l),
(390,325,l),
(390,374,l,{
name = hr00;
})
);
}
);
};
layerId = master01;
shapes = (
{
alignment = -1;
ref = D;
},
{
alignment = -1;
ref = ethbar;
}
);
width = 708;
}
);
unicode = 208;
},
{
glyphname = Dcaron;
lastChange = "2022-05-26 15:06:01 +0000";
layers = (
{
background = {
shapes = (
{
closed = 1;
nodes = (
(90,0,l),
(298,0,ls),
(491,0,o),
(665,92,o),
(665,313,cs),
(665,569,o),
(457,662,o),
(279,662,cs),
(90,662,l,{
name = hr00;
})
);
},
{
closed = 1;
nodes = (
(225,617,o),
(293,626,o),
(340,626,c),
(465,593,o),
(559,483,o),
(559,329,cs),
(559,128,o),
(440,34,o),
(278,34,cs),
(246,34,o),
(206,38,o),
(188,43,c),
(188,605,l)
);
},
{
closed = 1;
nodes = (
(330,716,l),
(378,716,l),
(503,883,l),
(463,883,l),
(354,790,l),
(244,883,l),
(204,883,l,{
name = hr00;
})
);
}
);
};
layerId = master01;
shapes = (
{
ref = D;
},
{
pos = (188,0);
ref = caroncomb.case;
}
);
width = 708;
}
);
unicode = 270;
},
{
glyphname = Dcroat;
lastChange = "2022-05-26 15:06:01 +0000";
layers = (
{
background = {
shapes = (
{
closed = 1;
nodes = (
(90,0,l),
(298,0,ls),
(491,0,o),
(665,92,o),
(665,313,cs),
(665,569,o),
(457,662,o),
(279,662,cs),
(90,662,l,{
name = hr00;
})
);
},
{
closed = 1;
nodes = (
(225,617,o),
(293,626,o),
(340,626,c),
(465,593,o),
(559,483,o),
(559,329,cs),
(559,128,o),
(440,34,o),
(278,34,cs),
(246,34,o),
(206,38,o),
(188,43,c),
(188,605,l)
);
},
{
closed = 1;
nodes = (
(0,374,l),
(0,325,l),
(390,325,l),
(390,374,l,{
name = hr00;
})
);
}
);
};
layerId = master01;
shapes = (
{
ref = Eth;
}
);
width = 708;
}
);
unicode = 272;
},
{
glyphname = E;
lastChange = "2022-05-26 15:05:57 +0000";
layers = (
{
anchors = (
{
name = bottom;
pos = (281,0);
},
{
name = ogonek;
pos = (506,10);
},
{
name = top;
pos = (281,662);
},
{
name = topleft;
pos = (20,662);
}
);
background = {
shapes = (
{
closed = 1;
nodes = (
(187,36,l),
(187,328,l),
(409,328,l),
(409,366,l),
(187,366,l),
(187,609,l),
(225,620,o),
(256,626,o),
(295,626,c),
(481,595,l),
(491,662,l),
(90,662,l),
(90,0,l),
(487,0,l),
(497,67,l,{
name = hr00;
})
);
}
);
};
layerId = master01;
shapes = (
{
closed = 1;
nodes = (
(187,36,l),
(187,328,l),
(409,328,l),
(409,366,l),
(187,366,l),
(187,609,l),
(225,620,o),
(256,626,o),
(295,626,c),
(481,595,l),
(491,662,l),
(90,662,l),
(90,0,l),
(487,0,l),
(497,67,l,{
name = hr00;
})
);
}
);
width = 562;
}
);
unicode = 69;
},
{
glyphname = Eacute;
lastChange = "2022-05-26 15:06:28 +0000";
layers = (
{
background = {
shapes = (
{
closed = 1;
nodes = (
(187,36,l),
(187,328,l),
(409,328,l),
(409,366,l),
(187,366,l),
(187,609,l),
(225,620,o),
(256,626,o),
(295,626,c),
(481,595,l),
(491,662,l),
(90,662,l),
(90,0,l),
(487,0,l),
(497,67,l,{
name = hr00;
})
);
},
{
closed = 1;
nodes = (
(224,717,l),
(412,855,l),
(356,905,l),
(184,717,l,{
name = hr00;
})
);
}
);
};
layerId = master01;
shapes = (
{
ref = E;
},
{
pos = (111,0);
ref = acutecomb.case;
}
);
width = 562;
}
);
unicode = 201;
},
{
glyphname = Ebreve;
lastChange = "2022-05-26 15:06:01 +0000";
layers = (
{
background = {
shapes = (
{
closed = 1;
nodes = (
(187,36,l),
(187,328,l),
(409,328,l),
(409,366,l),
(187,366,l),
(187,609,l),
(225,620,o),
(256,626,o),
(295,626,c),
(481,595,l),
(491,662,l),
(90,662,l),
(90,0,l),
(487,0,l),
(497,67,l,{
name = hr00;
})
);
},
{
closed = 1;
nodes = (
(373,824,o),
(356,777,o),
(280,777,cs),
(216,777,o),
(179,813,o),
(169,874,c),
(140,874,l),
(140,869,ls),
(140,764,o),
(207,717,o),
(278,717,cs),
(406,717,o),
(418,843,o),
(421,874,c),
(392,874,l,{
name = hr00;
})
);
}
);
};
layerId = master01;
shapes = (
{
ref = E;
},
{
pos = (114,0);
ref = brevecomb.case;
}
);
width = 562;
}
);
unicode = 276;
},
{
glyphname = Ecaron;
lastChange = "2022-05-26 15:06:01 +0000";
layers = (
{
background = {
shapes = (
{
closed = 1;
nodes = (
(187,36,l),
(187,328,l),
(409,328,l),
(409,366,l),
(187,366,l),
(187,609,l),
(225,620,o),
(256,626,o),
(295,626,c),
(481,595,l),
(491,662,l),
(90,662,l),
(90,0,l),
(487,0,l),
(497,67,l,{
name = hr00;
})
);
},
{
closed = 1;
nodes = (
(257,716,l),
(305,716,l),
(430,883,l),
(390,883,l),
(281,790,l),
(171,883,l),
(131,883,l,{
name = hr00;
})
);
}
);
};
layerId = master01;
shapes = (
{
ref = E;
},
{
pos = (115,0);
ref = caroncomb.case;
}
);
width = 562;
}
);
unicode = 282;
},
{
glyphname = Ecircumflex;
lastChange = "2022-05-26 15:06:01 +0000";
layers = (
{
background = {
shapes = (
{
closed = 1;
nodes = (
(187,36,l),
(187,328,l),
(409,328,l),
(409,366,l),
(187,366,l),
(187,609,l),
(225,620,o),
(256,626,o),
(295,626,c),
(481,595,l),
(491,662,l),
(90,662,l),
(90,0,l),
(487,0,l),
(497,67,l,{
name = hr00;
})
);
},
{
closed = 1;
nodes = (
(304,884,l),
(256,884,l),
(131,717,l),
(171,717,l),
(280,810,l),
(390,717,l),
(430,717,l,{
name = hr00;
})
);
}
);
};
layerId = master01;
shapes = (
{
ref = E;
},
{
pos = (114,0);
ref = circumflexcomb.case;
}
);
width = 562;
}
);
unicode = 202;
},
{
glyphname = Edieresis;
lastChange = "2022-05-26 15:06:01 +0000";
layers = (
{
background = {
shapes = (
{
closed = 1;
nodes = (
(187,36,l),
(187,328,l),
(409,328,l),
(409,366,l),
(187,366,l),
(187,609,l),
(225,620,o),
(256,626,o),
(295,626,c),
(481,595,l),
(491,662,l),
(90,662,l),
(90,0,l),
(487,0,l),
(497,67,l,{
name = hr00;
})
);
},
{
closed = 1;
nodes = (
(329,773,o),
(351,751,o),
(379,751,cs),
(407,751,o),
(429,773,o),
(429,801,cs),
(429,829,o),
(407,851,o),
(379,851,cs),
(351,851,o),
(329,829,o),
(329,801,c,{
name = hr00;
})
);
},
{
closed = 1;
nodes = (
(132,773,o),
(154,751,o),
(182,751,cs),
(210,751,o),
(232,773,o),
(232,801,cs),
(232,829,o),
(210,851,o),
(182,851,cs),
(154,851,o),
(132,829,o),
(132,801,cs)
);
}
);
};
layerId = master01;
shapes = (
{
ref = E;
},
{
pos = (114,0);
ref = dieresiscomb.case;
}
);
width = 562;
}
);
unicode = 203;
},
{
glyphname = Edotaccent;
lastChange = "2022-05-26 15:06:01 +0000";
layers = (
{
background = {
shapes = (
{
closed = 1;
nodes = (
(187,36,l),
(187,328,l),
(409,328,l),
(409,366,l),
(187,366,l),
(187,609,l),
(225,620,o),
(256,626,o),
(295,626,c),
(481,595,l),
(491,662,l),
(90,662,l),
(90,0,l),
(487,0,l),
(497,67,l,{
name = hr00;
})
);
},
{
closed = 1;
nodes = (
(251,855,o),
(229,832,o),
(229,803,cs),
(229,776,o),
(251,751,o),
(280,751,cs),
(308,751,o),
(332,776,o),
(332,803,cs),
(332,832,o),
(308,855,o),
(280,855,cs,{
name = hr00;
})
);
}
);
};
layerId = master01;
shapes = (
{
ref = E;
},
{
pos = (164,0);
ref = dotaccentcomb.case;
}
);
width = 562;
}
);
unicode = 278;
},
{
glyphname = Egrave;
lastChange = "2022-05-26 15:06:01 +0000";
layers = (
{
background = {
shapes = (
{
closed = 1;
nodes = (
(187,36,l),
(187,328,l),
(409,328,l),
(409,366,l),
(187,366,l),
(187,609,l),
(225,620,o),
(256,626,o),
(295,626,c),
(481,595,l),
(491,662,l),
(90,662,l),
(90,0,l),
(487,0,l),
(497,67,l,{
name = hr00;
})
);
},
{
closed = 1;
nodes = (
(355,717,l),
(167,855,l),
(223,905,l),
(395,717,l,{
name = hr00;
})
);
}
);
};
layerId = master01;
shapes = (
{
ref = E;
},
{
pos = (153,0);
ref = gravecomb.case;
}
);
width = 562;
}
);
unicode = 200;
},
{
glyphname = Emacron;
lastChange = "2022-05-26 15:06:01 +0000";
layers = (
{
background = {
shapes = (
{
closed = 1;
nodes = (
(187,36,l),
(187,328,l),
(409,328,l),
(409,366,l),
(187,366,l),
(187,609,l),
(225,620,o),
(256,626,o),
(295,626,c),
(481,595,l),
(491,662,l),
(90,662,l),
(90,0,l),
(487,0,l),
(497,67,l,{
name = hr00;
})
);
},
{
closed = 1;
nodes = (
(125,811,l),
(125,757,l),
(436,757,l),
(436,811,l,{
name = hr00;
})
);
}
);
};
layerId = master01;
shapes = (
{
ref = E;
},
{
pos = (114,0);
ref = macroncomb.case;
}
);
width = 562;
}
);
unicode = 274;
},
{
glyphname = Eogonek;
lastChange = "2022-05-26 15:06:01 +0000";
layers = (
{
anchors = (
{
name = top;
pos = (281,662);
}
);
background = {
shapes = (
{
closed = 1;
nodes = (
(187,36,l),
(187,328,l),
(409,328,l),
(409,366,l),
(187,366,l),
(187,609,l),
(225,620,o),
(256,626,o),
(295,626,c),
(481,595,l),
(491,662,l),
(90,662,l),
(90,0,l),
(487,0,l),
(497,67,l,{
name = hr00;
})
);
},
{
closed = 1;
nodes = (
(350,-20,o),
(325,-54,o),
(325,-97,cs),
(325,-135,o),
(360,-165,o),
(404,-165,cs),
(448,-165,o),
(493,-127,o),
(506,-80,c),
(490,-73,l),
(479,-97,o),
(449,-116,o),
(424,-116,cs),
(399,-116,o),
(379,-103,o),
(379,-75,cs),
(379,-41,o),
(401,-19,o),
(425,0,c),
(381,0,l,{
name = hr00;
})
);
}
);
};
layerId = master01;
shapes = (
{
ref = E;
},
{
pos = (263,10);
ref = ogonekcomb;
}
);
width = 562;
}
);
unicode = 280;
},
{
glyphname = F;
lastChange = "2022-05-26 15:05:57 +0000";
layers = (
{
anchors = (
{
name = bottom;
pos = (241,0);
},
{
name = top;
pos = (241,662);
}
);
background = {
shapes = (
{
closed = 1;
nodes = (
(481,662,l),
(90,662,l),
(90,0,l),
(187,0,l),
(187,328,l),
(399,328,l),
(399,366,l),
(187,366,l),
(187,609,l),
(225,620,o),
(256,626,o),
(296,626,c),
(481,595,l,{
name = hr00;
})
);
}
);
};
layerId = master01;
shapes = (
{
closed = 1;
nodes = (
(481,662,l),
(90,662,l),
(90,0,l),
(187,0,l),
(187,328,l),
(399,328,l),
(399,366,l),
(187,366,l),
(187,609,l),
(225,620,o),
(256,626,o),
(296,626,c),
(481,595,l,{
name = hr00;
})
);
}
);
width = 481;
}
);
unicode = 70;
},
{
glyphname = G;
lastChange = "2022-05-26 15:05:57 +0000";
layers = (
{
anchors = (
{
name = bottom;
pos = (340,0);
},
{
name = top;
pos = (340,662);
}
);
background = {
shapes = (
{
closed = 1;
nodes = (
(509,285,l),
(509,33,l),
(480,26,o),
(448,23,o),
(418,23,cs),
(256,23,o),
(138,127,o),
(138,328,cs),
(138,484,o),
(222,599,o),
(356,633,c),
(433,633,o),
(502,609,o),
(580,576,c),
(590,643,l),
(557,657,o),
(479,674,o),
(417,674,cs),
(247,674,o),
(32,568,o),
(32,312,cs),
(32,91,o),
(213,-12,o),
(399,-12,cs),
(458,-12,o),
(545,-2,o),
(606,22,c),
(606,285,l,{
name = hr00;
})
);
}
);
};
layerId = master01;
shapes = (
{
closed = 1;
nodes = (
(509,285,l),
(509,33,l),
(480,26,o),
(448,23,o),
(418,23,cs),
(256,23,o),
(138,127,o),
(138,328,cs),
(138,484,o),
(222,599,o),
(356,633,c),
(433,633,o),
(502,609,o),
(580,576,c),
(590,643,l),
(557,657,o),
(479,674,o),
(417,674,cs),
(247,674,o),
(32,568,o),
(32,312,cs),
(32,91,o),
(213,-12,o),
(399,-12,cs),
(458,-12,o),
(545,-2,o),
(606,22,c),
(606,285,l,{
name = hr00;
})
);
}
);
width = 680;
}
);
unicode = 71;
},
{
glyphname = Gbreve;
lastChange = "2022-05-26 15:06:01 +0000";
layers = (
{
background = {
shapes = (
{
closed = 1;
nodes = (
(509,285,l),
(509,33,l),
(480,26,o),
(448,23,o),
(418,23,cs),
(256,23,o),
(138,127,o),
(138,328,cs),
(138,484,o),
(222,599,o),
(356,633,c),
(433,633,o),
(502,609,o),
(580,576,c),
(590,643,l),
(557,657,o),
(479,674,o),
(417,674,cs),
(247,674,o),
(32,568,o),
(32,312,cs),
(32,91,o),
(213,-12,o),
(399,-12,cs),
(458,-12,o),
(545,-2,o),
(606,22,c),
(606,285,l,{
name = hr00;
})
);
},
{
closed = 1;
nodes = (
(468,824,o),
(451,777,o),
(375,777,cs),
(311,777,o),
(274,813,o),
(264,874,c),
(235,874,l),
(235,869,ls),
(235,764,o),
(302,717,o),
(373,717,cs),
(501,717,o),
(513,843,o),
(516,874,c),
(487,874,l,{
name = hr00;
})
);
}
);
};
layerId = master01;
shapes = (
{
ref = G;
},
{
pos = (173,0);
ref = brevecomb.case;
}
);
width = 680;
}
);
unicode = 286;
},
{
glyphname = Gcircumflex;
lastChange = "2022-05-26 15:06:01 +0000";
layers = (
{
background = {
shapes = (
{
closed = 1;
nodes = (
(509,285,l),
(509,33,l),
(480,26,o),
(448,23,o),
(418,23,cs),
(256,23,o),
(138,127,o),
(138,328,cs),
(138,484,o),
(222,599,o),
(356,633,c),
(433,633,o),
(502,609,o),
(580,576,c),
(590,643,l),
(557,657,o),
(479,674,o),
(417,674,cs),
(247,674,o),
(32,568,o),
(32,312,cs),
(32,91,o),
(213,-12,o),
(399,-12,cs),
(458,-12,o),
(545,-2,o),
(606,22,c),
(606,285,l,{
name = hr00;
})
);
},
{
closed = 1;
nodes = (
(399,884,l),
(351,884,l),
(226,717,l),
(266,717,l),
(375,810,l),
(485,717,l),
(525,717,l,{
name = hr00;
})
);
}
);
};
layerId = master01;
shapes = (
{
ref = G;
},
{
pos = (173,0);
ref = circumflexcomb.case;
}
);
width = 680;
}
);
unicode = 284;
},
{
glyphname = Gcommaaccent;
lastChange = "2022-05-26 15:06:01 +0000";
layers = (
{
background = {
shapes = (
{
closed = 1;
nodes = (
(509,285,l),
(509,33,l),
(480,26,o),
(448,23,o),
(418,23,cs),
(256,23,o),
(138,127,o),
(138,328,cs),
(138,484,o),
(222,599,o),
(356,633,c),
(433,633,o),
(502,609,o),
(580,576,c),
(590,643,l),
(557,657,o),
(479,674,o),
(417,674,cs),
(247,674,o),
(32,568,o),
(32,312,cs),
(32,91,o),
(213,-12,o),
(399,-12,cs),
(458,-12,o),
(545,-2,o),
(606,22,c),
(606,285,l,{
name = hr00;
})
);
},
{
closed = 1;
nodes = (
(349,-46,o),
(302,-71,o),
(283,-99,c),
(283,-135,o),
(317,-154,o),
(345,-154,c),
(345,-197,o),
(317,-242,o),
(278,-273,c),
(290,-292,l),
(351,-258,o),
(402,-205,o),
(402,-122,cs),
(402,-98,o),
(398,-71,o),
(388,-42,c,{
name = hr00;
})
);
}
);
};
layerId = master01;
shapes = (
{
ref = G;
},
{
pos = (462,0);
ref = commaaccentcomb;
}
);
width = 680;
}
);
unicode = 290;
},
{
glyphname = Gdotaccent;
lastChange = "2022-05-26 15:06:01 +0000";
layers = (
{
background = {
shapes = (
{
closed = 1;
nodes = (
(509,285,l),
(509,33,l),
(480,26,o),
(448,23,o),
(418,23,cs),
(256,23,o),
(138,127,o),
(138,328,cs),
(138,484,o),
(222,599,o),
(356,633,c),
(433,633,o),
(502,609,o),
(580,576,c),
(590,643,l),
(557,657,o),
(479,674,o),
(417,674,cs),
(247,674,o),
(32,568,o),
(32,312,cs),
(32,91,o),
(213,-12,o),
(399,-12,cs),
(458,-12,o),
(545,-2,o),
(606,22,c),
(606,285,l,{
name = hr00;
})
);
},
{
closed = 1;
nodes = (
(346,855,o),
(324,832,o),
(324,803,cs),
(324,776,o),
(346,751,o),
(375,751,cs),
(403,751,o),
(427,776,o),
(427,803,cs),
(427,832,o),
(403,855,o),
(375,855,cs,{
name = hr00;
})
);
}
);
};
layerId = master01;
shapes = (
{
ref = G;
},
{
pos = (223,0);
ref = dotaccentcomb.case;
}
);
width = 680;
}
);
unicode = 288;
},
{
glyphname = H;
lastChange = "2022-05-26 15:05:57 +0000";
layers = (
{
anchors = (
{
name = bottom;
pos = (339,0);
},
{
name = center;
pos = (339,331);
},
{
name = top;
pos = (339,662);
},
{
name = topleft;
pos = (20,662);
}
);
background = {
shapes = (
{
closed = 1;
nodes = (
(187,328,l),
(490,328,l),
(490,0,l),
(587,0,l),
(587,662,l),
(490,662,l),
(490,366,l),
(187,366,l),
(187,662,l),
(90,662,l),
(90,0,l),
(187,0,l,{
name = hr00;
})
);
}
);
};
layerId = master01;
shapes = (
{
closed = 1;
nodes = (
(187,328,l),
(490,328,l),
(490,0,l),
(587,0,l),
(587,662,l),
(490,662,l),
(490,366,l),
(187,366,l),
(187,662,l),
(90,662,l),
(90,0,l),
(187,0,l,{
name = hr00;
})
);
}
);
width = 677;
}
);
unicode = 72;
},
{
glyphname = Hbar;
lastChange = "2022-05-26 14:56:42 +0000";
layers = (
{
background = {
shapes = (
{
closed = 1;
nodes = (
(187,328,l),
(490,328,l),
(490,0,l),
(587,0,l),
(587,662,l),
(490,662,l),
(490,366,l),
(187,366,l),
(187,662,l),
(90,662,l),
(90,0,l),
(187,0,l,{
name = hr00;
})
);
},
{
closed = 1;
nodes = (
(16,539,l),
(16,490,l),
(660,490,l),
(660,539,l,{
name = hr00;
})
);
}
);
};
layerId = master01;
shapes = (
{
alignment = -1;
ref = H;
},
{
alignment = -1;
pos = (16,165);
ref = ethbar;
scale = (1.65,1);
}
);
width = 677;
}
);
unicode = 294;
},
{
glyphname = Hcircumflex;
lastChange = "2022-05-26 15:06:01 +0000";
layers = (
{
background = {
shapes = (
{
closed = 1;
nodes = (
(187,328,l),
(490,328,l),
(490,0,l),
(587,0,l),
(587,662,l),
(490,662,l),
(490,366,l),
(187,366,l),
(187,662,l),
(90,662,l),
(90,0,l),
(187,0,l,{
name = hr00;
})
);
},
{
closed = 1;
nodes = (
(362,884,l),
(314,884,l),
(189,717,l),
(229,717,l),
(338,810,l),
(448,717,l),
(488,717,l,{
name = hr00;
})
);
}
);
};
layerId = master01;
shapes = (
{
ref = H;
},
{
pos = (172,0);
ref = circumflexcomb.case;
}
);
width = 677;
}
);
unicode = 292;
},
{
glyphname = I;
lastChange = "2022-05-26 15:05:57 +0000";
layers = (
{
anchors = (
{
name = bottom;
pos = (136,0);
},
{
name = ogonek;
pos = (245,10);
},
{
name = top;
pos = (136,662);
},
{
name = topleft;
pos = (20,662);
}
);
background = {
shapes = (
{
closed = 1;
nodes = (
(182,662,l),
(90,662,l),
(90,0,l),
(182,0,l,{
name = hr00;
})
);
}
);
};
layerId = master01;
shapes = (
{
closed = 1;
nodes = (
(182,662,l),
(90,662,l),
(90,0,l),
(182,0,l,{
name = hr00;
})
);
}
);
width = 272;
}
);
unicode = 73;
},
{
glyphname = IJ;
lastChange = "2022-05-26 15:06:01 +0000";
layers = (
{
background = {
shapes = (
{
closed = 1;
nodes = (
(182,662,l),
(90,662,l),
(90,0,l),
(182,0,l,{
name = hr00;
})
);
},
{
closed = 1;
nodes = (
(240,-177,o),
(176,-156,o),
(140,-132,c),
(130,-210,l),
(158,-218,o),
(201,-224,o),
(230,-224,cs),
(359,-224,o),
(461,-105,o),
(461,41,cs),
(461,662,l),
(362,662,l),
(362,41,ls),
(362,-56,o),
(326,-149,o),
(281,-177,c,{
name = hr00;
})
);
}
);
};
layerId = master01;
shapes = (
{
ref = I;
},
{
pos = (272,0);
ref = J;
}
);
width = 551;
}
);
unicode = 306;
},
{
glyphname = Iacute;
lastChange = "2022-05-26 15:06:28 +0000";
layers = (
{
background = {
shapes = (
{
closed = 1;
nodes = (
(182,662,l),
(90,662,l),
(90,0,l),
(182,0,l,{
name = hr00;
})
);
},
{
closed = 1;
nodes = (
(79,717,l),
(267,855,l),
(211,905,l),
(39,717,l,{
name = hr00;
})
);
}
);
};
layerId = master01;
shapes = (
{
ref = I;
},
{
pos = (-34,0);
ref = acutecomb.case;
}
);
width = 272;
}
);
unicode = 205;
},
{
glyphname = Ibreve;
lastChange = "2022-05-26 15:06:01 +0000";
layers = (
{
background = {
shapes = (
{
closed = 1;
nodes = (
(182,662,l),
(90,662,l),
(90,0,l),
(182,0,l,{
name = hr00;
})
);
},
{
closed = 1;
nodes = (
(228,824,o),
(211,777,o),
(135,777,cs),
(71,777,o),
(34,813,o),
(24,874,c),
(-5,874,l),
(-5,869,ls),
(-5,764,o),
(62,717,o),
(133,717,cs),
(261,717,o),
(273,843,o),
(276,874,c),
(247,874,l,{
name = hr00;
})
);
}
);
};
layerId = master01;
shapes = (
{
ref = I;
},
{
pos = (-31,0);
ref = brevecomb.case;
}
);
width = 272;
}
);
unicode = 300;
},
{
glyphname = Icircumflex;
lastChange = "2022-05-26 15:06:01 +0000";
layers = (
{
background = {
shapes = (
{
closed = 1;
nodes = (
(182,662,l),
(90,662,l),
(90,0,l),
(182,0,l,{
name = hr00;
})
);
},
{
closed = 1;
nodes = (
(159,884,l),
(111,884,l),
(-14,717,l),
(26,717,l),
(135,810,l),
(245,717,l),
(285,717,l,{
name = hr00;
})
);
}
);
};
layerId = master01;
shapes = (
{
ref = I;
},
{
pos = (-31,0);
ref = circumflexcomb.case;
}
);
width = 272;
}
);
unicode = 206;
},
{
glyphname = Idieresis;
lastChange = "2022-05-26 15:06:01 +0000";
layers = (
{
background = {
shapes = (
{
closed = 1;
nodes = (
(182,662,l),
(90,662,l),
(90,0,l),
(182,0,l,{
name = hr00;
})
);
},
{
closed = 1;
nodes = (
(184,773,o),
(206,751,o),
(234,751,cs),
(262,751,o),
(284,773,o),
(284,801,cs),
(284,829,o),
(262,851,o),
(234,851,cs),
(206,851,o),
(184,829,o),
(184,801,c,{
name = hr00;
})
);
},
{
closed = 1;
nodes = (
(-13,773,o),
(9,751,o),
(37,751,cs),
(65,751,o),
(87,773,o),
(87,801,cs),
(87,829,o),
(65,851,o),
(37,851,cs),
(9,851,o),
(-13,829,o),
(-13,801,cs)
);
}
);
};
layerId = master01;
shapes = (
{
ref = I;
},
{
pos = (-31,0);
ref = dieresiscomb.case;
}
);
width = 272;
}
);
unicode = 207;
},
{
glyphname = Idotaccent;
lastChange = "2022-05-26 15:06:01 +0000";
layers = (
{
background = {
shapes = (
{
closed = 1;
nodes = (
(182,662,l),
(90,662,l),
(90,0,l),
(182,0,l,{
name = hr00;
})
);
},
{
closed = 1;
nodes = (
(106,855,o),
(84,832,o),
(84,803,cs),
(84,776,o),
(106,751,o),
(135,751,cs),
(163,751,o),
(187,776,o),
(187,803,cs),
(187,832,o),
(163,855,o),
(135,855,cs,{
name = hr00;
})
);
}
);
};
layerId = master01;
shapes = (
{
ref = I;
},
{
pos = (19,0);
ref = dotaccentcomb.case;
}
);
width = 272;
}
);
unicode = 304;
},
{
glyphname = Igrave;
lastChange = "2022-05-26 15:06:01 +0000";
layers = (
{
background = {
shapes = (
{
closed = 1;
nodes = (
(182,662,l),
(90,662,l),
(90,0,l),
(182,0,l,{
name = hr00;
})
);
},
{
closed = 1;
nodes = (
(210,717,l),
(22,855,l),
(78,905,l),
(250,717,l,{
name = hr00;
})
);
}
);
};
layerId = master01;
shapes = (
{
ref = I;
},
{
pos = (8,0);
ref = gravecomb.case;
}
);
width = 272;
}
);
unicode = 204;
},
{
glyphname = Imacron;
lastChange = "2022-05-26 15:06:01 +0000";
layers = (
{
background = {
shapes = (
{
closed = 1;
nodes = (
(182,662,l),
(90,662,l),
(90,0,l),
(182,0,l,{
name = hr00;
})
);
},
{
closed = 1;
nodes = (
(-20,811,l),
(-20,757,l),
(291,757,l),
(291,811,l,{
name = hr00;
})
);
}
);
};
layerId = master01;
shapes = (
{
ref = I;
},
{
pos = (-31,0);
ref = macroncomb.case;
}
);
width = 272;
}
);
unicode = 298;
},
{
glyphname = Iogonek;
lastChange = "2022-05-26 15:06:01 +0000";
layers = (
{
background = {
shapes = (
{
closed = 1;
nodes = (
(182,662,l),
(90,662,l),
(90,0,l),
(182,0,l,{
name = hr00;
})
);
},
{
closed = 1;
nodes = (
(89,-20,o),
(64,-54,o),
(64,-97,cs),
(64,-135,o),
(99,-165,o),
(143,-165,cs),
(187,-165,o),
(232,-127,o),
(245,-80,c),
(229,-73,l),
(218,-97,o),
(188,-116,o),
(163,-116,cs),
(138,-116,o),
(118,-103,o),
(118,-75,cs),
(118,-41,o),
(140,-19,o),
(164,0,c),
(120,0,l,{
name = hr00;
})
);
}
);
};
layerId = master01;
shapes = (
{
ref = I;
},
{
pos = (2,10);
ref = ogonekcomb;
}
);
width = 272;
}
);
unicode = 302;
},
{
glyphname = Itilde;
lastChange = "2022-05-26 15:06:01 +0000";
layers = (
{
background = {
shapes = (
{
closed = 1;
nodes = (
(182,662,l),
(90,662,l),
(90,0,l),
(182,0,l,{
name = hr00;
})
);
},
{
closed = 1;
nodes = (
(249,821,o),
(236,803,o),
(210,803,cs),
(190,803,o),
(118,844,o),
(79,844,c,{
name = hr01;
}),
(23,826,o),
(-9,789,o),
(-23,755,c),
(4,740,l),
(22,765,o),
(35,783,o),
(61,783,cs),
(81,783,o),
(153,742,o),
(192,742,c,{
name = hr02;
}),
(248,760,o),
(280,797,o),
(294,831,c),
(267,846,l)
);
}
);
};
layerId = master01;
shapes = (
{
ref = I;
},
{
pos = (-31,0);
ref = tildecomb.case;
}
);
width = 272;
}
);
unicode = 296;
},
{
glyphname = J;
lastChange = "2022-05-26 15:05:57 +0000";
layers = (
{
anchors = (
{
name = bottom;
pos = (140,0);
},
{
name = top;
pos = (140,662);
}
);
background = {
shapes = (
{
closed = 1;
nodes = (
(-32,-177,o),
(-96,-156,o),
(-132,-132,c),
(-142,-210,l),
(-114,-218,o),
(-71,-224,o),
(-42,-224,cs),
(87,-224,o),
(189,-105,o),
(189,41,cs),
(189,662,l),
(90,662,l),
(90,41,ls),
(90,-56,o),
(54,-149,o),
(9,-177,c,{
name = hr00;
})
);
}
);
};
layerId = master01;
shapes = (
{
closed = 1;
nodes = (
(-32,-177,o),
(-96,-156,o),
(-132,-132,c),
(-142,-210,l),
(-114,-218,o),
(-71,-224,o),
(-42,-224,cs),
(87,-224,o),
(189,-105,o),
(189,41,cs),
(189,662,l),
(90,662,l),
(90,41,ls),
(90,-56,o),
(54,-149,o),
(9,-177,c,{
name = hr00;
})
);
}
);
width = 279;
}
);
unicode = 74;
},
{
glyphname = Jcircumflex;
lastChange = "2022-05-26 15:06:01 +0000";
layers = (
{
background = {
shapes = (
{
closed = 1;
nodes = (
(-32,-177,o),
(-96,-156,o),
(-132,-132,c),
(-142,-210,l),
(-114,-218,o),
(-71,-224,o),
(-42,-224,cs),
(87,-224,o),
(189,-105,o),
(189,41,cs),
(189,662,l),
(90,662,l),
(90,41,ls),
(90,-56,o),
(54,-149,o),
(9,-177,c,{
name = hr00;
})
);
},
{
closed = 1;
nodes = (
(164,884,l),
(116,884,l),
(-9,717,l),
(31,717,l),
(140,810,l),
(250,717,l),
(290,717,l,{
name = hr00;
})
);
}
);
};
layerId = master01;
shapes = (
{
ref = J;
},
{
pos = (-27,0);
ref = circumflexcomb.case;
}
);
width = 279;
}
);
unicode = 308;
},
{
glyphname = K;
lastChange = "2022-05-26 15:05:57 +0000";
layers = (
{
anchors = (
{
name = bottom;
pos = (305,0);
},
{
name = top;
pos = (305,662);
}
);
background = {
shapes = (
{
closed = 1;
nodes = (
(609,0,l),
(254,354,l),
(567,662,l),
(501,662,l),
(192,336,l),
(192,662,l),
(90,662,l),
(90,0,l),
(192,0,l),
(192,326,l),
(481,-13,l,{
name = hr00;
})
);
}
);
};
layerId = master01;
shapes = (
{
closed = 1;
nodes = (
(609,0,l),
(254,354,l),
(567,662,l),
(501,662,l),
(192,336,l),
(192,662,l),
(90,662,l),
(90,0,l),
(192,0,l),
(192,326,l),
(481,-13,l,{
name = hr00;
})
);
}
);
width = 609;
}
);
unicode = 75;
},
{
glyphname = Kcommaaccent;
lastChange = "2022-05-26 15:06:01 +0000";
layers = (
{
background = {
shapes = (
{
closed = 1;
nodes = (
(609,0,l),
(254,354,l),
(567,662,l),
(501,662,l),
(192,336,l),
(192,662,l),
(90,662,l),
(90,0,l),
(192,0,l),
(192,326,l),
(481,-13,l,{
name = hr00;
})
);
},
{
closed = 1;
nodes = (
(314,-46,o),
(267,-71,o),
(248,-99,c),
(248,-135,o),
(282,-154,o),
(310,-154,c),
(310,-197,o),
(282,-242,o),
(243,-273,c),
(255,-292,l),
(316,-258,o),
(367,-205,o),
(367,-122,cs),
(367,-98,o),
(363,-71,o),
(353,-42,c,{
name = hr00;
})
);
}
);
};
layerId = master01;
shapes = (
{
ref = K;
},
{
pos = (427,0);
ref = commaaccentcomb;
}
);
width = 609;
}
);
unicode = 310;
},
{
glyphname = L;
lastChange = "2022-05-26 15:05:57 +0000";
layers = (
{
anchors = (
{
name = bottom;
pos = (244,0);
},
{
name = center;
pos = (244,331);
},
{
name = top;
pos = (244,662);
},
{
name = topright;
pos = (467,662);
}
);
background = {
shapes = (
{
closed = 1;
nodes = (
(286,36,l),
(261,36,o),
(222,44,o),
(188,54,c),
(188,662,l),
(90,662,l),
(90,0,l),
(455,0,l),
(467,67,l,{
name = hr00;
})
);
}
);
};
layerId = master01;
shapes = (
{
closed = 1;
nodes = (
(286,36,l),
(261,36,o),
(222,44,o),
(188,54,c),
(188,662,l),
(90,662,l),
(90,0,l),
(455,0,l),
(467,67,l,{
name = hr00;
})
);
}
);
width = 487;
}
);
unicode = 76;
},
{
glyphname = Lacute;
lastChange = "2022-05-26 15:06:28 +0000";
layers = (
{
background = {
shapes = (
{
closed = 1;
nodes = (
(286,36,l),
(261,36,o),
(222,44,o),
(188,54,c),
(188,662,l),
(90,662,l),
(90,0,l),
(455,0,l),
(467,67,l,{
name = hr00;
})
);
},
{
closed = 1;
nodes = (
(83,717,l),
(271,855,l),
(215,905,l),
(43,717,l,{
name = hr00;
})
);
}
);
};
layerId = master01;
shapes = (
{
ref = L;
},
{
pos = (74,0);
ref = acutecomb.case;
}
);
width = 487;
}
);
unicode = 313;
},
{
glyphname = Lcaron;
lastChange = "2022-05-26 15:06:01 +0000";
layers = (
{
background = {
shapes = (
{
closed = 1;
nodes = (
(286,36,l),
(261,36,o),
(222,44,o),
(188,54,c),
(188,662,l),
(90,662,l),
(90,0,l),
(455,0,l),
(467,67,l,{
name = hr00;
})
);
},
{
closed = 1;
nodes = (
(338,714,o),
(291,689,o),
(272,661,c),
(272,625,o),
(306,606,o),
(334,606,c),
(334,563,o),
(306,518,o),
(267,487,c),
(279,468,l),
(340,502,o),
(391,555,o),
(391,638,cs),
(391,662,o),
(387,689,o),
(377,718,c,{
name = hr00;
})
);
}
);
};
layerId = master01;
shapes = (
{
ref = L;
},
{
pos = (78,0);
ref = caroncomb.case;
}
);
width = 487;
}
);
unicode = 317;
},
{
glyphname = Lcommaaccent;
lastChange = "2022-05-26 15:06:01 +0000";
layers = (
{
background = {
shapes = (
{
closed = 1;
nodes = (
(286,36,l),
(261,36,o),
(222,44,o),
(188,54,c),
(188,662,l),
(90,662,l),
(90,0,l),
(455,0,l),
(467,67,l,{
name = hr00;
})
);
},
{
closed = 1;
nodes = (
(273,-46,o),
(226,-71,o),
(207,-99,c),
(207,-135,o),
(241,-154,o),
(269,-154,c),
(269,-197,o),
(241,-242,o),
(202,-273,c),
(214,-292,l),
(275,-258,o),
(326,-205,o),
(326,-122,cs),
(326,-98,o),
(322,-71,o),
(312,-42,c,{
name = hr00;
})
);
}
);
};
layerId = master01;
shapes = (
{
ref = L;
},
{
pos = (366,0);
ref = commaaccentcomb;
}
);
width = 487;
}
);
unicode = 315;
},
{
glyphname = Ldot;
lastChange = "2022-05-26 15:06:01 +0000";
layers = (
{
background = {
shapes = (
{
closed = 1;
nodes = (
(286,36,l),
(261,36,o),
(222,44,o),
(188,54,c),
(188,662,l),
(90,662,l),
(90,0,l),
(455,0,l),
(467,67,l,{
name = hr00;
})
);
},
{
closed = 1;
nodes = (
(344,279,o),
(379,296,o),
(379,333,cs),
(379,364,o),
(353,390,o),
(323,390,cs),
(293,390,o),
(268,365,o),
(268,333,cs),
(268,295,o),
(302,279,o),
(323,279,c,{
name = hr00;
})
);
}
);
};
layerId = master01;
shapes = (
{
ref = L;
},
{
ref = periodcentered.loclCAT.case;
}
);
width = 487;
}
);
unicode = 319;
},
{
glyphname = Lslash;
lastChange = "2022-05-26 14:56:42 +0000";
layers = (
{
background = {
shapes = (
{
closed = 1;
nodes = (
(286,36,l),
(261,36,o),
(222,44,o),
(188,54,c),
(188,314,l),
(313,394,l),
(313,443,l),
(188,363,l),
(188,662,l),
(90,662,l),
(90,300,l),
(3,245,l),
(3,196,l),
(90,251,l),
(90,0,l),
(455,0,l),
(467,67,l)
);
},
{
closed = 1;
nodes = (
(286,36,l),
(261,36,o),
(222,44,o),
(188,54,c),
(188,662,l),
(90,662,l),
(90,0,l),
(455,0,l),
(467,67,l,{
name = hr00;
})
);
},
{
closed = 1;
nodes = (
(23,252,l),
(258,410,l),
(258,464,l),
(23,306,l,{
name = hr00;
})
);
}
);
};
layerId = master01;
shapes = (
{
closed = 1;
nodes = (
(286,36,l),
(261,36,o),
(222,44,o),
(188,54,c),
(188,314,l),
(313,394,l),
(313,443,l),
(188,363,l),
(188,662,l),
(90,662,l),
(90,300,l),
(3,245,l),
(3,196,l),
(90,251,l),
(90,0,l),
(455,0,l),
(467,67,l)
);
},
{
ref = L;
},
{
pos = (12,-78);
ref = eslash;
scale = (1.1,1.1);
}
);
width = 487;
}
);
unicode = 321;
},
{
glyphname = M;
lastChange = "2022-05-26 15:05:57 +0000";
layers = (
{
anchors = (
{
name = bottom;
pos = (445,0);
},
{
name = top;
pos = (445,662);
}
);
background = {
shapes = (
{
closed = 1;
nodes = (
(443,157,l),
(212,662,l),
(119,662,l),
(82,0,l),
(126,0,l),
(153,546,l),
(157,546,l),
(404,0,l),
(418,0,l),
(670,569,l),
(674,569,l),
(701,0,l),
(803,0,l),
(766,662,l),
(664,662,l,{
name = hr00;
})
);
}
);
};
layerId = master01;
shapes = (
{
closed = 1;
nodes = (
(443,157,l),
(212,662,l),
(119,662,l),
(82,0,l),
(126,0,l),
(153,546,l),
(157,546,l),
(404,0,l),
(418,0,l),
(670,569,l),
(674,569,l),
(701,0,l),
(803,0,l),
(766,662,l),
(664,662,l,{
name = hr00;
})
);
}
);
width = 889;
}
);
unicode = 77;
},
{
glyphname = N;
lastChange = "2022-05-26 15:05:57 +0000";
layers = (
{
anchors = (
{
name = bottom;
pos = (342,0);
},
{
name = top;
pos = (342,662);
}
);
background = {
shapes = (
{
closed = 1;
nodes = (
(593,-11,l),
(593,662,l),
(549,662,l),
(549,181,l),
(545,181,l),
(164,662,l),
(90,662,l),
(90,0,l),
(134,0,l),
(134,537,l),
(138,537,l),
(576,-11,l,{
name = hr00;
})
);
}
);
};
layerId = master01;
shapes = (
{
closed = 1;
nodes = (
(593,-11,l),
(593,662,l),
(549,662,l),
(549,181,l),
(545,181,l),
(164,662,l),
(90,662,l),
(90,0,l),
(134,0,l),
(134,537,l),
(138,537,l),
(576,-11,l,{
name = hr00;
})
);
}
);
width = 683;
}
);
unicode = 78;
},
{
glyphname = Nacute;
lastChange = "2022-05-26 15:06:28 +0000";
layers = (
{
background = {
shapes = (
{
closed = 1;
nodes = (
(593,-11,l),
(593,662,l),
(549,662,l),
(549,181,l),
(545,181,l),
(164,662,l),
(90,662,l),
(90,0,l),
(134,0,l),
(134,537,l),
(138,537,l),
(576,-11,l,{
name = hr00;
})
);
},
{
closed = 1;
nodes = (
(295,717,l),
(483,855,l),
(427,905,l),
(255,717,l,{
name = hr00;
})
);
}
);
};
layerId = master01;
shapes = (
{
ref = N;
},
{
pos = (172,0);
ref = acutecomb.case;
}
);
width = 683;
}
);
unicode = 323;
},
{
glyphname = Ncaron;
lastChange = "2022-05-26 15:06:01 +0000";
layers = (
{
background = {
shapes = (
{
closed = 1;
nodes = (
(593,-11,l),
(593,662,l),
(549,662,l),
(549,181,l),
(545,181,l),
(164,662,l),
(90,662,l),
(90,0,l),
(134,0,l),
(134,537,l),
(138,537,l),
(576,-11,l,{
name = hr00;
})
);
},
{
closed = 1;
nodes = (
(328,716,l),
(376,716,l),
(501,883,l),
(461,883,l),
(352,790,l),
(242,883,l),
(202,883,l,{
name = hr00;
})
);
}
);
};
layerId = master01;
shapes = (
{
ref = N;
},
{
pos = (176,0);
ref = caroncomb.case;
}
);
width = 683;
}
);
unicode = 327;
},
{
glyphname = Ncommaaccent;
lastChange = "2022-05-26 15:06:01 +0000";
layers = (
{
background = {
shapes = (
{
closed = 1;
nodes = (
(593,-11,l),
(593,662,l),
(549,662,l),
(549,181,l),
(545,181,l),
(164,662,l),
(90,662,l),
(90,0,l),
(134,0,l),
(134,537,l),
(138,537,l),
(576,-11,l,{
name = hr00;
})
);
},
{
closed = 1;
nodes = (
(351,-46,o),
(304,-71,o),
(285,-99,c),
(285,-135,o),
(319,-154,o),
(347,-154,c),
(347,-197,o),
(319,-242,o),
(280,-273,c),
(292,-292,l),
(353,-258,o),
(404,-205,o),
(404,-122,cs),
(404,-98,o),
(400,-71,o),
(390,-42,c,{
name = hr00;
})
);
}
);
};
layerId = master01;
shapes = (
{
ref = N;
},
{
pos = (464,0);
ref = commaaccentcomb;
}
);
width = 683;
}
);
unicode = 325;
},
{
glyphname = Ntilde;
lastChange = "2022-05-26 15:06:01 +0000";
layers = (
{
background = {
shapes = (
{
closed = 1;
nodes = (
(593,-11,l),
(593,662,l),
(549,662,l),
(549,181,l),
(545,181,l),
(164,662,l),
(90,662,l),
(90,0,l),
(134,0,l),
(134,537,l),
(138,537,l),
(576,-11,l,{
name = hr00;
})
);
},
{
closed = 1;
nodes = (
(465,821,o),
(452,803,o),
(426,803,cs),
(406,803,o),
(334,844,o),
(295,844,c,{
name = hr01;
}),
(239,826,o),
(207,789,o),
(193,755,c),
(220,740,l),
(238,765,o),
(251,783,o),
(277,783,cs),
(297,783,o),
(369,742,o),
(408,742,c,{
name = hr02;
}),
(464,760,o),
(496,797,o),
(510,831,c),
(483,846,l)
);
}
);
};
layerId = master01;
shapes = (
{
ref = N;
},
{
pos = (175,0);
ref = tildecomb.case;
}
);
width = 683;
}
);
unicode = 209;
},
{
glyphname = Eng;
lastChange = "2022-05-26 15:05:57 +0000";
layers = (
{
anchors = (
{
name = bottom;
pos = (342,0);
},
{
name = top;
pos = (342,662);
}
);
background = {
shapes = (
{
closed = 1;
nodes = (
(549,662,l),
(549,131,l),
(545,131,l),
(164,662,l),
(90,662,l),
(90,0,l),
(134,0,l),
(134,537,l),
(138,537,l),
(509,23,l,{
name = hr01;
}),
(509,17,ls),
(509,-36,o),
(494,-150,o),
(443,-176,c),
(420,-176,o),
(365,-162,o),
(334,-146,c),
(324,-211,l),
(348,-217,o),
(376,-223,o),
(400,-223,cs),
(518,-223,o),
(593,-119,o),
(593,17,cs),
(593,662,l)
);
}
);
};
layerId = master01;
shapes = (
{
closed = 1;
nodes = (
(549,662,l),
(549,131,l),
(545,131,l),
(164,662,l),
(90,662,l),
(90,0,l),
(134,0,l),
(134,537,l),
(138,537,l),
(509,23,l,{
name = hr01;
}),
(509,17,ls),
(509,-36,o),
(494,-150,o),
(443,-176,c),
(420,-176,o),
(365,-162,o),
(334,-146,c),
(324,-211,l),
(348,-217,o),
(376,-223,o),
(400,-223,cs),
(518,-223,o),
(593,-119,o),
(593,17,cs),
(593,662,l)
);
}
);
width = 684;
}
);
unicode = 330;
},
{
glyphname = O;
lastChange = "2022-05-26 15:05:57 +0000";
layers = (
{
anchors = (
{
name = bottom;
pos = (363,0);
},
{
name = center;
pos = (363,331);
},
{
name = ogonek;
pos = (653,10);
},
{
name = top;
pos = (363,662);
},
{
name = topleft;
pos = (20,662);
},
{
name = topright;
pos = (705,662);
}
);
background = {
shapes = (
{
closed = 1;
nodes = (
(239,674,o),
(34,587,o),
(34,313,cs),
(34,103,o),
(167,-12,o),
(333,-12,cs),
(485,-12,o),
(691,77,o),
(691,351,cs),
(691,561,o),
(558,674,o),
(391,674,c,{
name = hr00;
})
);
},
{
closed = 1;
nodes = (
(202,21,o),
(140,165,o),
(140,328,cs),
(140,460,o),
(202,586,o),
(337,633,c),
(525,633,o),
(585,494,o),
(585,328,cs),
(585,196,o),
(522,21,o),
(362,21,c)
);
}
);
};
layerId = master01;
shapes = (
{
closed = 1;
nodes = (
(239,674,o),
(34,587,o),
(34,313,cs),
(34,103,o),
(167,-12,o),
(333,-12,cs),
(485,-12,o),
(691,77,o),
(691,351,cs),
(691,561,o),
(558,674,o),
(391,674,c,{
name = hr00;
})
);
},
{
closed = 1;
nodes = (
(202,21,o),
(140,165,o),
(140,328,cs),
(140,460,o),
(202,586,o),
(337,633,c),
(525,633,o),
(585,494,o),
(585,328,cs),
(585,196,o),
(522,21,o),
(362,21,c)
);
}
);
width = 725;
}
);
unicode = 79;
},
{
glyphname = Oacute;
lastChange = "2022-05-26 15:06:28 +0000";
layers = (
{
background = {
shapes = (
{
closed = 1;
nodes = (
(239,674,o),
(34,587,o),
(34,313,cs),
(34,103,o),
(167,-12,o),
(333,-12,cs),
(485,-12,o),
(691,77,o),
(691,351,cs),
(691,561,o),
(558,674,o),
(391,674,c,{
name = hr00;
})
);
},
{
closed = 1;
nodes = (
(202,21,o),
(140,165,o),
(140,328,cs),
(140,460,o),
(202,586,o),
(337,633,c),
(525,633,o),
(585,494,o),
(585,328,cs),
(585,196,o),
(522,21,o),
(362,21,c)
);
},
{
closed = 1;
nodes = (
(326,717,l),
(514,855,l),
(458,905,l),
(286,717,l,{
name = hr00;
})
);
}
);
};
layerId = master01;
shapes = (
{
ref = O;
},
{
pos = (193,0);
ref = acutecomb.case;
}
);
width = 725;
}
);
unicode = 211;
},
{
glyphname = Obreve;
lastChange = "2022-05-26 15:06:01 +0000";
layers = (
{
background = {
shapes = (
{
closed = 1;
nodes = (
(239,674,o),
(34,587,o),
(34,313,cs),
(34,103,o),
(167,-12,o),
(333,-12,cs),
(485,-12,o),
(691,77,o),
(691,351,cs),
(691,561,o),
(558,674,o),
(391,674,c,{
name = hr00;
})
);
},
{
closed = 1;
nodes = (
(202,21,o),
(140,165,o),
(140,328,cs),
(140,460,o),
(202,586,o),
(337,633,c),
(525,633,o),
(585,494,o),
(585,328,cs),
(585,196,o),
(522,21,o),
(362,21,c)
);
},
{
closed = 1;
nodes = (
(455,824,o),
(438,777,o),
(362,777,cs),
(298,777,o),
(261,813,o),
(251,874,c),
(222,874,l),
(222,869,ls),
(222,764,o),
(289,717,o),
(360,717,cs),
(488,717,o),
(500,843,o),
(503,874,c),
(474,874,l,{
name = hr00;
})
);
}
);
};
layerId = master01;
shapes = (
{
ref = O;
},
{
pos = (196,0);
ref = brevecomb.case;
}
);
width = 725;
}
);
unicode = 334;
},
{
glyphname = Ocircumflex;
lastChange = "2022-05-26 15:06:01 +0000";
layers = (
{
background = {
shapes = (
{
closed = 1;
nodes = (
(239,674,o),
(34,587,o),
(34,313,cs),
(34,103,o),
(167,-12,o),
(333,-12,cs),
(485,-12,o),
(691,77,o),
(691,351,cs),
(691,561,o),
(558,674,o),
(391,674,c,{
name = hr00;
})
);
},
{
closed = 1;
nodes = (
(202,21,o),
(140,165,o),
(140,328,cs),
(140,460,o),
(202,586,o),
(337,633,c),
(525,633,o),
(585,494,o),
(585,328,cs),
(585,196,o),
(522,21,o),
(362,21,c)
);
},
{
closed = 1;
nodes = (
(386,884,l),
(338,884,l),
(213,717,l),
(253,717,l),
(362,810,l),
(472,717,l),
(512,717,l,{
name = hr00;
})
);
}
);
};
layerId = master01;
shapes = (
{
ref = O;
},
{
pos = (196,0);
ref = circumflexcomb.case;
}
);
width = 725;
}
);
unicode = 212;
},
{
glyphname = Odieresis;
lastChange = "2022-05-26 15:06:01 +0000";
layers = (
{
background = {
shapes = (
{
closed = 1;
nodes = (
(239,674,o),
(34,587,o),
(34,313,cs),
(34,103,o),
(167,-12,o),
(333,-12,cs),
(485,-12,o),
(691,77,o),
(691,351,cs),
(691,561,o),
(558,674,o),
(391,674,c,{
name = hr00;
})
);
},
{
closed = 1;
nodes = (
(202,21,o),
(140,165,o),
(140,328,cs),
(140,460,o),
(202,586,o),
(337,633,c),
(525,633,o),
(585,494,o),
(585,328,cs),
(585,196,o),
(522,21,o),
(362,21,c)
);
},
{
closed = 1;
nodes = (
(411,773,o),
(433,751,o),
(461,751,cs),
(489,751,o),
(511,773,o),
(511,801,cs),
(511,829,o),
(489,851,o),
(461,851,cs),
(433,851,o),
(411,829,o),
(411,801,c,{
name = hr00;
})
);
},
{
closed = 1;
nodes = (
(214,773,o),
(236,751,o),
(264,751,cs),
(292,751,o),
(314,773,o),
(314,801,cs),
(314,829,o),
(292,851,o),
(264,851,cs),
(236,851,o),
(214,829,o),
(214,801,cs)
);
}
);
};
layerId = master01;
shapes = (
{
ref = O;
},
{
pos = (196,0);
ref = dieresiscomb.case;
}
);
width = 725;
}
);
unicode = 214;
},
{
glyphname = Ograve;
lastChange = "2022-05-26 15:06:01 +0000";
layers = (
{
background = {
shapes = (
{
closed = 1;
nodes = (
(239,674,o),
(34,587,o),
(34,313,cs),
(34,103,o),
(167,-12,o),
(333,-12,cs),
(485,-12,o),
(691,77,o),
(691,351,cs),
(691,561,o),
(558,674,o),
(391,674,c,{
name = hr00;
})
);
},
{
closed = 1;
nodes = (
(202,21,o),
(140,165,o),
(140,328,cs),
(140,460,o),
(202,586,o),
(337,633,c),
(525,633,o),
(585,494,o),
(585,328,cs),
(585,196,o),
(522,21,o),
(362,21,c)
);
},
{
closed = 1;
nodes = (
(437,717,l),
(249,855,l),
(305,905,l),
(477,717,l,{
name = hr00;
})
);
}
);
};
layerId = master01;
shapes = (
{
ref = O;
},
{
pos = (235,0);
ref = gravecomb.case;
}
);
width = 725;
}
);
unicode = 210;
},
{
glyphname = Ohungarumlaut;
lastChange = "2022-05-26 15:06:01 +0000";
layers = (
{
background = {
shapes = (
{
closed = 1;
nodes = (
(239,674,o),
(34,587,o),
(34,313,cs),
(34,103,o),
(167,-12,o),
(333,-12,cs),
(485,-12,o),
(691,77,o),
(691,351,cs),
(691,561,o),
(558,674,o),
(391,674,c,{
name = hr00;
})
);
},
{
closed = 1;
nodes = (
(202,21,o),
(140,165,o),
(140,328,cs),
(140,460,o),
(202,586,o),
(337,633,c),
(525,633,o),
(585,494,o),
(585,328,cs),
(585,196,o),
(522,21,o),
(362,21,c)
);
},
{
closed = 1;
nodes = (
(251,717,l),
(439,855,l),
(383,905,l),
(211,717,l,{
name = hr00;
})
);
},
{
closed = 1;
nodes = (
(406,717,l),
(594,855,l),
(538,905,l),
(366,717,l)
);
}
);
};
layerId = master01;
shapes = (
{
ref = O;
},
{
pos = (136,0);
ref = hungarumlautcomb.case;
}
);
width = 725;
}
);
unicode = 336;
},
{
glyphname = Omacron;
lastChange = "2022-05-26 15:06:01 +0000";
layers = (
{
background = {
shapes = (
{
closed = 1;
nodes = (
(239,674,o),
(34,587,o),
(34,313,cs),
(34,103,o),
(167,-12,o),
(333,-12,cs),
(485,-12,o),
(691,77,o),
(691,351,cs),
(691,561,o),
(558,674,o),
(391,674,c,{
name = hr00;
})
);
},
{
closed = 1;
nodes = (
(202,21,o),
(140,165,o),
(140,328,cs),
(140,460,o),
(202,586,o),
(337,633,c),
(525,633,o),
(585,494,o),
(585,328,cs),
(585,196,o),
(522,21,o),
(362,21,c)
);
},
{
closed = 1;
nodes = (
(207,811,l),
(207,757,l),
(518,757,l),
(518,811,l,{
name = hr00;
})
);
}
);
};
layerId = master01;
shapes = (
{
ref = O;
},
{
pos = (196,0);
ref = macroncomb.case;
}
);
width = 725;
}
);
unicode = 332;
},
{
glyphname = Oslash;
lastChange = "2022-05-26 15:05:57 +0000";
layers = (
{
anchors = (
{
name = bottom;
pos = (363,0);
},
{
name = top;
pos = (363,662);
}
);
background = {
shapes = (
{
closed = 1;
nodes = (
(239,674,o),
(34,587,o),
(34,313,cs),
(34,103,o),
(167,-12,o),
(333,-12,cs),
(485,-12,o),
(691,77,o),
(691,351,cs),
(691,561,o),
(558,674,o),
(391,674,c,{
name = hr00;
})
);
},
{
closed = 1;
nodes = (
(202,21,o),
(140,165,o),
(140,328,cs),
(140,460,o),
(202,586,o),
(337,633,c),
(525,633,o),
(585,494,o),
(585,328,cs),
(585,196,o),
(522,21,o),
(362,21,c)
);
},
{
closed = 1;
nodes = (
(562,728,l),
(516,728,l),
(163,-67,l),
(212,-67,l,{
name = hr00;
})
);
}
);
};
layerId = master01;
shapes = (
{
alignment = -1;
ref = O;
},
{
alignment = -1;
pos = (-37,-51);
ref = fraction;
scale = (1,1.15);
}
);
width = 725;
}
);
unicode = 216;
},
{
glyphname = Oslashacute;
lastChange = "2022-05-26 15:06:28 +0000";
layers = (
{
background = {
shapes = (
{
closed = 1;
nodes = (
(239,674,o),
(34,587,o),
(34,313,cs),
(34,103,o),
(167,-12,o),
(333,-12,cs),
(485,-12,o),
(691,77,o),
(691,351,cs),
(691,561,o),
(558,674,o),
(391,674,c,{
name = hr00;
})
);
},
{
closed = 1;
nodes = (
(202,21,o),
(140,165,o),
(140,328,cs),
(140,460,o),
(202,586,o),
(337,633,c),
(525,633,o),
(585,494,o),
(585,328,cs),
(585,196,o),
(522,21,o),
(362,21,c)
);
},
{
closed = 1;
nodes = (
(562,728,l),
(516,728,l),
(163,-67,l),
(212,-67,l,{
name = hr00;
})
);
},
{
closed = 1;
nodes = (
(288,717,l),
(476,855,l),
(420,905,l),
(248,717,l,{
name = hr00;
})
);
}
);
};
layerId = master01;
shapes = (
{
ref = Oslash;
},
{
pos = (193,0);
ref = acutecomb.case;
}
);
width = 725;
}
);
unicode = 510;
},
{
glyphname = Otilde;
lastChange = "2022-05-26 15:06:01 +0000";
layers = (
{
background = {
shapes = (
{
closed = 1;
nodes = (
(239,674,o),
(34,587,o),
(34,313,cs),
(34,103,o),
(167,-12,o),
(333,-12,cs),
(485,-12,o),
(691,77,o),
(691,351,cs),
(691,561,o),
(558,674,o),
(391,674,c,{
name = hr00;
})
);
},
{
closed = 1;
nodes = (
(202,21,o),
(140,165,o),
(140,328,cs),
(140,460,o),
(202,586,o),
(337,633,c),
(525,633,o),
(585,494,o),
(585,328,cs),
(585,196,o),
(522,21,o),
(362,21,c)
);
},
{
closed = 1;
nodes = (
(476,821,o),
(463,803,o),
(437,803,cs),
(417,803,o),
(345,844,o),
(306,844,c,{
name = hr01;
}),
(250,826,o),
(218,789,o),
(204,755,c),
(231,740,l),
(249,765,o),
(262,783,o),
(288,783,cs),
(308,783,o),
(380,742,o),
(419,742,c,{
name = hr02;
}),
(475,760,o),
(507,797,o),
(521,831,c),
(494,846,l)
);
}
);
};
layerId = master01;
shapes = (
{
ref = O;
},
{
pos = (196,0);
ref = tildecomb.case;
}
);
width = 725;
}
);
unicode = 213;
},
{
glyphname = OE;
lastChange = "2022-05-26 15:05:57 +0000";
layers = (
{
anchors = (
{
name = bottom;
pos = (445,0);
},
{
name = top;
pos = (445,662);
}
);
background = {
shapes = (
{
closed = 1;
nodes = (
(499,328,l),
(736,328,l),
(736,366,l),
(499,366,l),
(499,608,l),
(537,619,o),
(568,625,o),
(607,625,c),
(818,594,l),
(818,661,l),
(402,661,l),
(245,661,o),
(34,575,o),
(34,312,cs),
(34,111,o),
(172,0,o),
(343,0,cs),
(402,0,l),
(824,0,l),
(824,67,l),
(499,36,l,{
name = hr00;
})
);
},
{
closed = 1;
nodes = (
(382,622,o),
(392,621,o),
(402,619,c),
(402,33,l),
(392,32,o),
(382,32,o),
(372,32,cs),
(229,32,o),
(143,165,o),
(143,328,cs),
(143,504,o),
(221,622,o),
(372,622,c)
);
}
);
};
layerId = master01;
shapes = (
{
closed = 1;
nodes = (
(499,328,l),
(736,328,l),
(736,366,l),
(499,366,l),
(499,608,l),
(537,619,o),
(568,625,o),
(607,625,c),
(818,594,l),
(818,661,l),
(402,661,l),
(245,661,o),
(34,575,o),
(34,312,cs),
(34,111,o),
(172,0,o),
(343,0,cs),
(402,0,l),
(824,0,l),
(824,67,l),
(499,36,l,{
name = hr00;
})
);
},
{
closed = 1;
nodes = (
(382,622,o),
(392,621,o),
(402,619,c),
(402,33,l),
(392,32,o),
(382,32,o),
(372,32,cs),
(229,32,o),
(143,165,o),
(143,328,cs),
(143,504,o),
(221,622,o),
(372,622,c)
);
}
);
width = 889;
}
);
unicode = 338;
},
{
glyphname = P;
lastChange = "2022-05-26 15:05:57 +0000";
layers = (
{
anchors = (
{
name = bottom;
pos = (273,0);
},
{
name = top;
pos = (273,662);
}
);
background = {
shapes = (
{
closed = 1;
nodes = (
(535,599,o),
(436,662,o),
(305,662,cs),
(90,662,l),
(90,0,l),
(187,0,l),
(187,295,l),
(273,295,ls),
(429,295,o),
(535,359,o),
(535,490,c,{
name = hr00;
})
);
},
{
closed = 1;
nodes = (
(187,609,l),
(220,618,o),
(280,626,o),
(321,626,c),
(428,596,o),
(432,500,o),
(432,485,cs),
(432,439,o),
(411,324,o),
(276,324,cs),
(187,324,l)
);
}
);
};
layerId = master01;
shapes = (
{
closed = 1;
nodes = (
(535,599,o),
(436,662,o),
(305,662,cs),
(90,662,l),
(90,0,l),
(187,0,l),
(187,295,l),
(273,295,ls),
(429,295,o),
(535,359,o),
(535,490,c,{
name = hr00;
})
);
},
{
closed = 1;
nodes = (
(187,609,l),
(220,618,o),
(280,626,o),
(321,626,c),
(428,596,o),
(432,500,o),
(432,485,cs),
(432,439,o),
(411,324,o),
(276,324,cs),
(187,324,l)
);
}
);
width = 546;
}
);
unicode = 80;
},
{
glyphname = Thorn;
lastChange = "2022-05-26 15:05:57 +0000";
layers = (
{
anchors = (
{
name = bottom;
pos = (278,0);
},
{
name = top;
pos = (278,662);
}
);
background = {
shapes = (
{
closed = 1;
nodes = (
(187,479,l),
(220,488,o),
(280,496,o),
(321,496,c),
(428,466,o),
(432,370,o),
(432,355,cs),
(432,309,o),
(411,194,o),
(276,194,cs),
(187,194,l,{
name = hr00;
})
);
},
{
closed = 1;
nodes = (
(187,662,l),
(90,662,l),
(90,0,l),
(187,0,l),
(187,165,l),
(273,165,ls),
(429,165,o),
(535,229,o),
(535,360,cs),
(535,469,o),
(436,532,o),
(305,532,cs),
(187,532,l)
);
}
);
};
layerId = master01;
shapes = (
{
closed = 1;
nodes = (
(187,479,l),
(220,488,o),
(280,496,o),
(321,496,c),
(428,466,o),
(432,370,o),
(432,355,cs),
(432,309,o),
(411,194,o),
(276,194,cs),
(187,194,l,{
name = hr00;
})
);
},
{
closed = 1;
nodes = (
(187,662,l),
(90,662,l),
(90,0,l),
(187,0,l),
(187,165,l),
(273,165,ls),
(429,165,o),
(535,229,o),
(535,360,cs),
(535,469,o),
(436,532,o),
(305,532,cs),
(187,532,l)
);
}
);
width = 556;
}
);
unicode = 222;
},
{
glyphname = Q;
lastChange = "2022-05-26 15:05:57 +0000";
layers = (
{
anchors = (
{
name = bottom;
pos = (363,0);
},
{
name = top;
pos = (363,662);
}
);
background = {
shapes = (
{
closed = 1;
nodes = (
(239,674,o),
(34,587,o),
(34,313,cs),
(34,103,o),
(167,-12,o),
(333,-12,cs),
(342,-12,l),
(490,-180,l),
(573,-121,l),
(409,-4,l),
(546,21,o),
(691,121,o),
(691,351,cs),
(691,561,o),
(558,674,o),
(391,674,c,{
name = hr00;
})
);
},
{
closed = 1;
nodes = (
(202,21,o),
(140,165,o),
(140,328,cs),
(140,460,o),
(202,586,o),
(337,633,c),
(525,633,o),
(585,494,o),
(585,328,cs),
(585,196,o),
(522,21,o),
(362,21,c)
);
}
);
};
layerId = master01;
shapes = (
{
closed = 1;
nodes = (
(239,674,o),
(34,587,o),
(34,313,cs),
(34,103,o),
(167,-12,o),
(333,-12,cs),
(342,-12,l),
(490,-180,l),
(573,-121,l),
(409,-4,l),
(546,21,o),
(691,121,o),
(691,351,cs),
(691,561,o),
(558,674,o),
(391,674,c,{
name = hr00;
})
);
},
{
closed = 1;
nodes = (
(202,21,o),
(140,165,o),
(140,328,cs),
(140,460,o),
(202,586,o),
(337,633,c),
(525,633,o),
(585,494,o),
(585,328,cs),
(585,196,o),
(522,21,o),
(362,21,c)
);
}
);
width = 725;
}
);
unicode = 81;
},
{
glyphname = R;
lastChange = "2022-05-26 15:05:57 +0000";
layers = (
{
anchors = (
{
name = bottom;
pos = (319,0);
},
{
name = top;
pos = (319,662);
}
);
background = {
shapes = (
{
closed = 1;
nodes = (
(497,-14,l),
(613,0,l),
(345,324,l),
(456,344,o),
(536,398,o),
(536,493,cs),
(536,602,o),
(436,662,o),
(306,662,cs),
(90,662,l),
(90,0,l),
(188,0,l),
(188,316,l),
(265,316,l,{
name = hr00;
})
);
},
{
closed = 1;
nodes = (
(188,608,l),
(223,617,o),
(283,625,o),
(322,625,c),
(429,595,o),
(432,502,o),
(432,488,cs),
(432,418,o),
(397,346,o),
(252,346,c),
(188,346,l)
);
}
);
};
layerId = master01;
shapes = (
{
closed = 1;
nodes = (
(497,-14,l),
(613,0,l),
(345,324,l),
(456,344,o),
(536,398,o),
(536,493,cs),
(536,602,o),
(436,662,o),
(306,662,cs),
(90,662,l),
(90,0,l),
(188,0,l),
(188,316,l),
(265,316,l,{
name = hr00;
})
);
},
{
closed = 1;
nodes = (
(188,608,l),
(223,617,o),
(283,625,o),
(322,625,c),
(429,595,o),
(432,502,o),
(432,488,cs),
(432,418,o),
(397,346,o),
(252,346,c),
(188,346,l)
);
}
);
width = 638;
}
);
unicode = 82;
},
{
glyphname = Racute;
lastChange = "2022-05-26 15:06:28 +0000";
layers = (
{
background = {
shapes = (
{
closed = 1;
nodes = (
(497,-14,l),
(613,0,l),
(345,324,l),
(456,344,o),
(536,398,o),
(536,493,cs),
(536,602,o),
(436,662,o),
(306,662,cs),
(90,662,l),
(90,0,l),
(188,0,l),
(188,316,l),
(265,316,l,{
name = hr00;
})
);
},
{
closed = 1;
nodes = (
(188,608,l),
(223,617,o),
(283,625,o),
(322,625,c),
(429,595,o),
(432,502,o),
(432,488,cs),
(432,418,o),
(397,346,o),
(252,346,c),
(188,346,l)
);
},
{
closed = 1;
nodes = (
(262,717,l),
(450,855,l),
(394,905,l),
(222,717,l,{
name = hr00;
})
);
}
);
};
layerId = master01;
shapes = (
{
ref = R;
},
{
pos = (149,0);
ref = acutecomb.case;
}
);
width = 638;
}
);
unicode = 340;
},
{
glyphname = Rcaron;
lastChange = "2022-05-26 15:06:01 +0000";
layers = (
{
background = {
shapes = (
{
closed = 1;
nodes = (
(497,-14,l),
(613,0,l),
(345,324,l),
(456,344,o),
(536,398,o),
(536,493,cs),
(536,602,o),
(436,662,o),
(306,662,cs),
(90,662,l),
(90,0,l),
(188,0,l),
(188,316,l),
(265,316,l,{
name = hr00;
})
);
},
{
closed = 1;
nodes = (
(188,608,l),
(223,617,o),
(283,625,o),
(322,625,c),
(429,595,o),
(432,502,o),
(432,488,cs),
(432,418,o),
(397,346,o),
(252,346,c),
(188,346,l)
);
},
{
closed = 1;
nodes = (
(295,716,l),
(343,716,l),
(468,883,l),
(428,883,l),
(319,790,l),
(209,883,l),
(169,883,l,{
name = hr00;
})
);
}
);
};
layerId = master01;
shapes = (
{
ref = R;
},
{
pos = (153,0);
ref = caroncomb.case;
}
);
width = 638;
}
);
unicode = 344;
},
{
glyphname = Rcommaaccent;
lastChange = "2022-05-26 15:06:01 +0000";
layers = (
{
background = {
shapes = (
{
closed = 1;
nodes = (
(497,-14,l),
(613,0,l),
(345,324,l),
(456,344,o),
(536,398,o),
(536,493,cs),
(536,602,o),
(436,662,o),
(306,662,cs),
(90,662,l),
(90,0,l),
(188,0,l),
(188,316,l),
(265,316,l,{
name = hr00;
})
);
},
{
closed = 1;
nodes = (
(188,608,l),
(223,617,o),
(283,625,o),
(322,625,c),
(429,595,o),
(432,502,o),
(432,488,cs),
(432,418,o),
(397,346,o),
(252,346,c),
(188,346,l)
);
},
{
closed = 1;
nodes = (
(328,-46,o),
(281,-71,o),
(262,-99,c),
(262,-135,o),
(296,-154,o),
(324,-154,c),
(324,-197,o),
(296,-242,o),
(257,-273,c),
(269,-292,l),
(330,-258,o),
(381,-205,o),
(381,-122,cs),
(381,-98,o),
(377,-71,o),
(367,-42,c,{
name = hr00;
})
);
}
);
};
layerId = master01;
shapes = (
{
ref = R;
},
{
pos = (441,0);
ref = commaaccentcomb;
}
);
width = 638;
}
);
unicode = 342;
},
{
glyphname = S;
lastChange = "2022-05-26 15:05:57 +0000";
layers = (
{
anchors = (
{
name = bottom;
pos = (278,0);
},
{
name = top;
pos = (278,662);
}
);
background = {
shapes = (
{
closed = 1;
nodes = (
(292,633,o),
(368,608,o),
(445,575,c),
(455,643,l),
(408,657,o),
(337,674,o),
(283,674,c),
(133,674,o),
(74,583,o),
(74,506,cs),
(74,316,o),
(394,310,o),
(394,155,cs),
(394,71,o),
(335,23,o),
(247,23,cs),
(180,23,o),
(103,57,o),
(69,74,c),
(69,27,l),
(108,12,o),
(183,-12,o),
(262,-12,cs),
(419,-12,o),
(497,69,o),
(497,174,cs),
(497,363,o),
(162,386,o),
(162,547,cs),
(162,583,o),
(175,614,o),
(214,633,c,{
name = hr00;
})
);
}
);
};
layerId = master01;
shapes = (
{
closed = 1;
nodes = (
(292,633,o),
(368,608,o),
(445,575,c),
(455,643,l),
(408,657,o),
(337,674,o),
(283,674,c),
(133,674,o),
(74,583,o),
(74,506,cs),
(74,316,o),
(394,310,o),
(394,155,cs),
(394,71,o),
(335,23,o),
(247,23,cs),
(180,23,o),
(103,57,o),
(69,74,c),
(69,27,l),
(108,12,o),
(183,-12,o),
(262,-12,cs),
(419,-12,o),
(497,69,o),
(497,174,cs),
(497,363,o),
(162,386,o),
(162,547,cs),
(162,583,o),
(175,614,o),
(214,633,c,{
name = hr00;
})
);
}
);
width = 556;
}
);
unicode = 83;
},
{
glyphname = Sacute;
lastChange = "2022-05-26 15:06:28 +0000";
layers = (
{
background = {
shapes = (
{
closed = 1;
nodes = (
(292,633,o),
(368,608,o),
(445,575,c),
(455,643,l),
(408,657,o),
(337,674,o),
(283,674,c),
(133,674,o),
(74,583,o),
(74,506,cs),
(74,316,o),
(394,310,o),
(394,155,cs),
(394,71,o),
(335,23,o),
(247,23,cs),
(180,23,o),
(103,57,o),
(69,74,c),
(69,27,l),
(108,12,o),
(183,-12,o),
(262,-12,cs),
(419,-12,o),
(497,69,o),
(497,174,cs),
(497,363,o),
(162,386,o),
(162,547,cs),
(162,583,o),
(175,614,o),
(214,633,c,{
name = hr00;
})
);
},
{
closed = 1;
nodes = (
(231,717,l),
(419,855,l),
(363,905,l),
(191,717,l,{
name = hr00;
})
);
}
);
};
layerId = master01;
shapes = (
{
ref = S;
},
{
pos = (108,0);
ref = acutecomb.case;
}
);
width = 556;
}
);
unicode = 346;
},
{
glyphname = Scaron;
lastChange = "2022-05-26 15:06:01 +0000";
layers = (
{
background = {
shapes = (
{
closed = 1;
nodes = (
(292,633,o),
(368,608,o),
(445,575,c),
(455,643,l),
(408,657,o),
(337,674,o),
(283,674,c),
(133,674,o),
(74,583,o),
(74,506,cs),
(74,316,o),
(394,310,o),
(394,155,cs),
(394,71,o),
(335,23,o),
(247,23,cs),
(180,23,o),
(103,57,o),
(69,74,c),
(69,27,l),
(108,12,o),
(183,-12,o),
(262,-12,cs),
(419,-12,o),
(497,69,o),
(497,174,cs),
(497,363,o),
(162,386,o),
(162,547,cs),
(162,583,o),
(175,614,o),
(214,633,c,{
name = hr00;
})
);
},
{
closed = 1;
nodes = (
(264,716,l),
(312,716,l),
(437,883,l),
(397,883,l),
(288,790,l),
(178,883,l),
(138,883,l,{
name = hr00;
})
);
}
);
};
layerId = master01;
shapes = (
{
ref = S;
},
{
pos = (112,0);
ref = caroncomb.case;
}
);
width = 556;
}
);
unicode = 352;
},
{
glyphname = Scedilla;
lastChange = "2022-05-26 15:06:01 +0000";
layers = (
{
background = {
shapes = (
{
closed = 1;
nodes = (
(292,633,o),
(368,608,o),
(445,575,c),
(455,643,l),
(408,657,o),
(337,674,o),
(283,674,c),
(133,674,o),
(74,583,o),
(74,506,cs),
(74,316,o),
(394,310,o),
(394,155,cs),
(394,71,o),
(335,23,o),
(247,23,cs),
(180,23,o),
(103,57,o),
(69,74,c),
(69,27,l),
(108,12,o),
(183,-12,o),
(262,-12,cs),
(419,-12,o),
(497,69,o),
(497,174,cs),
(497,363,o),
(162,386,o),
(162,547,cs),
(162,583,o),
(175,614,o),
(214,633,c,{
name = hr00;
})
);
},
{
closed = 1;
nodes = (
(220,-100,l),
(258,-100,o),
(291,-110,o),
(307,-141,c),
(307,-163,o),
(281,-180,o),
(249,-180,cs),
(241,-180,o),
(204,-175,o),
(187,-168,c),
(173,-199,l),
(195,-208,o),
(235,-215,o),
(261,-215,cs),
(328,-215,o),
(382,-178,o),
(382,-132,c),
(359,-88,o),
(311,-65,o),
(270,-65,c),
(295,0,l),
(260,0,l,{
name = hr00;
})
);
}
);
};
layerId = master01;
shapes = (
{
ref = S;
},
{
pos = (121,0);
ref = cedillacomb;
}
);
width = 556;
}
);
unicode = 350;
},
{
glyphname = Scircumflex;
lastChange = "2022-05-26 15:06:01 +0000";
layers = (
{
background = {
shapes = (
{
closed = 1;
nodes = (
(292,633,o),
(368,608,o),
(445,575,c),
(455,643,l),
(408,657,o),
(337,674,o),
(283,674,c),
(133,674,o),
(74,583,o),
(74,506,cs),
(74,316,o),
(394,310,o),
(394,155,cs),
(394,71,o),
(335,23,o),
(247,23,cs),
(180,23,o),
(103,57,o),
(69,74,c),
(69,27,l),
(108,12,o),
(183,-12,o),
(262,-12,cs),
(419,-12,o),
(497,69,o),
(497,174,cs),
(497,363,o),
(162,386,o),
(162,547,cs),
(162,583,o),
(175,614,o),
(214,633,c,{
name = hr00;
})
);
},
{
closed = 1;
nodes = (
(311,884,l),
(263,884,l),
(138,717,l),
(178,717,l),
(287,810,l),
(397,717,l),
(437,717,l,{
name = hr00;
})
);
}
);
};
layerId = master01;
shapes = (
{
ref = S;
},
{
pos = (111,0);
ref = circumflexcomb.case;
}
);
width = 556;
}
);
unicode = 348;
},
{
glyphname = Scommaaccent;
lastChange = "2022-05-26 15:06:01 +0000";
layers = (
{
background = {
shapes = (
{
closed = 1;
nodes = (
(292,633,o),
(368,608,o),
(445,575,c),
(455,643,l),
(408,657,o),
(337,674,o),
(283,674,c),
(133,674,o),
(74,583,o),
(74,506,cs),
(74,316,o),
(394,310,o),
(394,155,cs),
(394,71,o),
(335,23,o),
(247,23,cs),
(180,23,o),
(103,57,o),
(69,74,c),
(69,27,l),
(108,12,o),
(183,-12,o),
(262,-12,cs),
(419,-12,o),
(497,69,o),
(497,174,cs),
(497,363,o),
(162,386,o),
(162,547,cs),
(162,583,o),
(175,614,o),
(214,633,c,{
name = hr00;
})
);
},
{
closed = 1;
nodes = (
(287,-46,o),
(240,-71,o),
(221,-99,c),
(221,-135,o),
(255,-154,o),
(283,-154,c),
(283,-197,o),
(255,-242,o),
(216,-273,c),
(228,-292,l),
(289,-258,o),
(340,-205,o),
(340,-122,cs),
(340,-98,o),
(336,-71,o),
(326,-42,c,{
name = hr00;
})
);
}
);
};
layerId = master01;
shapes = (
{
ref = S;
},
{
pos = (400,0);
ref = commaaccentcomb;
}
);
width = 556;
}
);
unicode = 536;
},
{
glyphname = T;
lastChange = "2022-05-26 15:05:57 +0000";
layers = (
{
anchors = (
{
name = bottom;
pos = (268,0);
},
{
name = center;
pos = (268,331);
},
{
name = top;
pos = (268,662);
}
);
background = {
shapes = (
{
closed = 1;
nodes = (
(10,662,l),
(16,591,l),
(151,622,l),
(178,622,o),
(198,619,o),
(219,614,c),
(219,0,l),
(316,0,l),
(316,614,l),
(337,619,o),
(357,622,o),
(384,622,c),
(520,591,l),
(525,662,l,{
name = hr00;
})
);
}
);
};
layerId = master01;
shapes = (
{
closed = 1;
nodes = (
(10,662,l),
(16,591,l),
(151,622,l),
(178,622,o),
(198,619,o),
(219,614,c),
(219,0,l),
(316,0,l),
(316,614,l),
(337,619,o),
(357,622,o),
(384,622,c),
(520,591,l),
(525,662,l,{
name = hr00;
})
);
}
);
width = 535;
}
);
unicode = 84;
},
{
glyphname = Tbar;
lastChange = "2022-05-26 14:56:42 +0000";
layers = (
{
background = {
shapes = (
{
closed = 1;
nodes = (
(10,662,l),
(16,591,l),
(151,622,l),
(178,622,o),
(198,619,o),
(219,614,c),
(219,0,l),
(316,0,l),
(316,614,l),
(337,619,o),
(357,622,o),
(384,622,c),
(520,591,l),
(525,662,l,{
name = hr00;
})
);
},
{
closed = 1;
nodes = (
(72,372,l),
(72,323,l),
(462,323,l),
(462,372,l,{
name = hr00;
})
);
}
);
};
layerId = master01;
shapes = (
{
alignment = -1;
ref = T;
},
{
alignment = -1;
pos = (72,-2);
ref = ethbar;
}
);
width = 535;
}
);
unicode = 358;
},
{
glyphname = Tcaron;
lastChange = "2022-05-26 15:06:01 +0000";
layers = (
{
background = {
shapes = (
{
closed = 1;
nodes = (
(10,662,l),
(16,591,l),
(151,622,l),
(178,622,o),
(198,619,o),
(219,614,c),
(219,0,l),
(316,0,l),
(316,614,l),
(337,619,o),
(357,622,o),
(384,622,c),
(520,591,l),
(525,662,l,{
name = hr00;
})
);
},
{
closed = 1;
nodes = (
(244,716,l),
(292,716,l),
(417,883,l),
(377,883,l),
(268,790,l),
(158,883,l),
(118,883,l,{
name = hr00;
})
);
}
);
};
layerId = master01;
shapes = (
{
ref = T;
},
{
pos = (102,0);
ref = caroncomb.case;
}
);
width = 535;
}
);
unicode = 356;
},
{
glyphname = Tcedilla;
lastChange = "2022-05-26 15:06:01 +0000";
layers = (
{
background = {
shapes = (
{
closed = 1;
nodes = (
(10,662,l),
(16,591,l),
(151,622,l),
(178,622,o),
(198,619,o),
(219,614,c),
(219,0,l),
(316,0,l),
(316,614,l),
(337,619,o),
(357,622,o),
(384,622,c),
(520,591,l),
(525,662,l,{
name = hr00;
})
);
},
{
closed = 1;
nodes = (
(210,-100,l),
(248,-100,o),
(281,-110,o),
(297,-141,c),
(297,-163,o),
(271,-180,o),
(239,-180,cs),
(231,-180,o),
(194,-175,o),
(177,-168,c),
(163,-199,l),
(185,-208,o),
(225,-215,o),
(251,-215,cs),
(318,-215,o),
(372,-178,o),
(372,-132,c),
(349,-88,o),
(301,-65,o),
(260,-65,c),
(285,0,l),
(250,0,l,{
name = hr00;
})
);
}
);
};
layerId = master01;
shapes = (
{
ref = T;
},
{
pos = (111,0);
ref = cedillacomb;
}
);
width = 535;
}
);
unicode = 354;
},
{
glyphname = Tcommaaccent;
lastChange = "2022-05-26 15:06:01 +0000";
layers = (
{
background = {
shapes = (
{
closed = 1;
nodes = (
(10,662,l),
(16,591,l),
(151,622,l),
(178,622,o),
(198,619,o),
(219,614,c),
(219,0,l),
(316,0,l),
(316,614,l),
(337,619,o),
(357,622,o),
(384,622,c),
(520,591,l),
(525,662,l,{
name = hr00;
})
);
},
{
closed = 1;
nodes = (
(277,-46,o),
(230,-71,o),
(211,-99,c),
(211,-135,o),
(245,-154,o),
(273,-154,c),
(273,-197,o),
(245,-242,o),
(206,-273,c),
(218,-292,l),
(279,-258,o),
(330,-205,o),
(330,-122,cs),
(330,-98,o),
(326,-71,o),
(316,-42,c,{
name = hr00;
})
);
}
);
};
layerId = master01;
shapes = (
{
ref = T;
},
{
pos = (390,0);
ref = commaaccentcomb;
}
);
width = 535;
}
);
unicode = 538;
},
{
glyphname = U;
lastChange = "2022-05-26 15:05:57 +0000";
layers = (
{
anchors = (
{
name = bottom;
pos = (329,0);
},
{
name = ogonek;
pos = (591,10);
},
{
name = top;
pos = (329,662);
},
{
name = topright;
pos = (637,662);
}
);
background = {
shapes = (
{
closed = 1;
nodes = (
(538,662,l),
(538,232,ls),
(538,88,o),
(466,32,o),
(351,32,cs),
(177,32,o),
(177,171,o),
(177,235,cs),
(177,662,l),
(75,662,l),
(75,243,ls),
(75,183,o),
(75,-12,o),
(323,-12,cs),
(582,-12,o),
(582,176,o),
(582,256,cs),
(582,662,l,{
name = hr00;
})
);
}
);
};
layerId = master01;
shapes = (
{
closed = 1;
nodes = (
(538,662,l),
(538,232,ls),
(538,88,o),
(466,32,o),
(351,32,cs),
(177,32,o),
(177,171,o),
(177,235,cs),
(177,662,l),
(75,662,l),
(75,243,ls),
(75,183,o),
(75,-12,o),
(323,-12,cs),
(582,-12,o),
(582,176,o),
(582,256,cs),
(582,662,l,{
name = hr00;
})
);
}
);
width = 657;
}
);
unicode = 85;
},
{
glyphname = Uacute;
lastChange = "2022-05-26 15:06:28 +0000";
layers = (
{
background = {
shapes = (
{
closed = 1;
nodes = (
(538,662,l),
(538,232,ls),
(538,88,o),
(466,32,o),
(351,32,cs),
(177,32,o),
(177,171,o),
(177,235,cs),
(177,662,l),
(75,662,l),
(75,243,ls),
(75,183,o),
(75,-12,o),
(323,-12,cs),
(582,-12,o),
(582,176,o),
(582,256,cs),
(582,662,l,{
name = hr00;
})
);
},
{
closed = 1;
nodes = (
(312,717,l),
(500,855,l),
(444,905,l),
(272,717,l,{
name = hr00;
})
);
}
);
};
layerId = master01;
shapes = (
{
ref = U;
},
{
pos = (159,0);
ref = acutecomb.case;
}
);
width = 657;
}
);
unicode = 218;
},
{
glyphname = Ubreve;
lastChange = "2022-05-26 15:06:01 +0000";
layers = (
{
background = {
shapes = (
{
closed = 1;
nodes = (
(538,662,l),
(538,232,ls),
(538,88,o),
(466,32,o),
(351,32,cs),
(177,32,o),
(177,171,o),
(177,235,cs),
(177,662,l),
(75,662,l),
(75,243,ls),
(75,183,o),
(75,-12,o),
(323,-12,cs),
(582,-12,o),
(582,176,o),
(582,256,cs),
(582,662,l,{
name = hr00;
})
);
},
{
closed = 1;
nodes = (
(461,824,o),
(444,777,o),
(368,777,cs),
(304,777,o),
(267,813,o),
(257,874,c),
(228,874,l),
(228,869,ls),
(228,764,o),
(295,717,o),
(366,717,cs),
(494,717,o),
(506,843,o),
(509,874,c),
(480,874,l,{
name = hr00;
})
);
}
);
};
layerId = master01;
shapes = (
{
ref = U;
},
{
pos = (162,0);
ref = brevecomb.case;
}
);
width = 657;
}
);
unicode = 364;
},
{
glyphname = Ucircumflex;
lastChange = "2022-05-26 15:06:01 +0000";
layers = (
{
background = {
shapes = (
{
closed = 1;
nodes = (
(538,662,l),
(538,232,ls),
(538,88,o),
(466,32,o),
(351,32,cs),
(177,32,o),
(177,171,o),
(177,235,cs),
(177,662,l),
(75,662,l),
(75,243,ls),
(75,183,o),
(75,-12,o),
(323,-12,cs),
(582,-12,o),
(582,176,o),
(582,256,cs),
(582,662,l,{
name = hr00;
})
);
},
{
closed = 1;
nodes = (
(392,884,l),
(344,884,l),
(219,717,l),
(259,717,l),
(368,810,l),
(478,717,l),
(518,717,l,{
name = hr00;
})
);
}
);
};
layerId = master01;
shapes = (
{
ref = U;
},
{
pos = (162,0);
ref = circumflexcomb.case;
}
);
width = 657;
}
);
unicode = 219;
},
{
glyphname = Udieresis;
lastChange = "2022-05-26 15:06:01 +0000";
layers = (
{
background = {
shapes = (
{
closed = 1;
nodes = (
(538,662,l),
(538,232,ls),
(538,88,o),
(466,32,o),
(351,32,cs),
(177,32,o),
(177,171,o),
(177,235,cs),
(177,662,l),
(75,662,l),
(75,243,ls),
(75,183,o),
(75,-12,o),
(323,-12,cs),
(582,-12,o),
(582,176,o),
(582,256,cs),
(582,662,l,{
name = hr00;
})
);
},
{
closed = 1;
nodes = (
(417,773,o),
(439,751,o),
(467,751,cs),
(495,751,o),
(517,773,o),
(517,801,cs),
(517,829,o),
(495,851,o),
(467,851,cs),
(439,851,o),
(417,829,o),
(417,801,c,{
name = hr00;
})
);
},
{
closed = 1;
nodes = (
(220,773,o),
(242,751,o),
(270,751,cs),
(298,751,o),
(320,773,o),
(320,801,cs),
(320,829,o),
(298,851,o),
(270,851,cs),
(242,851,o),
(220,829,o),
(220,801,cs)
);
}
);
};
layerId = master01;
shapes = (
{
ref = U;
},
{
pos = (162,0);
ref = dieresiscomb.case;
}
);
width = 657;
}
);
unicode = 220;
},
{
glyphname = Ugrave;
lastChange = "2022-05-26 15:06:01 +0000";
layers = (
{
background = {
shapes = (
{
closed = 1;
nodes = (
(538,662,l),
(538,232,ls),
(538,88,o),
(466,32,o),
(351,32,cs),
(177,32,o),
(177,171,o),
(177,235,cs),
(177,662,l),
(75,662,l),
(75,243,ls),
(75,183,o),
(75,-12,o),
(323,-12,cs),
(582,-12,o),
(582,176,o),
(582,256,cs),
(582,662,l,{
name = hr00;
})
);
},
{
closed = 1;
nodes = (
(443,717,l),
(255,855,l),
(311,905,l),
(483,717,l,{
name = hr00;
})
);
}
);
};
layerId = master01;
shapes = (
{
ref = U;
},
{
pos = (201,0);
ref = gravecomb.case;
}
);
width = 657;
}
);
unicode = 217;
},
{
glyphname = Uhungarumlaut;
lastChange = "2022-05-26 15:06:01 +0000";
layers = (
{
background = {
shapes = (
{
closed = 1;
nodes = (
(538,662,l),
(538,232,ls),
(538,88,o),
(466,32,o),
(351,32,cs),
(177,32,o),
(177,171,o),
(177,235,cs),
(177,662,l),
(75,662,l),
(75,243,ls),
(75,183,o),
(75,-12,o),
(323,-12,cs),
(582,-12,o),
(582,176,o),
(582,256,cs),
(582,662,l,{
name = hr00;
})
);
},
{
closed = 1;
nodes = (
(257,717,l),
(445,855,l),
(389,905,l),
(217,717,l,{
name = hr00;
})
);
},
{
closed = 1;
nodes = (
(412,717,l),
(600,855,l),
(544,905,l),
(372,717,l)
);
}
);
};
layerId = master01;
shapes = (
{
ref = U;
},
{
pos = (102,0);
ref = hungarumlautcomb.case;
}
);
width = 657;
}
);
unicode = 368;
},
{
glyphname = Umacron;
lastChange = "2022-05-26 15:06:01 +0000";
layers = (
{
background = {
shapes = (
{
closed = 1;
nodes = (
(538,662,l),
(538,232,ls),
(538,88,o),
(466,32,o),
(351,32,cs),
(177,32,o),
(177,171,o),
(177,235,cs),
(177,662,l),
(75,662,l),
(75,243,ls),
(75,183,o),
(75,-12,o),
(323,-12,cs),
(582,-12,o),
(582,176,o),
(582,256,cs),
(582,662,l,{
name = hr00;
})
);
},
{
closed = 1;
nodes = (
(213,811,l),
(213,757,l),
(524,757,l),
(524,811,l,{
name = hr00;
})
);
}
);
};
layerId = master01;
shapes = (
{
ref = U;
},
{
pos = (162,0);
ref = macroncomb.case;
}
);
width = 657;
}
);
unicode = 362;
},
{
glyphname = Uogonek;
lastChange = "2022-05-26 15:06:01 +0000";
layers = (
{
background = {
shapes = (
{
closed = 1;
nodes = (
(538,662,l),
(538,232,ls),
(538,88,o),
(466,32,o),
(351,32,cs),
(177,32,o),
(177,171,o),
(177,235,cs),
(177,662,l),
(75,662,l),
(75,243,ls),
(75,183,o),
(75,-12,o),
(323,-12,cs),
(582,-12,o),
(582,176,o),
(582,256,cs),
(582,662,l,{
name = hr00;
})
);
},
{
closed = 1;
nodes = (
(347,-20,o),
(322,-54,o),
(322,-97,cs),
(322,-135,o),
(357,-165,o),
(401,-165,cs),
(445,-165,o),
(490,-127,o),
(503,-80,c),
(487,-73,l),
(476,-97,o),
(446,-116,o),
(421,-116,cs),
(396,-116,o),
(376,-103,o),
(376,-75,cs),
(376,-41,o),
(398,-19,o),
(422,0,c),
(378,0,l,{
name = hr00;
})
);
}
);
};
layerId = master01;
shapes = (
{
ref = U;
},
{
pos = (348,10);
ref = ogonekcomb;
}
);
width = 657;
}
);
unicode = 370;
},
{
glyphname = Uring;
lastChange = "2022-05-26 15:06:01 +0000";
layers = (
{
background = {
shapes = (
{
closed = 1;
nodes = (
(538,662,l),
(538,232,ls),
(538,88,o),
(466,32,o),
(351,32,cs),
(177,32,o),
(177,171,o),
(177,235,cs),
(177,662,l),
(75,662,l),
(75,243,ls),
(75,183,o),
(75,-12,o),
(323,-12,cs),
(582,-12,o),
(582,176,o),
(582,256,cs),
(582,662,l,{
name = hr00;
})
);
},
{
closed = 1;
nodes = (
(269,767,o),
(311,722,o),
(368,722,cs),
(423,722,o),
(468,766,o),
(468,821,cs),
(468,876,o),
(423,921,o),
(368,921,cs),
(312,921,o),
(269,875,o),
(269,821,c,{
name = hr00;
})
);
},
{
closed = 1;
nodes = (
(405,887,o),
(434,857,o),
(434,821,cs),
(434,785,o),
(405,756,o),
(367,756,cs),
(322,756,o),
(303,797,o),
(303,822,cs),
(303,846,o),
(323,887,o),
(368,887,c)
);
}
);
};
layerId = master01;
shapes = (
{
ref = U;
},
{
pos = (162,0);
ref = ringcomb.case;
}
);
width = 657;
}
);
unicode = 366;
},
{
glyphname = Utilde;
lastChange = "2022-05-26 15:06:01 +0000";
layers = (
{
background = {
shapes = (
{
closed = 1;
nodes = (
(538,662,l),
(538,232,ls),
(538,88,o),
(466,32,o),
(351,32,cs),
(177,32,o),
(177,171,o),
(177,235,cs),
(177,662,l),
(75,662,l),
(75,243,ls),
(75,183,o),
(75,-12,o),
(323,-12,cs),
(582,-12,o),
(582,176,o),
(582,256,cs),
(582,662,l,{
name = hr00;
})
);
},
{
closed = 1;
nodes = (
(482,821,o),
(469,803,o),
(443,803,cs),
(423,803,o),
(351,844,o),
(312,844,c,{
name = hr01;
}),
(256,826,o),
(224,789,o),
(210,755,c),
(237,740,l),
(255,765,o),
(268,783,o),
(294,783,cs),
(314,783,o),
(386,742,o),
(425,742,c,{
name = hr02;
}),
(481,760,o),
(513,797,o),
(527,831,c),
(500,846,l)
);
}
);
};
layerId = master01;
shapes = (
{
ref = U;
},
{
pos = (162,0);
ref = tildecomb.case;
}
);
width = 657;
}
);
unicode = 360;
},
{
glyphname = V;
lastChange = "2022-05-26 15:05:57 +0000";
layers = (
{
anchors = (
{
name = bottom;
pos = (299,0);
},
{
name = top;
pos = (299,662);
}
);
background = {
shapes = (
{
closed = 1;
nodes = (
(307,-16,l),
(323,-16,l),
(587,662,l),
(537,662,l),
(339,120,l),
(119,662,l),
(10,662,l,{
name = hr00;
})
);
}
);
};
layerId = master01;
shapes = (
{
closed = 1;
nodes = (
(307,-16,l),
(323,-16,l),
(587,662,l),
(537,662,l),
(339,120,l),
(119,662,l),
(10,662,l,{
name = hr00;
})
);
}
);
width = 597;
}
);
unicode = 86;
},
{
glyphname = W;
lastChange = "2022-05-26 15:05:57 +0000";
layers = (
{
anchors = (
{
name = bottom;
pos = (428,0);
},
{
name = top;
pos = (428,662);
}
);
background = {
shapes = (
{
closed = 1;
nodes = (
(796,662,l),
(614,120,l),
(438,662,l),
(329,662,l),
(407,454,l),
(295,120,l),
(119,662,l),
(10,662,l),
(263,-15,l),
(279,-15,l),
(429,395,l),
(582,-15,l),
(598,-15,l),
(846,662,l,{
name = hr00;
})
);
}
);
};
layerId = master01;
shapes = (
{
closed = 1;
nodes = (
(796,662,l),
(614,120,l),
(438,662,l),
(329,662,l),
(407,454,l),
(295,120,l),
(119,662,l),
(10,662,l),
(263,-15,l),
(279,-15,l),
(429,395,l),
(582,-15,l),
(598,-15,l),
(846,662,l,{
name = hr00;
})
);
}
);
width = 856;
}
);
unicode = 87;
},
{
glyphname = Wacute;
lastChange = "2022-05-26 15:06:28 +0000";
layers = (
{
background = {
shapes = (
{
closed = 1;
nodes = (
(796,662,l),
(614,120,l),
(438,662,l),
(329,662,l),
(407,454,l),
(295,120,l),
(119,662,l),
(10,662,l),
(263,-15,l),
(279,-15,l),
(429,395,l),
(582,-15,l),
(598,-15,l),
(846,662,l,{
name = hr00;
})
);
},
{
closed = 1;
nodes = (
(371,717,l),
(559,855,l),
(503,905,l),
(331,717,l,{
name = hr00;
})
);
}
);
};
layerId = master01;
shapes = (
{
ref = W;
},
{
pos = (258,0);
ref = acutecomb.case;
}
);
width = 856;
}
);
unicode = 7810;
},
{
glyphname = Wcircumflex;
lastChange = "2022-05-26 15:06:01 +0000";
layers = (
{
background = {
shapes = (
{
closed = 1;
nodes = (
(796,662,l),
(614,120,l),
(438,662,l),
(329,662,l),
(407,454,l),
(295,120,l),
(119,662,l),
(10,662,l),
(263,-15,l),
(279,-15,l),
(429,395,l),
(582,-15,l),
(598,-15,l),
(846,662,l,{
name = hr00;
})
);
},
{
closed = 1;
nodes = (
(451,884,l),
(403,884,l),
(278,717,l),
(318,717,l),
(427,810,l),
(537,717,l),
(577,717,l,{
name = hr00;
})
);
}
);
};
layerId = master01;
shapes = (
{
ref = W;
},
{
pos = (261,0);
ref = circumflexcomb.case;
}
);
width = 856;
}
);
unicode = 372;
},
{
glyphname = Wdieresis;
lastChange = "2022-05-26 15:06:01 +0000";
layers = (
{
background = {
shapes = (
{
closed = 1;
nodes = (
(796,662,l),
(614,120,l),
(438,662,l),
(329,662,l),
(407,454,l),
(295,120,l),
(119,662,l),
(10,662,l),
(263,-15,l),
(279,-15,l),
(429,395,l),
(582,-15,l),
(598,-15,l),
(846,662,l,{
name = hr00;
})
);
},
{
closed = 1;
nodes = (
(476,773,o),
(498,751,o),
(526,751,cs),
(554,751,o),
(576,773,o),
(576,801,cs),
(576,829,o),
(554,851,o),
(526,851,cs),
(498,851,o),
(476,829,o),
(476,801,c,{
name = hr00;
})
);
},
{
closed = 1;
nodes = (
(279,773,o),
(301,751,o),
(329,751,cs),
(357,751,o),
(379,773,o),
(379,801,cs),
(379,829,o),
(357,851,o),
(329,851,cs),
(301,851,o),
(279,829,o),
(279,801,cs)
);
}
);
};
layerId = master01;
shapes = (
{
ref = W;
},
{
pos = (261,0);
ref = dieresiscomb.case;
}
);
width = 856;
}
);
unicode = 7812;
},
{
glyphname = Wgrave;
lastChange = "2022-05-26 15:06:01 +0000";
layers = (
{
background = {
shapes = (
{
closed = 1;
nodes = (
(796,662,l),
(614,120,l),
(438,662,l),
(329,662,l),
(407,454,l),
(295,120,l),
(119,662,l),
(10,662,l),
(263,-15,l),
(279,-15,l),
(429,395,l),
(582,-15,l),
(598,-15,l),
(846,662,l,{
name = hr00;
})
);
},
{
closed = 1;
nodes = (
(502,717,l),
(314,855,l),
(370,905,l),
(542,717,l,{
name = hr00;
})
);
}
);
};
layerId = master01;
shapes = (
{
ref = W;
},
{
pos = (300,0);
ref = gravecomb.case;
}
);
width = 856;
}
);
unicode = 7808;
},
{
glyphname = X;
lastChange = "2022-05-26 15:05:57 +0000";
layers = (
{
anchors = (
{
name = bottom;
pos = (323,0);
},
{
name = top;
pos = (323,662);
}
);
background = {
shapes = (
{
closed = 1;
nodes = (
(355,356,l),
(602,662,l),
(541,662,l),
(333,387,l),
(167,662,l),
(42,662,l),
(280,321,l),
(30,0,l),
(91,0,l),
(303,292,l),
(491,0,l),
(616,0,l,{
name = hr00;
})
);
}
);
};
layerId = master01;
shapes = (
{
closed = 1;
nodes = (
(355,356,l),
(602,662,l),
(541,662,l),
(333,387,l),
(167,662,l),
(42,662,l),
(280,321,l),
(30,0,l),
(91,0,l),
(303,292,l),
(491,0,l),
(616,0,l,{
name = hr00;
})
);
}
);
width = 646;
}
);
unicode = 88;
},
{
glyphname = Y;
lastChange = "2022-05-26 15:05:57 +0000";
layers = (
{
anchors = (
{
name = bottom;
pos = (279,0);
},
{
name = top;
pos = (279,662);
},
{
name = topleft;
pos = (20,662);
}
);
background = {
shapes = (
{
closed = 1;
nodes = (
(537,662,l),
(487,662,l),
(314,282,l),
(129,662,l),
(20,662,l),
(246,246,l),
(246,0,l),
(343,0,l),
(343,251,l,{
name = hr00;
})
);
}
);
};
layerId = master01;
shapes = (
{
closed = 1;
nodes = (
(537,662,l),
(487,662,l),
(314,282,l),
(129,662,l),
(20,662,l),
(246,246,l),
(246,0,l),
(343,0,l),
(343,251,l,{
name = hr00;
})
);
}
);
width = 557;
}
);
unicode = 89;
},
{
glyphname = Yacute;
lastChange = "2022-05-26 15:06:28 +0000";
layers = (
{
background = {
shapes = (
{
closed = 1;
nodes = (
(537,662,l),
(487,662,l),
(314,282,l),
(129,662,l),
(20,662,l),
(246,246,l),
(246,0,l),
(343,0,l),
(343,251,l,{
name = hr00;
})
);
},
{
closed = 1;
nodes = (
(222,717,l),
(410,855,l),
(354,905,l),
(182,717,l,{
name = hr00;
})
);
}
);
};
layerId = master01;
shapes = (
{
ref = Y;
},
{
pos = (109,0);
ref = acutecomb.case;
}
);
width = 557;
}
);
unicode = 221;
},
{
glyphname = Ycircumflex;
lastChange = "2022-05-26 15:06:01 +0000";
layers = (
{
background = {
shapes = (
{
closed = 1;
nodes = (
(537,662,l),
(487,662,l),
(314,282,l),
(129,662,l),
(20,662,l),
(246,246,l),
(246,0,l),
(343,0,l),
(343,251,l,{
name = hr00;
})
);
},
{
closed = 1;
nodes = (
(302,884,l),
(254,884,l),
(129,717,l),
(169,717,l),
(278,810,l),
(388,717,l),
(428,717,l,{
name = hr00;
})
);
}
);
};
layerId = master01;
shapes = (
{
ref = Y;
},
{
pos = (112,0);
ref = circumflexcomb.case;
}
);
width = 557;
}
);
unicode = 374;
},
{
glyphname = Ydieresis;
lastChange = "2022-05-26 15:06:01 +0000";
layers = (
{
background = {
shapes = (
{
closed = 1;
nodes = (
(537,662,l),
(487,662,l),
(314,282,l),
(129,662,l),
(20,662,l),
(246,246,l),
(246,0,l),
(343,0,l),
(343,251,l,{
name = hr00;
})
);
},
{
closed = 1;
nodes = (
(327,773,o),
(349,751,o),
(377,751,cs),
(405,751,o),
(427,773,o),
(427,801,cs),
(427,829,o),
(405,851,o),
(377,851,cs),
(349,851,o),
(327,829,o),
(327,801,c,{
name = hr00;
})
);
},
{
closed = 1;
nodes = (
(130,773,o),
(152,751,o),
(180,751,cs),
(208,751,o),
(230,773,o),
(230,801,cs),
(230,829,o),
(208,851,o),
(180,851,cs),
(152,851,o),
(130,829,o),
(130,801,cs)
);
}
);
};
layerId = master01;
shapes = (
{
ref = Y;
},
{
pos = (112,0);
ref = dieresiscomb.case;
}
);
width = 557;
}
);
unicode = 376;
},
{
glyphname = Ygrave;
lastChange = "2022-05-26 15:06:01 +0000";
layers = (
{
background = {
shapes = (
{
closed = 1;
nodes = (
(537,662,l),
(487,662,l),
(314,282,l),
(129,662,l),
(20,662,l),
(246,246,l),
(246,0,l),
(343,0,l),
(343,251,l,{
name = hr00;
})
);
},
{
closed = 1;
nodes = (
(353,717,l),
(165,855,l),
(221,905,l),
(393,717,l,{
name = hr00;
})
);
}
);
};
layerId = master01;
shapes = (
{
ref = Y;
},
{
pos = (151,0);
ref = gravecomb.case;
}
);
width = 557;
}
);
unicode = 7922;
},
{
glyphname = Z;
lastChange = "2022-05-26 15:05:57 +0000";
layers = (
{
anchors = (
{
name = bottom;
pos = (286,0);
},
{
name = center;
pos = (286,331);
},
{
name = top;
pos = (286,662);
}
);
background = {
shapes = (
{
closed = 1;
nodes = (
(541,652,l),
(541,662,l),
(73,662,l),
(83,595,l),
(289,626,l),
(329,626,o),
(360,620,o),
(398,609,c),
(16,10,l),
(16,0,l),
(516,0,l),
(506,67,l),
(147,40,l,{
name = hr00;
})
);
}
);
};
layerId = master01;
shapes = (
{
closed = 1;
nodes = (
(541,652,l),
(541,662,l),
(73,662,l),
(83,595,l),
(289,626,l),
(329,626,o),
(360,620,o),
(398,609,c),
(16,10,l),
(16,0,l),
(516,0,l),
(506,67,l),
(147,40,l,{
name = hr00;
})
);
}
);
width = 571;
}
);
unicode = 90;
},
{
glyphname = Zacute;
lastChange = "2022-05-26 15:06:28 +0000";
layers = (
{
background = {
shapes = (
{
closed = 1;
nodes = (
(541,652,l),
(541,662,l),
(73,662,l),
(83,595,l),
(289,626,l),
(329,626,o),
(360,620,o),
(398,609,c),
(16,10,l),
(16,0,l),
(516,0,l),
(506,67,l),
(147,40,l,{
name = hr00;
})
);
},
{
closed = 1;
nodes = (
(229,717,l),
(417,855,l),
(361,905,l),
(189,717,l,{
name = hr00;
})
);
}
);
};
layerId = master01;
shapes = (
{
ref = Z;
},
{
pos = (116,0);
ref = acutecomb.case;
}
);
width = 571;
}
);
unicode = 377;
},
{
glyphname = Zcaron;
lastChange = "2022-05-26 15:06:01 +0000";
layers = (
{
background = {
shapes = (
{
closed = 1;
nodes = (
(541,652,l),
(541,662,l),
(73,662,l),
(83,595,l),
(289,626,l),
(329,626,o),
(360,620,o),
(398,609,c),
(16,10,l),
(16,0,l),
(516,0,l),
(506,67,l),
(147,40,l,{
name = hr00;
})
);
},
{
closed = 1;
nodes = (
(262,716,l),
(310,716,l),
(435,883,l),
(395,883,l),
(286,790,l),
(176,883,l),
(136,883,l,{
name = hr00;
})
);
}
);
};
layerId = master01;
shapes = (
{
ref = Z;
},
{
pos = (120,0);
ref = caroncomb.case;
}
);
width = 571;
}
);
unicode = 381;
},
{
glyphname = Zdotaccent;
lastChange = "2022-05-26 15:06:01 +0000";
layers = (
{
background = {
shapes = (
{
closed = 1;
nodes = (
(541,652,l),
(541,662,l),
(73,662,l),
(83,595,l),
(289,626,l),
(329,626,o),
(360,620,o),
(398,609,c),
(16,10,l),
(16,0,l),
(516,0,l),
(506,67,l),
(147,40,l,{
name = hr00;
})
);
},
{
closed = 1;
nodes = (
(256,855,o),
(234,832,o),
(234,803,cs),
(234,776,o),
(256,751,o),
(285,751,cs),
(313,751,o),
(337,776,o),
(337,803,cs),
(337,832,o),
(313,855,o),
(285,855,cs,{
name = hr00;
})
);
}
);
};
layerId = master01;
shapes = (
{
ref = Z;
},
{
pos = (169,0);
ref = dotaccentcomb.case;
}
);
width = 571;
}
);
unicode = 379;
},
{
glyphname = a;
lastChange = "2022-05-26 15:05:57 +0000";
layers = (
{
anchors = (
{
name = bottom;
pos = (222,0);
},
{
name = ogonek;
pos = (400,10);
},
{
name = top;
pos = (222,452);
}
);
background = {
shapes = (
{
closed = 1;
nodes = (
(146,45,o),
(121,76,o),
(121,118,cs),
(121,159,o),
(185,202,o),
(285,209,c),
(285,106,ls),
(285,91,o),
(225,43,o),
(178,34,c)
);
},
{
closed = 1;
nodes = (
(367,362,o),
(367,464,o),
(216,464,cs),
(146,464,o),
(71,429,o),
(50,412,c),
(59,387,ls),
(112,404,o),
(155,411,o),
(189,411,cs),
(254,411,o),
(285,383,o),
(285,328,c),
(285,234,ls),
(194,228,o),
(33,197,o),
(33,92,cs),
(33,25,o),
(85,-12,o),
(140,-12,cs),
(195,-12,o),
(238,16,o),
(286,60,c),
(367,-13,l,{
name = hr01;
}),
(419,25,ls),
(402,37,o),
(367,64,o),
(367,133,cs),
(367,303,l)
);
}
);
};
layerId = master01;
shapes = (
{
closed = 1;
nodes = (
(146,45,o),
(121,76,o),
(121,118,cs),
(121,159,o),
(185,202,o),
(285,209,c),
(285,106,ls),
(285,91,o),
(225,43,o),
(178,34,c)
);
},
{
closed = 1;
nodes = (
(367,362,o),
(367,464,o),
(216,464,cs),
(146,464,o),
(71,429,o),
(50,412,c),
(59,387,ls),
(112,404,o),
(155,411,o),
(189,411,cs),
(254,411,o),
(285,383,o),
(285,328,c),
(285,234,ls),
(194,228,o),
(33,197,o),
(33,92,cs),
(33,25,o),
(85,-12,o),
(140,-12,cs),
(195,-12,o),
(238,16,o),
(286,60,c),
(367,-13,l,{
name = hr01;
}),
(419,25,ls),
(402,37,o),
(367,64,o),
(367,133,cs),
(367,303,l)
);
}
);
width = 444;
}
);
unicode = 97;
},
{
glyphname = aacute;
lastChange = "2022-05-26 15:06:01 +0000";
layers = (
{
background = {
shapes = (
{
closed = 1;
nodes = (
(146,45,o),
(121,76,o),
(121,118,cs),
(121,159,o),
(185,202,o),
(285,209,c),
(285,106,ls),
(285,91,o),
(225,43,o),
(178,34,c)
);
},
{
closed = 1;
nodes = (
(367,362,o),
(367,464,o),
(216,464,cs),
(146,464,o),
(71,429,o),
(50,412,c),
(59,387,ls),
(112,404,o),
(155,411,o),
(189,411,cs),
(254,411,o),
(285,383,o),
(285,328,c),
(285,234,ls),
(194,228,o),
(33,197,o),
(33,92,cs),
(33,25,o),
(85,-12,o),
(140,-12,cs),
(195,-12,o),
(238,16,o),
(286,60,c),
(367,-13,l,{
name = hr01;
}),
(419,25,ls),
(402,37,o),
(367,64,o),
(367,133,cs),
(367,303,l)
);
},
{
closed = 1;
nodes = (
(165,507,l),
(353,645,l),
(297,695,l),
(125,507,l,{
name = hr00;
})
);
}
);
};
layerId = master01;
shapes = (
{
ref = a;
},
{
pos = (15,0);
ref = acutecomb;
}
);
width = 444;
}
);
unicode = 225;
},
{
glyphname = abreve;
lastChange = "2022-05-26 15:06:01 +0000";
layers = (
{
background = {
shapes = (
{
closed = 1;
nodes = (
(146,45,o),
(121,76,o),
(121,118,cs),
(121,159,o),
(185,202,o),
(285,209,c),
(285,106,ls),
(285,91,o),
(225,43,o),
(178,34,c)
);
},
{
closed = 1;
nodes = (
(367,362,o),
(367,464,o),
(216,464,cs),
(146,464,o),
(71,429,o),
(50,412,c),
(59,387,ls),
(112,404,o),
(155,411,o),
(189,411,cs),
(254,411,o),
(285,383,o),
(285,328,c),
(285,234,ls),
(194,228,o),
(33,197,o),
(33,92,cs),
(33,25,o),
(85,-12,o),
(140,-12,cs),
(195,-12,o),
(238,16,o),
(286,60,c),
(367,-13,l,{
name = hr01;
}),
(419,25,ls),
(402,37,o),
(367,64,o),
(367,133,cs),
(367,303,l)
);
},
{
closed = 1;
nodes = (
(314,614,o),
(297,567,o),
(221,567,cs),
(157,567,o),
(120,603,o),
(110,664,c),
(81,664,l),
(81,659,ls),
(81,554,o),
(148,507,o),
(219,507,cs),
(347,507,o),
(359,633,o),
(362,664,c),
(333,664,l,{
name = hr00;
})
);
}
);
};
layerId = master01;
shapes = (
{
ref = a;
},
{
pos = (55,0);
ref = brevecomb;
}
);
width = 444;
}
);
unicode = 259;
},
{
color = 9;
glyphname = acaron;
lastChange = "2022-05-26 15:06:01 +0000";
layers = (
{
background = {
shapes = (
{
closed = 1;
nodes = (
(146,45,o),
(121,76,o),
(121,118,cs),
(121,159,o),
(185,202,o),
(285,209,c),
(285,106,ls),
(285,91,o),
(225,43,o),
(178,34,c)
);
},
{
closed = 1;
nodes = (
(367,362,o),
(367,464,o),
(216,464,cs),
(146,464,o),
(71,429,o),
(50,412,c),
(59,387,ls),
(112,404,o),
(155,411,o),
(189,411,cs),
(254,411,o),
(285,383,o),
(285,328,c),
(285,234,ls),
(194,228,o),
(33,197,o),
(33,92,cs),
(33,25,o),
(85,-12,o),
(140,-12,cs),
(195,-12,o),
(238,16,o),
(286,60,c),
(367,-13,l,{
name = hr01;
}),
(419,25,ls),
(402,37,o),
(367,64,o),
(367,133,cs),
(367,303,l)
);
},
{
closed = 1;
nodes = (
(586,506,l),
(634,506,l),
(759,673,l),
(719,673,l),
(610,580,l),
(500,673,l),
(460,673,l,{
name = hr00;
})
);
}
);
};
layerId = master01;
shapes = (
{
ref = a;
},
{
pos = (56,0);
ref = caroncomb;
}
);
width = 444;
}
);
unicode = 462;
},
{
glyphname = acircumflex;
lastChange = "2022-05-26 15:06:01 +0000";
layers = (
{
background = {
shapes = (
{
closed = 1;
nodes = (
(146,45,o),
(121,76,o),
(121,118,cs),
(121,159,o),
(185,202,o),
(285,209,c),
(285,106,ls),
(285,91,o),
(225,43,o),
(178,34,c)
);
},
{
closed = 1;
nodes = (
(367,362,o),
(367,464,o),
(216,464,cs),
(146,464,o),
(71,429,o),
(50,412,c),
(59,387,ls),
(112,404,o),
(155,411,o),
(189,411,cs),
(254,411,o),
(285,383,o),
(285,328,c),
(285,234,ls),
(194,228,o),
(33,197,o),
(33,92,cs),
(33,25,o),
(85,-12,o),
(140,-12,cs),
(195,-12,o),
(238,16,o),
(286,60,c),
(367,-13,l,{
name = hr01;
}),
(419,25,ls),
(402,37,o),
(367,64,o),
(367,133,cs),
(367,303,l)
);
},
{
closed = 1;
nodes = (
(245,674,l),
(197,674,l),
(72,507,l),
(112,507,l),
(221,600,l),
(331,507,l),
(371,507,l,{
name = hr00;
})
);
}
);
};
layerId = master01;
shapes = (
{
ref = a;
},
{
pos = (55,0);
ref = circumflexcomb;
}
);
width = 444;
}
);
unicode = 226;
},
{
glyphname = adieresis;
lastChange = "2022-05-26 15:06:01 +0000";
layers = (
{
background = {
shapes = (
{
closed = 1;
nodes = (
(146,45,o),
(121,76,o),
(121,118,cs),
(121,159,o),
(185,202,o),
(285,209,c),
(285,106,ls),
(285,91,o),
(225,43,o),
(178,34,c)
);
},
{
closed = 1;
nodes = (
(367,362,o),
(367,464,o),
(216,464,cs),
(146,464,o),
(71,429,o),
(50,412,c),
(59,387,ls),
(112,404,o),
(155,411,o),
(189,411,cs),
(254,411,o),
(285,383,o),
(285,328,c),
(285,234,ls),
(194,228,o),
(33,197,o),
(33,92,cs),
(33,25,o),
(85,-12,o),
(140,-12,cs),
(195,-12,o),
(238,16,o),
(286,60,c),
(367,-13,l,{
name = hr01;
}),
(419,25,ls),
(402,37,o),
(367,64,o),
(367,133,cs),
(367,303,l)
);
},
{
closed = 1;
nodes = (
(270,563,o),
(292,541,o),
(320,541,cs),
(348,541,o),
(370,563,o),
(370,591,cs),
(370,619,o),
(348,641,o),
(320,641,cs),
(292,641,o),
(270,619,o),
(270,591,c,{
name = hr00;
})
);
},
{
closed = 1;
nodes = (
(73,563,o),
(95,541,o),
(123,541,cs),
(151,541,o),
(173,563,o),
(173,591,cs),
(173,619,o),
(151,641,o),
(123,641,cs),
(95,641,o),
(73,619,o),
(73,591,cs)
);
}
);
};
layerId = master01;
shapes = (
{
ref = a;
},
{
pos = (55,0);
ref = dieresiscomb;
}
);
width = 444;
}
);
unicode = 228;
},
{
glyphname = agrave;
lastChange = "2022-05-26 15:06:01 +0000";
layers = (
{
background = {
shapes = (
{
closed = 1;
nodes = (
(146,45,o),
(121,76,o),
(121,118,cs),
(121,159,o),
(185,202,o),
(285,209,c),
(285,106,ls),
(285,91,o),
(225,43,o),
(178,34,c)
);
},
{
closed = 1;
nodes = (
(367,362,o),
(367,464,o),
(216,464,cs),
(146,464,o),
(71,429,o),
(50,412,c),
(59,387,ls),
(112,404,o),
(155,411,o),
(189,411,cs),
(254,411,o),
(285,383,o),
(285,328,c),
(285,234,ls),
(194,228,o),
(33,197,o),
(33,92,cs),
(33,25,o),
(85,-12,o),
(140,-12,cs),
(195,-12,o),
(238,16,o),
(286,60,c),
(367,-13,l,{
name = hr01;
}),
(419,25,ls),
(402,37,o),
(367,64,o),
(367,133,cs),
(367,303,l)
);
},
{
closed = 1;
nodes = (
(296,507,l),
(108,645,l),
(164,695,l),
(336,507,l,{
name = hr00;
})
);
}
);
};
layerId = master01;
shapes = (
{
ref = a;
},
{
pos = (94,0);
ref = gravecomb;
}
);
width = 444;
}
);
unicode = 224;
},
{
glyphname = amacron;
lastChange = "2022-05-26 15:06:01 +0000";
layers = (
{
background = {
shapes = (
{
closed = 1;
nodes = (
(146,45,o),
(121,76,o),
(121,118,cs),
(121,159,o),
(185,202,o),
(285,209,c),
(285,106,ls),
(285,91,o),
(225,43,o),
(178,34,c)
);
},
{
closed = 1;
nodes = (
(367,362,o),
(367,464,o),
(216,464,cs),
(146,464,o),
(71,429,o),
(50,412,c),
(59,387,ls),
(112,404,o),
(155,411,o),
(189,411,cs),
(254,411,o),
(285,383,o),
(285,328,c),
(285,234,ls),
(194,228,o),
(33,197,o),
(33,92,cs),
(33,25,o),
(85,-12,o),
(140,-12,cs),
(195,-12,o),
(238,16,o),
(286,60,c),
(367,-13,l,{
name = hr01;
}),
(419,25,ls),
(402,37,o),
(367,64,o),
(367,133,cs),
(367,303,l)
);
},
{
closed = 1;
nodes = (
(66,601,l),
(66,547,l),
(377,547,l),
(377,601,l,{
name = hr00;
})
);
}
);
};
layerId = master01;
shapes = (
{
ref = a;
},
{
pos = (55,0);
ref = macroncomb;
}
);
width = 444;
}
);
unicode = 257;
},
{
glyphname = aogonek;
lastChange = "2022-05-26 15:06:01 +0000";
layers = (
{
background = {
shapes = (
{
closed = 1;
nodes = (
(146,45,o),
(121,76,o),
(121,118,cs),
(121,159,o),
(185,202,o),
(285,209,c),
(285,106,ls),
(285,91,o),
(225,43,o),
(178,34,c)
);
},
{
closed = 1;
nodes = (
(367,362,o),
(367,464,o),
(216,464,cs),
(146,464,o),
(71,429,o),
(50,412,c),
(59,387,ls),
(112,404,o),
(155,411,o),
(189,411,cs),
(254,411,o),
(285,383,o),
(285,328,c),
(285,234,ls),
(194,228,o),
(33,197,o),
(33,92,cs),
(33,25,o),
(85,-12,o),
(140,-12,cs),
(195,-12,o),
(238,16,o),
(286,60,c),
(367,-13,l,{
name = hr01;
}),
(419,25,ls),
(402,37,o),
(367,64,o),
(367,133,cs),
(367,303,l)
);
},
{
closed = 1;
nodes = (
(310,-20,o),
(285,-54,o),
(285,-97,cs),
(285,-135,o),
(320,-165,o),
(364,-165,cs),
(408,-165,o),
(453,-127,o),
(466,-80,c),
(450,-73,l),
(439,-97,o),
(409,-116,o),
(384,-116,cs),
(359,-116,o),
(339,-103,o),
(339,-75,cs),
(339,-41,o),
(361,-19,o),
(385,0,c),
(341,0,l,{
name = hr00;
})
);
}
);
};
layerId = master01;
shapes = (
{
ref = a;
},
{
pos = (157,10);
ref = ogonekcomb;
}
);
width = 444;
}
);
unicode = 261;
},
{
glyphname = aring;
lastChange = "2022-05-26 15:06:01 +0000";
layers = (
{
background = {
shapes = (
{
closed = 1;
nodes = (
(146,45,o),
(121,76,o),
(121,118,cs),
(121,159,o),
(185,202,o),
(285,209,c),
(285,106,ls),
(285,91,o),
(225,43,o),
(178,34,c)
);
},
{
closed = 1;
nodes = (
(367,362,o),
(367,464,o),
(216,464,cs),
(146,464,o),
(71,429,o),
(50,412,c),
(59,387,ls),
(112,404,o),
(155,411,o),
(189,411,cs),
(254,411,o),
(285,383,o),
(285,328,c),
(285,234,ls),
(194,228,o),
(33,197,o),
(33,92,cs),
(33,25,o),
(85,-12,o),
(140,-12,cs),
(195,-12,o),
(238,16,o),
(286,60,c),
(367,-13,l,{
name = hr01;
}),
(419,25,ls),
(402,37,o),
(367,64,o),
(367,133,cs),
(367,303,l)
);
},
{
closed = 1;
nodes = (
(122,557,o),
(164,512,o),
(221,512,cs),
(276,512,o),
(321,556,o),
(321,611,cs),
(321,666,o),
(276,711,o),
(221,711,cs),
(165,711,o),
(122,665,o),
(122,611,c,{
name = hr00;
})
);
},
{
closed = 1;
nodes = (
(258,677,o),
(287,647,o),
(287,611,cs),
(287,575,o),
(258,546,o),
(220,546,cs),
(175,546,o),
(156,587,o),
(156,612,cs),
(156,636,o),
(176,677,o),
(221,677,c)
);
}
);
};
layerId = master01;
shapes = (
{
ref = a;
},
{
pos = (55,0);
ref = ringcomb;
}
);
width = 444;
}
);
unicode = 229;
},
{
glyphname = aringacute;
lastChange = "2022-05-26 15:06:01 +0000";
layers = (
{
background = {
shapes = (
{
closed = 1;
nodes = (
(146,45,o),
(121,76,o),
(121,118,cs),
(121,159,o),
(185,202,o),
(285,209,c),
(285,106,ls),
(285,91,o),
(225,43,o),
(178,34,c)
);
},
{
closed = 1;
nodes = (
(367,362,o),
(367,464,o),
(216,464,cs),
(146,464,o),
(71,429,o),
(50,412,c),
(59,387,ls),
(112,404,o),
(155,411,o),
(189,411,cs),
(254,411,o),
(285,383,o),
(285,328,c),
(285,234,ls),
(194,228,o),
(33,197,o),
(33,92,cs),
(33,25,o),
(85,-12,o),
(140,-12,cs),
(195,-12,o),
(238,16,o),
(286,60,c),
(367,-13,l,{
name = hr01;
}),
(419,25,ls),
(402,37,o),
(367,64,o),
(367,133,cs),
(367,303,l)
);
},
{
closed = 1;
nodes = (
(122,557,o),
(164,512,o),
(221,512,cs),
(276,512,o),
(321,556,o),
(321,611,cs),
(321,666,o),
(276,711,o),
(221,711,cs),
(165,711,o),
(122,665,o),
(122,611,cs,{
name = hr00;
})
);
},
{
closed = 1;
nodes = (
(258,677,o),
(287,647,o),
(287,611,cs),
(287,575,o),
(258,546,o),
(220,546,cs),
(175,546,o),
(156,587,o),
(156,612,cs),
(156,636,o),
(176,677,o),
(221,677,cs)
);
},
{
closed = 1;
nodes = (
(400,761,l),
(344,811,l),
(238,695,l),
(277,671,l)
);
}
);
};
layerId = master01;
shapes = (
{
ref = a;
},
{
pos = (55,0);
ref = ringcomb;
},
{
pos = (15,259);
ref = acutecomb;
}
);
width = 444;
}
);
unicode = 507;
},
{
glyphname = atilde;
lastChange = "2022-05-26 15:06:01 +0000";
layers = (
{
background = {
shapes = (
{
closed = 1;
nodes = (
(146,45,o),
(121,76,o),
(121,118,cs),
(121,159,o),
(185,202,o),
(285,209,c),
(285,106,ls),
(285,91,o),
(225,43,o),
(178,34,c)
);
},
{
closed = 1;
nodes = (
(367,362,o),
(367,464,o),
(216,464,cs),
(146,464,o),
(71,429,o),
(50,412,c),
(59,387,ls),
(112,404,o),
(155,411,o),
(189,411,cs),
(254,411,o),
(285,383,o),
(285,328,c),
(285,234,ls),
(194,228,o),
(33,197,o),
(33,92,cs),
(33,25,o),
(85,-12,o),
(140,-12,cs),
(195,-12,o),
(238,16,o),
(286,60,c),
(367,-13,l,{
name = hr01;
}),
(419,25,ls),
(402,37,o),
(367,64,o),
(367,133,cs),
(367,303,l)
);
},
{
closed = 1;
nodes = (
(335,611,o),
(322,593,o),
(296,593,cs),
(276,593,o),
(204,634,o),
(165,634,c,{
name = hr01;
}),
(109,616,o),
(77,579,o),
(63,545,c),
(90,530,l),
(108,555,o),
(121,573,o),
(147,573,cs),
(167,573,o),
(239,532,o),
(278,532,c,{
name = hr02;
}),
(334,550,o),
(366,587,o),
(380,621,c),
(353,636,l)
);
}
);
};
layerId = master01;
shapes = (
{
ref = a;
},
{
pos = (55,0);
ref = tildecomb;
}
);
width = 444;
}
);
unicode = 227;
},
{
glyphname = ae;
lastChange = "2022-05-26 15:05:57 +0000";
layers = (
{
anchors = (
{
name = bottom;
pos = (352,0);
},
{
name = top;
pos = (352,452);
}
);
background = {
shapes = (
{
closed = 1;
nodes = (
(146,464,o),
(71,429,o),
(50,412,c),
(59,387,l),
(112,404,o),
(155,411,o),
(189,411,cs),
(254,411,o),
(285,383,o),
(285,328,cs),
(285,236,l),
(194,230,o),
(33,199,o),
(33,94,cs),
(33,27,o),
(85,-11,o),
(140,-11,cs),
(194,-11,o),
(269,40,o),
(317,84,c),
(355,22,o),
(422,-11,o),
(502,-11,cs),
(563,-11,o),
(617,12,o),
(659,36,c),
(659,71,l),
(626,56,o),
(587,44,o),
(535,44,cs),
(458,44,o),
(383,81,o),
(367,200,c),
(367,247,l),
(683,247,l),
(683,390,o),
(605,464,o),
(512,464,cs),
(452,464,o),
(394,441,o),
(352,398,c),
(335,434,o),
(297,464,o),
(216,464,cs,{
name = hr00;
})
);
},
{
closed = 1;
nodes = (
(502,417,o),
(593,397,o),
(602,277,c),
(368,277,l),
(379,343,o),
(415,395,o),
(461,417,c)
);
},
{
closed = 1;
nodes = (
(146,47,o),
(121,78,o),
(121,120,cs),
(121,161,o),
(185,204,o),
(285,211,c),
(285,176,o),
(291,146,o),
(301,119,c),
(288,96,o),
(220,44,o),
(178,36,c)
);
}
);
};
layerId = master01;
shapes = (
{
closed = 1;
nodes = (
(146,464,o),
(71,429,o),
(50,412,c),
(59,387,l),
(112,404,o),
(155,411,o),
(189,411,cs),
(254,411,o),
(285,383,o),
(285,328,cs),
(285,236,l),
(194,230,o),
(33,199,o),
(33,94,cs),
(33,27,o),
(85,-11,o),
(140,-11,cs),
(194,-11,o),
(269,40,o),
(317,84,c),
(355,22,o),
(422,-11,o),
(502,-11,cs),
(563,-11,o),
(617,12,o),
(659,36,c),
(659,71,l),
(626,56,o),
(587,44,o),
(535,44,cs),
(458,44,o),
(383,81,o),
(367,200,c),
(367,247,l),
(683,247,l),
(683,390,o),
(605,464,o),
(512,464,cs),
(452,464,o),
(394,441,o),
(352,398,c),
(335,434,o),
(297,464,o),
(216,464,cs,{
name = hr00;
})
);
},
{
closed = 1;
nodes = (
(502,417,o),
(593,397,o),
(602,277,c),
(368,277,l),
(379,343,o),
(415,395,o),
(461,417,c)
);
},
{
closed = 1;
nodes = (
(146,47,o),
(121,78,o),
(121,120,cs),
(121,161,o),
(185,204,o),
(285,211,c),
(285,176,o),
(291,146,o),
(301,119,c),
(288,96,o),
(220,44,o),
(178,36,c)
);
}
);
width = 704;
}
);
unicode = 230;
},
{
glyphname = aeacute;
lastChange = "2022-05-26 15:06:01 +0000";
layers = (
{
background = {
shapes = (
{
closed = 1;
nodes = (
(146,464,o),
(71,429,o),
(50,412,c),
(59,387,l),
(112,404,o),
(155,411,o),
(189,411,cs),
(254,411,o),
(285,383,o),
(285,328,cs),
(285,236,l),
(194,230,o),
(33,199,o),
(33,94,cs),
(33,27,o),
(85,-11,o),
(140,-11,cs),
(194,-11,o),
(269,40,o),
(317,84,c),
(355,22,o),
(422,-11,o),
(502,-11,cs),
(563,-11,o),
(617,12,o),
(659,36,c),
(659,71,l),
(626,56,o),
(587,44,o),
(535,44,cs),
(458,44,o),
(383,81,o),
(367,200,c),
(367,247,l),
(683,247,l),
(683,390,o),
(605,464,o),
(512,464,cs),
(452,464,o),
(394,441,o),
(352,398,c),
(335,434,o),
(297,464,o),
(216,464,cs,{
name = hr00;
})
);
},
{
closed = 1;
nodes = (
(502,417,o),
(593,397,o),
(602,277,c),
(368,277,l),
(379,343,o),
(415,395,o),
(461,417,c)
);
},
{
closed = 1;
nodes = (
(146,47,o),
(121,78,o),
(121,120,cs),
(121,161,o),
(185,204,o),
(285,211,c),
(285,176,o),
(291,146,o),
(301,119,c),
(288,96,o),
(220,44,o),
(178,36,c)
);
},
{
closed = 1;
nodes = (
(326,507,l),
(514,645,l),
(458,695,l),
(286,507,l,{
name = hr00;
})
);
}
);
};
layerId = master01;
shapes = (
{
ref = ae;
},
{
pos = (145,0);
ref = acutecomb;
}
);
width = 704;
}
);
unicode = 509;
},
{
glyphname = b;
lastChange = "2022-05-26 15:05:57 +0000";
layers = (
{
anchors = (
{
name = bottom;
pos = (250,0);
},
{
name = center;
pos = (250,226);
},
{
name = top;
pos = (250,452);
}
);
background = {
shapes = (
{
closed = 1;
nodes = (
(69,683,l),
(69,26,l),
(118,-1,o),
(169,-13,o),
(218,-13,cs),
(352,-13,o),
(467,81,o),
(467,229,cs),
(467,385,o),
(387,462,o),
(299,462,cs),
(249,462,o),
(196,438,o),
(153,389,c),
(153,683,l,{
name = hr00;
})
);
},
{
closed = 1;
nodes = (
(324,390,o),
(381,332,o),
(381,218,cs),
(381,115,o),
(337,29,o),
(253,29,cs),
(211,29,o),
(170,47,o),
(153,56,c),
(153,342,ls),
(153,352,o),
(205,404,o),
(265,409,c)
);
}
);
};
layerId = master01;
shapes = (
{
closed = 1;
nodes = (
(69,683,l),
(69,26,l),
(118,-1,o),
(169,-13,o),
(218,-13,cs),
(352,-13,o),
(467,81,o),
(467,229,cs),
(467,385,o),
(387,462,o),
(299,462,cs),
(249,462,o),
(196,438,o),
(153,389,c),
(153,683,l,{
name = hr00;
})
);
},
{
closed = 1;
nodes = (
(324,390,o),
(381,332,o),
(381,218,cs),
(381,115,o),
(337,29,o),
(253,29,cs),
(211,29,o),
(170,47,o),
(153,56,c),
(153,342,ls),
(153,352,o),
(205,404,o),
(265,409,c)
);
}
);
width = 500;
}
);
unicode = 98;
},
{
glyphname = c;
lastChange = "2022-05-26 15:05:57 +0000";
layers = (
{
anchors = (
{
name = bottom;
pos = (203,0);
},
{
name = top;
pos = (203,452);
}
);
background = {
shapes = (
{
closed = 1;
nodes = (
(340,55,o),
(305,43,o),
(258,43,cs),
(173,43,o),
(104,117,o),
(104,220,cs),
(104,279,o),
(125,379,o),
(202,418,c),
(235,418,o),
(290,405,o),
(353,372,c),
(363,438,l),
(340,447,o),
(288,464,o),
(244,464,cs),
(119,464,o),
(26,365,o),
(26,212,cs),
(26,67,o),
(116,-12,o),
(228,-12,cs),
(284,-12,o),
(332,11,o),
(369,35,c),
(369,70,l,{
name = hr00;
})
);
}
);
};
layerId = master01;
shapes = (
{
closed = 1;
nodes = (
(340,55,o),
(305,43,o),
(258,43,cs),
(173,43,o),
(104,117,o),
(104,220,cs),
(104,279,o),
(125,379,o),
(202,418,c),
(235,418,o),
(290,405,o),
(353,372,c),
(363,438,l),
(340,447,o),
(288,464,o),
(244,464,cs),
(119,464,o),
(26,365,o),
(26,212,cs),
(26,67,o),
(116,-12,o),
(228,-12,cs),
(284,-12,o),
(332,11,o),
(369,35,c),
(369,70,l,{
name = hr00;
})
);
}
);
width = 406;
}
);
unicode = 99;
},
{
glyphname = cacute;
lastChange = "2022-05-26 15:06:01 +0000";
layers = (
{
background = {
shapes = (
{
closed = 1;
nodes = (
(340,55,o),
(305,43,o),
(258,43,cs),
(173,43,o),
(104,117,o),
(104,220,cs),
(104,279,o),
(125,379,o),
(202,418,c),
(235,418,o),
(290,405,o),
(353,372,c),
(363,438,l),
(340,447,o),
(288,464,o),
(244,464,cs),
(119,464,o),
(26,365,o),
(26,212,cs),
(26,67,o),
(116,-12,o),
(228,-12,cs),
(284,-12,o),
(332,11,o),
(369,35,c),
(369,70,l,{
name = hr00;
})
);
},
{
closed = 1;
nodes = (
(176,507,l),
(364,645,l),
(308,695,l),
(136,507,l,{
name = hr00;
})
);
}
);
};
layerId = master01;
shapes = (
{
ref = c;
},
{
pos = (-4,0);
ref = acutecomb;
}
);
width = 406;
}
);
unicode = 263;
},
{
glyphname = ccaron;
lastChange = "2022-05-26 15:06:01 +0000";
layers = (
{
background = {
shapes = (
{
closed = 1;
nodes = (
(340,55,o),
(305,43,o),
(258,43,cs),
(173,43,o),
(104,117,o),
(104,220,cs),
(104,279,o),
(125,379,o),
(202,418,c),
(235,418,o),
(290,405,o),
(353,372,c),
(363,438,l),
(340,447,o),
(288,464,o),
(244,464,cs),
(119,464,o),
(26,365,o),
(26,212,cs),
(26,67,o),
(116,-12,o),
(228,-12,cs),
(284,-12,o),
(332,11,o),
(369,35,c),
(369,70,l,{
name = hr00;
})
);
},
{
closed = 1;
nodes = (
(209,506,l),
(257,506,l),
(382,673,l),
(342,673,l),
(233,580,l),
(123,673,l),
(83,673,l,{
name = hr00;
})
);
}
);
};
layerId = master01;
shapes = (
{
ref = c;
},
{
pos = (37,0);
ref = caroncomb;
}
);
width = 406;
}
);
unicode = 269;
},
{
glyphname = ccedilla;
lastChange = "2022-05-26 15:06:01 +0000";
layers = (
{
background = {
shapes = (
{
closed = 1;
nodes = (
(340,55,o),
(305,43,o),
(258,43,cs),
(173,43,o),
(104,117,o),
(104,220,cs),
(104,279,o),
(125,379,o),
(202,418,c),
(235,418,o),
(290,405,o),
(353,372,c),
(363,438,l),
(340,447,o),
(288,464,o),
(244,464,cs),
(119,464,o),
(26,365,o),
(26,212,cs),
(26,67,o),
(116,-12,o),
(228,-12,cs),
(284,-12,o),
(332,11,o),
(369,35,c),
(369,70,l,{
name = hr00;
})
);
},
{
closed = 1;
nodes = (
(145,-100,l),
(183,-100,o),
(216,-110,o),
(232,-141,c),
(232,-163,o),
(206,-180,o),
(174,-180,cs),
(166,-180,o),
(129,-175,o),
(112,-168,c),
(98,-199,l),
(120,-208,o),
(160,-215,o),
(186,-215,cs),
(253,-215,o),
(307,-178,o),
(307,-132,c),
(284,-88,o),
(236,-65,o),
(195,-65,c),
(220,0,l),
(185,0,l,{
name = hr00;
})
);
}
);
};
layerId = master01;
shapes = (
{
ref = c;
},
{
pos = (46,0);
ref = cedillacomb;
}
);
width = 406;
}
);
unicode = 231;
},
{
glyphname = ccircumflex;
lastChange = "2022-05-26 15:06:01 +0000";
layers = (
{
background = {
shapes = (
{
closed = 1;
nodes = (
(340,55,o),
(305,43,o),
(258,43,cs),
(173,43,o),
(104,117,o),
(104,220,cs),
(104,279,o),
(125,379,o),
(202,418,c),
(235,418,o),
(290,405,o),
(353,372,c),
(363,438,l),
(340,447,o),
(288,464,o),
(244,464,cs),
(119,464,o),
(26,365,o),
(26,212,cs),
(26,67,o),
(116,-12,o),
(228,-12,cs),
(284,-12,o),
(332,11,o),
(369,35,c),
(369,70,l,{
name = hr00;
})
);
},
{
closed = 1;
nodes = (
(256,674,l),
(208,674,l),
(83,507,l),
(123,507,l),
(232,600,l),
(342,507,l),
(382,507,l,{
name = hr00;
})
);
}
);
};
layerId = master01;
shapes = (
{
ref = c;
},
{
pos = (36,0);
ref = circumflexcomb;
}
);
width = 406;
}
);
unicode = 265;
},
{
glyphname = cdotaccent;
lastChange = "2022-05-26 15:06:01 +0000";
layers = (
{
background = {
shapes = (
{
closed = 1;
nodes = (
(340,55,o),
(305,43,o),
(258,43,cs),
(173,43,o),
(104,117,o),
(104,220,cs),
(104,279,o),
(125,379,o),
(202,418,c),
(235,418,o),
(290,405,o),
(353,372,c),
(363,438,l),
(340,447,o),
(288,464,o),
(244,464,cs),
(119,464,o),
(26,365,o),
(26,212,cs),
(26,67,o),
(116,-12,o),
(228,-12,cs),
(284,-12,o),
(332,11,o),
(369,35,c),
(369,70,l,{
name = hr00;
})
);
},
{
closed = 1;
nodes = (
(203,645,o),
(181,622,o),
(181,593,cs),
(181,566,o),
(203,541,o),
(232,541,cs),
(260,541,o),
(284,566,o),
(284,593,cs),
(284,622,o),
(260,645,o),
(232,645,cs,{
name = hr00;
})
);
}
);
};
layerId = master01;
shapes = (
{
ref = c;
},
{
pos = (86,0);
ref = dotaccentcomb;
}
);
width = 406;
}
);
unicode = 267;
},
{
glyphname = d;
lastChange = "2022-05-26 15:05:57 +0000";
layers = (
{
anchors = (
{
name = bottom;
pos = (250,0);
},
{
name = center;
pos = (250,226);
},
{
name = top;
pos = (250,928);
},
{
name = topright;
pos = (480,928);
}
);
background = {
shapes = (
{
closed = 1;
nodes = (
(339,683,l),
(339,417,l),
(288,449,o),
(243,463,o),
(204,463,cs),
(84,463,o),
(26,332,o),
(26,227,cs),
(26,26,o),
(137,-12,o),
(196,-12,cs),
(255,-12,o),
(293,14,o),
(342,60,c),
(424,-13,l,{
name = hr01;
}),
(475,24,l),
(459,37,o),
(424,65,o),
(424,134,c),
(424,683,l)
);
},
{
closed = 1;
nodes = (
(156,45,o),
(114,110,o),
(114,223,cs),
(114,330,o),
(162,415,o),
(242,415,cs),
(270,415,o),
(303,404,o),
(339,380,c),
(339,101,ls),
(339,87,o),
(280,39,o),
(203,33,c,{
name = hr02;
})
);
}
);
};
layerId = master01;
shapes = (
{
closed = 1;
nodes = (
(339,683,l),
(339,417,l),
(288,449,o),
(243,463,o),
(204,463,cs),
(84,463,o),
(26,332,o),
(26,227,cs),
(26,26,o),
(137,-12,o),
(196,-12,cs),
(255,-12,o),
(293,14,o),
(342,60,c),
(424,-13,l,{
name = hr01;
}),
(475,24,l),
(459,37,o),
(424,65,o),
(424,134,c),
(424,683,l)
);
},
{
closed = 1;
nodes = (
(156,45,o),
(114,110,o),
(114,223,cs),
(114,330,o),
(162,415,o),
(242,415,cs),
(270,415,o),
(303,404,o),
(339,380,c),
(339,101,ls),
(339,87,o),
(280,39,o),
(203,33,c,{
name = hr02;
})
);
}
);
width = 500;
}
);
unicode = 100;
},
{
glyphname = eth;
lastChange = "2022-05-26 15:05:57 +0000";
layers = (
{
anchors = (
{
name = bottom;
pos = (250,0);
},
{
name = top;
pos = (250,928);
}
);
background = {
shapes = (
{
closed = 1;
nodes = (
(374,681,l),
(282,630,l),
(242,656,o),
(196,674,o),
(144,683,c),
(132,653,l),
(172,644,o),
(208,629,o),
(240,607,c),
(147,557,l),
(191,535,l),
(274,580,l),
(321,535,o),
(354,475,o),
(366,405,c),
(362,402,l),
(341,429,o),
(305,464,o),
(238,464,cs),
(170,464,o),
(27,402,o),
(27,213,cs),
(27,68,o),
(117,-12,o),
(229,-12,cs),
(342,-12,o),
(471,60,o),
(471,249,cs),
(471,386,o),
(420,520,o),
(319,604,c),
(418,658,l,{
name = hr00;
})
);
},
{
closed = 1;
nodes = (
(154,22,o),
(118,117,o),
(118,224,cs),
(118,311,o),
(154,395,o),
(234,426,c),
(344,426,o),
(379,333,o),
(379,224,cs),
(379,137,o),
(342,22,o),
(248,22,c)
);
}
);
};
layerId = master01;
shapes = (
{
closed = 1;
nodes = (
(374,681,l),
(282,630,l),
(242,656,o),
(196,674,o),
(144,683,c),
(132,653,l),
(172,644,o),
(208,629,o),
(240,607,c),
(147,557,l),
(191,535,l),
(274,580,l),
(321,535,o),
(354,475,o),
(366,405,c),
(362,402,l),
(341,429,o),
(305,464,o),
(238,464,cs),
(170,464,o),
(27,402,o),
(27,213,cs),
(27,68,o),
(117,-12,o),
(229,-12,cs),
(342,-12,o),
(471,60,o),
(471,249,cs),
(471,386,o),
(420,520,o),
(319,604,c),
(418,658,l,{
name = hr00;
})
);
},
{
closed = 1;
nodes = (
(154,22,o),
(118,117,o),
(118,224,cs),
(118,311,o),
(154,395,o),
(234,426,c),
(344,426,o),
(379,333,o),
(379,224,cs),
(379,137,o),
(342,22,o),
(248,22,c)
);
}
);
width = 500;
}
);
unicode = 240;
},
{
glyphname = dcaron;
lastChange = "2022-05-26 15:06:01 +0000";
layers = (
{
background = {
shapes = (
{
closed = 1;
nodes = (
(339,683,l),
(339,417,l),
(288,449,o),
(243,463,o),
(204,463,cs),
(84,463,o),
(26,332,o),
(26,227,cs),
(26,26,o),
(137,-12,o),
(196,-12,cs),
(255,-12,o),
(293,14,o),
(342,60,c),
(424,-13,l,{
name = hr01;
}),
(475,24,l),
(459,37,o),
(424,65,o),
(424,134,c),
(424,683,l)
);
},
{
closed = 1;
nodes = (
(156,45,o),
(114,110,o),
(114,223,cs),
(114,330,o),
(162,415,o),
(242,415,cs),
(270,415,o),
(303,404,o),
(339,380,c),
(339,101,ls),
(339,87,o),
(280,39,o),
(203,33,c,{
name = hr02;
})
);
},
{
closed = 1;
nodes = (
(534,714,o),
(487,689,o),
(468,661,c),
(468,625,o),
(502,606,o),
(530,606,c),
(530,563,o),
(502,518,o),
(463,487,c),
(475,468,l),
(536,502,o),
(587,555,o),
(587,638,cs),
(587,662,o),
(583,689,o),
(573,718,c,{
name = hr00;
})
);
}
);
};
layerId = master01;
shapes = (
{
ref = d;
},
{
pos = (84,476);
ref = caroncomb;
}
);
width = 500;
}
);
unicode = 271;
},
{
glyphname = dcroat;
lastChange = "2022-05-26 14:56:42 +0000";
layers = (
{
background = {
shapes = (
{
closed = 1;
nodes = (
(339,683,l),
(339,417,l),
(288,449,o),
(243,463,o),
(204,463,cs),
(84,463,o),
(26,332,o),
(26,227,cs),
(26,26,o),
(137,-12,o),
(196,-12,cs),
(255,-12,o),
(293,14,o),
(342,60,c),
(424,-13,l,{
name = hr01;
}),
(475,24,l),
(459,37,o),
(424,65,o),
(424,134,c),
(424,683,l)
);
},
{
closed = 1;
nodes = (
(156,45,o),
(114,110,o),
(114,223,cs),
(114,330,o),
(162,415,o),
(242,415,cs),
(270,415,o),
(303,404,o),
(339,380,c),
(339,101,ls),
(339,87,o),
(280,39,o),
(203,33,c,{
name = hr02;
})
);
},
{
closed = 1;
nodes = (
(183,599,l),
(183,550,l),
(495,550,l),
(495,599,l,{
name = hr00;
})
);
}
);
};
layerId = master01;
shapes = (
{
alignment = -1;
ref = d;
},
{
alignment = -1;
pos = (183,225);
ref = ethbar;
scale = (0.8,1);
}
);
width = 500;
}
);
unicode = 273;
},
{
glyphname = e;
lastChange = "2022-05-26 15:05:57 +0000";
layers = (
{
anchors = (
{
name = bottom;
pos = (235,0);
},
{
name = ogonek;
pos = (422,10);
},
{
name = top;
pos = (235,452);
}
);
background = {
shapes = (
{
closed = 1;
nodes = (
(424,389,o),
(346,464,o),
(253,464,cs),
(135,464,o),
(26,377,o),
(26,212,cs),
(26,67,o),
(118,-12,o),
(243,-12,cs),
(304,-12,o),
(358,11,o),
(400,35,c),
(400,70,l),
(367,55,o),
(328,43,o),
(276,43,cs),
(189,43,o),
(105,90,o),
(105,246,cs),
(424,246,l,{
name = hr00;
})
);
},
{
closed = 1;
nodes = (
(243,417,o),
(334,396,o),
(343,276,c),
(109,276,l),
(120,342,o),
(156,395,o),
(202,417,c)
);
}
);
};
layerId = master01;
shapes = (
{
closed = 1;
nodes = (
(424,389,o),
(346,464,o),
(253,464,cs),
(135,464,o),
(26,377,o),
(26,212,cs),
(26,67,o),
(118,-12,o),
(243,-12,cs),
(304,-12,o),
(358,11,o),
(400,35,c),
(400,70,l),
(367,55,o),
(328,43,o),
(276,43,cs),
(189,43,o),
(105,90,o),
(105,246,cs),
(424,246,l,{
name = hr00;
})
);
},
{
closed = 1;
nodes = (
(243,417,o),
(334,396,o),
(343,276,c),
(109,276,l),
(120,342,o),
(156,395,o),
(202,417,c)
);
}
);
width = 469;
}
);
unicode = 101;
},
{
glyphname = eacute;
lastChange = "2022-05-26 15:06:01 +0000";
layers = (
{
background = {
shapes = (
{
closed = 1;
nodes = (
(424,389,o),
(346,464,o),
(253,464,cs),
(135,464,o),
(26,377,o),
(26,212,cs),
(26,67,o),
(118,-12,o),
(243,-12,cs),
(304,-12,o),
(358,11,o),
(400,35,c),
(400,70,l),
(367,55,o),
(328,43,o),
(276,43,cs),
(189,43,o),
(105,90,o),
(105,246,cs),
(424,246,l,{
name = hr00;
})
);
},
{
closed = 1;
nodes = (
(243,417,o),
(334,396,o),
(343,276,c),
(109,276,l),
(120,342,o),
(156,395,o),
(202,417,c)
);
},
{
closed = 1;
nodes = (
(178,507,l),
(366,645,l),
(310,695,l),
(138,507,l,{
name = hr00;
})
);
}
);
};
layerId = master01;
shapes = (
{
ref = e;
},
{
pos = (28,0);
ref = acutecomb;
}
);
width = 469;
}
);
unicode = 233;
},
{
glyphname = ebreve;
lastChange = "2022-05-26 15:06:01 +0000";
layers = (
{
background = {
shapes = (
{
closed = 1;
nodes = (
(424,389,o),
(346,464,o),
(253,464,cs),
(135,464,o),
(26,377,o),
(26,212,cs),
(26,67,o),
(118,-12,o),
(243,-12,cs),
(304,-12,o),
(358,11,o),
(400,35,c),
(400,70,l),
(367,55,o),
(328,43,o),
(276,43,cs),
(189,43,o),
(105,90,o),
(105,246,cs),
(424,246,l,{
name = hr00;
})
);
},
{
closed = 1;
nodes = (
(243,417,o),
(334,396,o),
(343,276,c),
(109,276,l),
(120,342,o),
(156,395,o),
(202,417,c)
);
},
{
closed = 1;
nodes = (
(327,614,o),
(310,567,o),
(234,567,cs),
(170,567,o),
(133,603,o),
(123,664,c),
(94,664,l),
(94,659,ls),
(94,554,o),
(161,507,o),
(232,507,cs),
(360,507,o),
(372,633,o),
(375,664,c),
(346,664,l,{
name = hr00;
})
);
}
);
};
layerId = master01;
shapes = (
{
ref = e;
},
{
pos = (68,0);
ref = brevecomb;
}
);
width = 469;
}
);
unicode = 277;
},
{
glyphname = ecaron;
lastChange = "2022-05-26 15:06:01 +0000";
layers = (
{
background = {
shapes = (
{
closed = 1;
nodes = (
(424,389,o),
(346,464,o),
(253,464,cs),
(135,464,o),
(26,377,o),
(26,212,cs),
(26,67,o),
(118,-12,o),
(243,-12,cs),
(304,-12,o),
(358,11,o),
(400,35,c),
(400,70,l),
(367,55,o),
(328,43,o),
(276,43,cs),
(189,43,o),
(105,90,o),
(105,246,cs),
(424,246,l,{
name = hr00;
})
);
},
{
closed = 1;
nodes = (
(243,417,o),
(334,396,o),
(343,276,c),
(109,276,l),
(120,342,o),
(156,395,o),
(202,417,c)
);
},
{
closed = 1;
nodes = (
(211,506,l),
(259,506,l),
(384,673,l),
(344,673,l),
(235,580,l),
(125,673,l),
(85,673,l,{
name = hr00;
})
);
}
);
};
layerId = master01;
shapes = (
{
ref = e;
},
{
pos = (69,0);
ref = caroncomb;
}
);
width = 469;
}
);
unicode = 283;
},
{
glyphname = ecircumflex;
lastChange = "2022-05-26 15:06:01 +0000";
layers = (
{
background = {
shapes = (
{
closed = 1;
nodes = (
(424,389,o),
(346,464,o),
(253,464,cs),
(135,464,o),
(26,377,o),
(26,212,cs),
(26,67,o),
(118,-12,o),
(243,-12,cs),
(304,-12,o),
(358,11,o),
(400,35,c),
(400,70,l),
(367,55,o),
(328,43,o),
(276,43,cs),
(189,43,o),
(105,90,o),
(105,246,cs),
(424,246,l,{
name = hr00;
})
);
},
{
closed = 1;
nodes = (
(243,417,o),
(334,396,o),
(343,276,c),
(109,276,l),
(120,342,o),
(156,395,o),
(202,417,c)
);
},
{
closed = 1;
nodes = (
(258,674,l),
(210,674,l),
(85,507,l),
(125,507,l),
(234,600,l),
(344,507,l),
(384,507,l,{
name = hr00;
})
);
}
);
};
layerId = master01;
shapes = (
{
ref = e;
},
{
pos = (68,0);
ref = circumflexcomb;
}
);
width = 469;
}
);
unicode = 234;
},
{
glyphname = edieresis;
lastChange = "2022-05-26 15:06:01 +0000";
layers = (
{
background = {
shapes = (
{
closed = 1;
nodes = (
(424,389,o),
(346,464,o),
(253,464,cs),
(135,464,o),
(26,377,o),
(26,212,cs),
(26,67,o),
(118,-12,o),
(243,-12,cs),
(304,-12,o),
(358,11,o),
(400,35,c),
(400,70,l),
(367,55,o),
(328,43,o),
(276,43,cs),
(189,43,o),
(105,90,o),
(105,246,cs),
(424,246,l,{
name = hr00;
})
);
},
{
closed = 1;
nodes = (
(243,417,o),
(334,396,o),
(343,276,c),
(109,276,l),
(120,342,o),
(156,395,o),
(202,417,c)
);
},
{
closed = 1;
nodes = (
(283,563,o),
(305,541,o),
(333,541,cs),
(361,541,o),
(383,563,o),
(383,591,cs),
(383,619,o),
(361,641,o),
(333,641,cs),
(305,641,o),
(283,619,o),
(283,591,c,{
name = hr00;
})
);
},
{
closed = 1;
nodes = (
(86,563,o),
(108,541,o),
(136,541,cs),
(164,541,o),
(186,563,o),
(186,591,cs),
(186,619,o),
(164,641,o),
(136,641,cs),
(108,641,o),
(86,619,o),
(86,591,cs)
);
}
);
};
layerId = master01;
shapes = (
{
ref = e;
},
{
pos = (68,0);
ref = dieresiscomb;
}
);
width = 469;
}
);
unicode = 235;
},
{
glyphname = edotaccent;
lastChange = "2022-05-26 15:06:01 +0000";
layers = (
{
background = {
shapes = (
{
closed = 1;
nodes = (
(424,389,o),
(346,464,o),
(253,464,cs),
(135,464,o),
(26,377,o),
(26,212,cs),
(26,67,o),
(118,-12,o),
(243,-12,cs),
(304,-12,o),
(358,11,o),
(400,35,c),
(400,70,l),
(367,55,o),
(328,43,o),
(276,43,cs),
(189,43,o),
(105,90,o),
(105,246,cs),
(424,246,l,{
name = hr00;
})
);
},
{
closed = 1;
nodes = (
(243,417,o),
(334,396,o),
(343,276,c),
(109,276,l),
(120,342,o),
(156,395,o),
(202,417,c)
);
},
{
closed = 1;
nodes = (
(205,645,o),
(183,622,o),
(183,593,cs),
(183,566,o),
(205,541,o),
(234,541,cs),
(262,541,o),
(286,566,o),
(286,593,cs),
(286,622,o),
(262,645,o),
(234,645,cs,{
name = hr00;
})
);
}
);
};
layerId = master01;
shapes = (
{
ref = e;
},
{
pos = (118,0);
ref = dotaccentcomb;
}
);
width = 469;
}
);
unicode = 279;
},
{
glyphname = egrave;
lastChange = "2022-05-26 15:06:01 +0000";
layers = (
{
background = {
shapes = (
{
closed = 1;
nodes = (
(424,389,o),
(346,464,o),
(253,464,cs),
(135,464,o),
(26,377,o),
(26,212,cs),
(26,67,o),
(118,-12,o),
(243,-12,cs),
(304,-12,o),
(358,11,o),
(400,35,c),
(400,70,l),
(367,55,o),
(328,43,o),
(276,43,cs),
(189,43,o),
(105,90,o),
(105,246,cs),
(424,246,l,{
name = hr00;
})
);
},
{
closed = 1;
nodes = (
(243,417,o),
(334,396,o),
(343,276,c),
(109,276,l),
(120,342,o),
(156,395,o),
(202,417,c)
);
},
{
closed = 1;
nodes = (
(309,507,l),
(121,645,l),
(177,695,l),
(349,507,l,{
name = hr00;
})
);
}
);
};
layerId = master01;
shapes = (
{
ref = e;
},
{
pos = (107,0);
ref = gravecomb;
}
);
width = 469;
}
);
unicode = 232;
},
{
glyphname = emacron;
lastChange = "2022-05-26 15:06:01 +0000";
layers = (
{
background = {
shapes = (
{
closed = 1;
nodes = (
(424,389,o),
(346,464,o),
(253,464,cs),
(135,464,o),
(26,377,o),
(26,212,cs),
(26,67,o),
(118,-12,o),
(243,-12,cs),
(304,-12,o),
(358,11,o),
(400,35,c),
(400,70,l),
(367,55,o),
(328,43,o),
(276,43,cs),
(189,43,o),
(105,90,o),
(105,246,cs),
(424,246,l,{
name = hr00;
})
);
},
{
closed = 1;
nodes = (
(243,417,o),
(334,396,o),
(343,276,c),
(109,276,l),
(120,342,o),
(156,395,o),
(202,417,c)
);
},
{
closed = 1;
nodes = (
(79,601,l),
(79,547,l),
(390,547,l),
(390,601,l,{
name = hr00;
})
);
}
);
};
layerId = master01;
shapes = (
{
ref = e;
},
{
pos = (68,0);
ref = macroncomb;
}
);
width = 469;
}
);
unicode = 275;
},
{
glyphname = eogonek;
lastChange = "2022-05-26 15:06:01 +0000";
layers = (
{
anchors = (
{
name = top;
pos = (235,452);
}
);
background = {
shapes = (
{
closed = 1;
nodes = (
(424,389,o),
(346,464,o),
(253,464,cs),
(135,464,o),
(26,377,o),
(26,212,cs),
(26,67,o),
(118,-12,o),
(243,-12,cs),
(304,-12,o),
(358,11,o),
(400,35,c),
(400,70,l),
(367,55,o),
(328,43,o),
(276,43,cs),
(189,43,o),
(105,90,o),
(105,246,cs),
(424,246,l,{
name = hr00;
})
);
},
{
closed = 1;
nodes = (
(243,417,o),
(334,396,o),
(343,276,c),
(109,276,l),
(120,342,o),
(156,395,o),
(202,417,c)
);
},
{
closed = 1;
nodes = (
(245,-20,o),
(220,-54,o),
(220,-97,cs),
(220,-135,o),
(255,-165,o),
(299,-165,cs),
(343,-165,o),
(388,-127,o),
(401,-80,c),
(385,-73,l),
(374,-97,o),
(344,-116,o),
(319,-116,cs),
(294,-116,o),
(274,-103,o),
(274,-75,cs),
(274,-41,o),
(296,-19,o),
(320,0,c),
(276,0,l,{
name = hr00;
})
);
}
);
};
layerId = master01;
shapes = (
{
ref = e;
},
{
pos = (179,10);
ref = ogonekcomb;
}
);
width = 469;
}
);
unicode = 281;
},
{
glyphname = f;
lastChange = "2022-05-26 15:05:57 +0000";
layers = (
{
anchors = (
{
name = bottom;
pos = (167,0);
},
{
name = top;
pos = (167,928);
}
);
background = {
shapes = (
{
closed = 1;
nodes = (
(277,645,o),
(332,631,o),
(363,615,c),
(373,680,l),
(349,686,o),
(321,692,o),
(297,692,cs),
(179,692,o),
(112,588,o),
(104,452,c),
(21,452,l),
(21,432,l),
(103,416,l),
(103,0,l),
(187,0,l),
(187,416,l),
(308,416,l),
(308,452,l),
(187,452,l),
(189,505,o),
(203,619,o),
(254,645,c,{
name = hr00;
})
);
}
);
};
layerId = master01;
shapes = (
{
closed = 1;
nodes = (
(277,645,o),
(332,631,o),
(363,615,c),
(373,680,l),
(349,686,o),
(321,692,o),
(297,692,cs),
(179,692,o),
(112,588,o),
(104,452,c),
(21,452,l),
(21,432,l),
(103,416,l),
(103,0,l),
(187,0,l),
(187,416,l),
(308,416,l),
(308,452,l),
(187,452,l),
(189,505,o),
(203,619,o),
(254,645,c,{
name = hr00;
})
);
}
);
width = 333;
}
);
unicode = 102;
},
{
glyphname = g;
lastChange = "2022-05-26 15:05:57 +0000";
layers = (
{
anchors = (
{
name = bottom;
pos = (245,-224);
},
{
name = top;
pos = (245,452);
}
);
background = {
shapes = (
{
closed = 1;
nodes = (
(175,57,o),
(132,62,o),
(132,91,cs),
(132,117,o),
(167,142,o),
(186,148,c),
(195,147,o),
(204,146,o),
(214,146,cs),
(292,146,o),
(398,187,o),
(398,312,cs),
(398,342,o),
(391,367,o),
(379,388,c),
(441,419,l),
(421,462,l),
(333,437,l),
(308,452,o),
(273,464,o),
(239,464,cs),
(161,464,o),
(59,419,o),
(59,295,cs),
(59,231,o),
(90,187,o),
(134,164,c),
(92,132,o),
(62,97,o),
(62,64,cs),
(62,30,o),
(79,10,o),
(108,-1,c),
(45,-29,o),
(26,-73,o),
(26,-112,cs,{
name = hr01;
}),
(26,-186,o),
(102,-222,o),
(199,-222,cs),
(344,-222,o),
(449,-124,o),
(449,-29,cs),
(449,42,o),
(372,57,o),
(253,57,c)
);
},
{
closed = 1;
nodes = (
(277,431,o),
(319,371,o),
(319,302,cs),
(319,220,o),
(288,177,o),
(227,177,cs),
(176,177,o),
(135,233,o),
(135,302,cs,{
name = hr02;
}),
(135,379,o),
(167,431,o),
(227,431,c)
);
},
{
closed = 1;
nodes = (
(134,-176,o),
(101,-140,o),
(101,-95,cs,{
name = hr03;
}),
(101,-60,o),
(126,-27,o),
(145,-11,c),
(174,-16,o),
(211,-17,o),
(254,-17,cs),
(299,-17,o),
(373,-21,o),
(414,-38,c),
(414,-93,o),
(334,-176,o),
(215,-176,c)
);
}
);
};
layerId = master01;
shapes = (
{
closed = 1;
nodes = (
(175,57,o),
(132,62,o),
(132,91,cs),
(132,117,o),
(167,142,o),
(186,148,c),
(195,147,o),
(204,146,o),
(214,146,cs),
(292,146,o),
(398,187,o),
(398,312,cs),
(398,342,o),
(391,367,o),
(379,388,c),
(441,419,l),
(421,462,l),
(333,437,l),
(308,452,o),
(273,464,o),
(239,464,cs),
(161,464,o),
(59,419,o),
(59,295,cs),
(59,231,o),
(90,187,o),
(134,164,c),
(92,132,o),
(62,97,o),
(62,64,cs),
(62,30,o),
(79,10,o),
(108,-1,c),
(45,-29,o),
(26,-73,o),
(26,-112,cs,{
name = hr01;
}),
(26,-186,o),
(102,-222,o),
(199,-222,cs),
(344,-222,o),
(449,-124,o),
(449,-29,cs),
(449,42,o),
(372,57,o),
(253,57,c)
);
},
{
closed = 1;
nodes = (
(277,431,o),
(319,371,o),
(319,302,cs),
(319,220,o),
(288,177,o),
(227,177,cs),
(176,177,o),
(135,233,o),
(135,302,cs,{
name = hr02;
}),
(135,379,o),
(167,431,o),
(227,431,c)
);
},
{
closed = 1;
nodes = (
(134,-176,o),
(101,-140,o),
(101,-95,cs,{
name = hr03;
}),
(101,-60,o),
(126,-27,o),
(145,-11,c),
(174,-16,o),
(211,-17,o),
(254,-17,cs),
(299,-17,o),
(373,-21,o),
(414,-38,c),
(414,-93,o),
(334,-176,o),
(215,-176,c)
);
}
);
width = 490;
}
);
unicode = 103;
},
{
glyphname = gbreve;
lastChange = "2022-05-26 15:06:01 +0000";
layers = (
{
background = {
shapes = (
{
closed = 1;
nodes = (
(175,57,o),
(132,62,o),
(132,91,cs),
(132,117,o),
(167,142,o),
(186,148,c),
(195,147,o),
(204,146,o),
(214,146,cs),
(292,146,o),
(398,187,o),
(398,312,cs),
(398,342,o),
(391,367,o),
(379,388,c),
(441,419,l),
(421,462,l),
(333,437,l),
(308,452,o),
(273,464,o),
(239,464,cs),
(161,464,o),
(59,419,o),
(59,295,cs),
(59,231,o),
(90,187,o),
(134,164,c),
(92,132,o),
(62,97,o),
(62,64,cs),
(62,30,o),
(79,10,o),
(108,-1,c),
(45,-29,o),
(26,-73,o),
(26,-112,cs,{
name = hr01;
}),
(26,-186,o),
(102,-222,o),
(199,-222,cs),
(344,-222,o),
(449,-124,o),
(449,-29,cs),
(449,42,o),
(372,57,o),
(253,57,c)
);
},
{
closed = 1;
nodes = (
(277,431,o),
(319,371,o),
(319,302,cs),
(319,220,o),
(288,177,o),
(227,177,cs),
(176,177,o),
(135,233,o),
(135,302,cs,{
name = hr02;
}),
(135,379,o),
(167,431,o),
(227,431,c)
);
},
{
closed = 1;
nodes = (
(134,-176,o),
(101,-140,o),
(101,-95,cs,{
name = hr03;
}),
(101,-60,o),
(126,-27,o),
(145,-11,c),
(174,-16,o),
(211,-17,o),
(254,-17,cs),
(299,-17,o),
(373,-21,o),
(414,-38,c),
(414,-93,o),
(334,-176,o),
(215,-176,c)
);
},
{
closed = 1;
nodes = (
(337,614,o),
(320,567,o),
(244,567,cs),
(180,567,o),
(143,603,o),
(133,664,c),
(104,664,l),
(104,659,ls),
(104,554,o),
(171,507,o),
(242,507,cs),
(370,507,o),
(382,633,o),
(385,664,c),
(356,664,l,{
name = hr00;
})
);
}
);
};
layerId = master01;
shapes = (
{
ref = g;
},
{
pos = (78,0);
ref = brevecomb;
}
);
width = 490;
}
);
unicode = 287;
},
{
glyphname = gcircumflex;
lastChange = "2022-05-26 15:06:01 +0000";
layers = (
{
background = {
shapes = (
{
closed = 1;
nodes = (
(175,57,o),
(132,62,o),
(132,91,cs),
(132,117,o),
(167,142,o),
(186,148,c),
(195,147,o),
(204,146,o),
(214,146,cs),
(292,146,o),
(398,187,o),
(398,312,cs),
(398,342,o),
(391,367,o),
(379,388,c),
(441,419,l),
(421,462,l),
(333,437,l),
(308,452,o),
(273,464,o),
(239,464,cs),
(161,464,o),
(59,419,o),
(59,295,cs),
(59,231,o),
(90,187,o),
(134,164,c),
(92,132,o),
(62,97,o),
(62,64,cs),
(62,30,o),
(79,10,o),
(108,-1,c),
(45,-29,o),
(26,-73,o),
(26,-112,cs,{
name = hr01;
}),
(26,-186,o),
(102,-222,o),
(199,-222,cs),
(344,-222,o),
(449,-124,o),
(449,-29,cs),
(449,42,o),
(372,57,o),
(253,57,c)
);
},
{
closed = 1;
nodes = (
(277,431,o),
(319,371,o),
(319,302,cs),
(319,220,o),
(288,177,o),
(227,177,cs),
(176,177,o),
(135,233,o),
(135,302,cs,{
name = hr02;
}),
(135,379,o),
(167,431,o),
(227,431,c)
);
},
{
closed = 1;
nodes = (
(134,-176,o),
(101,-140,o),
(101,-95,cs,{
name = hr03;
}),
(101,-60,o),
(126,-27,o),
(145,-11,c),
(174,-16,o),
(211,-17,o),
(254,-17,cs),
(299,-17,o),
(373,-21,o),
(414,-38,c),
(414,-93,o),
(334,-176,o),
(215,-176,c)
);
},
{
closed = 1;
nodes = (
(268,674,l),
(220,674,l),
(95,507,l),
(135,507,l),
(244,600,l),
(354,507,l),
(394,507,l,{
name = hr00;
})
);
}
);
};
layerId = master01;
shapes = (
{
ref = g;
},
{
pos = (78,0);
ref = circumflexcomb;
}
);
width = 490;
}
);
unicode = 285;
},
{
glyphname = gcommaaccent;
lastChange = "2022-05-26 15:06:04 +0000";
layers = (
{
background = {
shapes = (
{
closed = 1;
nodes = (
(175,57,o),
(132,62,o),
(132,91,cs),
(132,117,o),
(167,142,o),
(186,148,c),
(195,147,o),
(204,146,o),
(214,146,cs),
(292,146,o),
(398,187,o),
(398,312,cs),
(398,342,o),
(391,367,o),
(379,388,c),
(441,419,l),
(421,462,l),
(333,437,l),
(308,452,o),
(273,464,o),
(239,464,cs),
(161,464,o),
(59,419,o),
(59,295,cs),
(59,231,o),
(90,187,o),
(134,164,c),
(92,132,o),
(62,97,o),
(62,64,cs),
(62,30,o),
(79,10,o),
(108,-1,c),
(45,-29,o),
(26,-73,o),
(26,-112,cs,{
name = hr01;
}),
(26,-186,o),
(102,-222,o),
(199,-222,cs),
(344,-222,o),
(449,-124,o),
(449,-29,cs),
(449,42,o),
(372,57,o),
(253,57,c)
);
},
{
closed = 1;
nodes = (
(277,431,o),
(319,371,o),
(319,302,cs),
(319,220,o),
(288,177,o),
(227,177,cs),
(176,177,o),
(135,233,o),
(135,302,cs,{
name = hr02;
}),
(135,379,o),
(167,431,o),
(227,431,c)
);
},
{
closed = 1;
nodes = (
(134,-176,o),
(101,-140,o),
(101,-95,cs,{
name = hr03;
}),
(101,-60,o),
(126,-27,o),
(145,-11,c),
(174,-16,o),
(211,-17,o),
(254,-17,cs),
(299,-17,o),
(373,-21,o),
(414,-38,c),
(414,-93,o),
(334,-176,o),
(215,-176,c)
);
},
{
closed = 1;
nodes = (
(242,537,o),
(289,562,o),
(308,590,c),
(308,626,o),
(274,645,o),
(246,645,c),
(246,688,o),
(274,733,o),
(313,764,c),
(301,783,l),
(240,749,o),
(189,696,o),
(189,613,cs),
(189,589,o),
(193,562,o),
(203,533,c,{
name = hr00;
})
);
}
);
};
layerId = master01;
shapes = (
{
ref = g;
},
{
angle = 180;
pos = (123,452);
ref = commaaccentcomb;
}
);
width = 490;
}
);
unicode = 291;
},
{
glyphname = gdotaccent;
lastChange = "2022-05-26 15:06:01 +0000";
layers = (
{
background = {
shapes = (
{
closed = 1;
nodes = (
(175,57,o),
(132,62,o),
(132,91,cs),
(132,117,o),
(167,142,o),
(186,148,c),
(195,147,o),
(204,146,o),
(214,146,cs),
(292,146,o),
(398,187,o),
(398,312,cs),
(398,342,o),
(391,367,o),
(379,388,c),
(441,419,l),
(421,462,l),
(333,437,l),
(308,452,o),
(273,464,o),
(239,464,cs),
(161,464,o),
(59,419,o),
(59,295,cs),
(59,231,o),
(90,187,o),
(134,164,c),
(92,132,o),
(62,97,o),
(62,64,cs),
(62,30,o),
(79,10,o),
(108,-1,c),
(45,-29,o),
(26,-73,o),
(26,-112,cs,{
name = hr01;
}),
(26,-186,o),
(102,-222,o),
(199,-222,cs),
(344,-222,o),
(449,-124,o),
(449,-29,cs),
(449,42,o),
(372,57,o),
(253,57,c)
);
},
{
closed = 1;
nodes = (
(277,431,o),
(319,371,o),
(319,302,cs),
(319,220,o),
(288,177,o),
(227,177,cs),
(176,177,o),
(135,233,o),
(135,302,cs,{
name = hr02;
}),
(135,379,o),
(167,431,o),
(227,431,c)
);
},
{
closed = 1;
nodes = (
(134,-176,o),
(101,-140,o),
(101,-95,cs,{
name = hr03;
}),
(101,-60,o),
(126,-27,o),
(145,-11,c),
(174,-16,o),
(211,-17,o),
(254,-17,cs),
(299,-17,o),
(373,-21,o),
(414,-38,c),
(414,-93,o),
(334,-176,o),
(215,-176,c)
);
},
{
closed = 1;
nodes = (
(215,645,o),
(193,622,o),
(193,593,cs),
(193,566,o),
(215,541,o),
(244,541,cs),
(272,541,o),
(296,566,o),
(296,593,cs),
(296,622,o),
(272,645,o),
(244,645,cs,{
name = hr00;
})
);
}
);
};
layerId = master01;
shapes = (
{
ref = g;
},
{
pos = (128,0);
ref = dotaccentcomb;
}
);
width = 490;
}
);
unicode = 289;
},
{
glyphname = h;
lastChange = "2022-05-26 15:05:57 +0000";
layers = (
{
anchors = (
{
name = bottom;
pos = (252,0);
},
{
name = center;
pos = (252,464);
},
{
name = top;
pos = (252,928);
}
);
background = {
shapes = (
{
closed = 1;
nodes = (
(255,462,o),
(206,434,o),
(157,388,c),
(157,683,l),
(76,683,l),
(76,0,l),
(160,0,l),
(160,346,l),
(198,383,o),
(240,399,o),
(270,399,cs),
(330,399,o),
(348,363,o),
(348,301,c),
(348,0,l),
(432,0,l),
(432,311,l),
(432,435,o),
(361,462,o),
(314,462,c,{
name = hr00;
})
);
}
);
};
layerId = master01;
shapes = (
{
closed = 1;
nodes = (
(255,462,o),
(206,434,o),
(157,388,c),
(157,683,l),
(76,683,l),
(76,0,l),
(160,0,l),
(160,346,l),
(198,383,o),
(240,399,o),
(270,399,cs),
(330,399,o),
(348,363,o),
(348,301,c),
(348,0,l),
(432,0,l),
(432,311,l),
(432,435,o),
(361,462,o),
(314,462,c,{
name = hr00;
})
);
}
);
width = 503;
}
);
unicode = 104;
},
{
glyphname = hbar;
lastChange = "2022-05-26 14:56:42 +0000";
layers = (
{
background = {
shapes = (
{
closed = 1;
nodes = (
(255,462,o),
(206,434,o),
(157,388,c),
(157,683,l),
(76,683,l),
(76,0,l),
(160,0,l),
(160,346,l),
(198,383,o),
(240,399,o),
(270,399,cs),
(330,399,o),
(348,363,o),
(348,301,c),
(348,0,l),
(432,0,l),
(432,311,l),
(432,435,o),
(361,462,o),
(314,462,c,{
name = hr00;
})
);
},
{
closed = 1;
nodes = (
(1,599,l),
(1,550,l),
(313,550,l),
(313,599,l,{
name = hr00;
})
);
}
);
};
layerId = master01;
shapes = (
{
alignment = -1;
ref = h;
},
{
alignment = -1;
pos = (1,225);
ref = ethbar;
scale = (0.8,1);
}
);
width = 503;
}
);
unicode = 295;
},
{
glyphname = hcircumflex;
lastChange = "2022-05-26 15:06:01 +0000";
layers = (
{
background = {
shapes = (
{
closed = 1;
nodes = (
(255,462,o),
(206,434,o),
(157,388,c),
(157,683,l),
(76,683,l),
(76,0,l),
(160,0,l),
(160,346,l),
(198,383,o),
(240,399,o),
(270,399,cs),
(330,399,o),
(348,363,o),
(348,301,c),
(348,0,l),
(432,0,l),
(432,311,l),
(432,435,o),
(361,462,o),
(314,462,c,{
name = hr00;
})
);
},
{
closed = 1;
nodes = (
(141,884,l),
(93,884,l),
(-32,717,l),
(8,717,l),
(117,810,l),
(227,717,l),
(267,717,l,{
name = hr00;
})
);
}
);
};
layerId = master01;
shapes = (
{
ref = h;
},
{
pos = (85,266);
ref = circumflexcomb.case;
}
);
width = 503;
}
);
unicode = 293;
},
{
glyphname = i;
lastChange = "2022-05-26 15:06:01 +0000";
layers = (
{
anchors = (
{
name = bottom;
pos = (117,0);
}
);
background = {
shapes = (
{
closed = 1;
nodes = (
(75,0,l),
(158,0,l),
(158,452,l),
(75,452,l,{
name = hr00;
})
);
},
{
closed = 1;
nodes = (
(87,645,o),
(65,622,o),
(65,593,cs),
(65,566,o),
(87,541,o),
(116,541,cs),
(144,541,o),
(168,566,o),
(168,593,cs),
(168,622,o),
(144,645,o),
(116,645,cs,{
name = hr00;
})
);
}
);
};
layerId = master01;
shapes = (
{
ref = idotless;
},
{
ref = dotaccentcomb;
}
);
width = 233;
}
);
unicode = 105;
},
{
glyphname = idotless;
lastChange = "2022-05-26 15:05:57 +0000";
layers = (
{
anchors = (
{
name = bottom;
pos = (117,0);
},
{
name = ogonek;
pos = (210,10);
},
{
name = top;
pos = (117,452);
}
);
background = {
shapes = (
{
closed = 1;
nodes = (
(75,0,l),
(158,0,l),
(158,452,l),
(75,452,l,{
name = hr00;
})
);
}
);
};
layerId = master01;
shapes = (
{
closed = 1;
nodes = (
(75,0,l),
(158,0,l),
(158,452,l),
(75,452,l,{
name = hr00;
})
);
}
);
width = 233;
}
);
unicode = 305;
},
{
glyphname = iacute;
lastChange = "2022-05-26 15:06:01 +0000";
layers = (
{
background = {
shapes = (
{
closed = 1;
nodes = (
(75,0,l),
(158,0,l),
(158,452,l),
(75,452,l,{
name = hr00;
})
);
},
{
closed = 1;
nodes = (
(60,507,l),
(248,645,l),
(192,695,l),
(20,507,l,{
name = hr00;
})
);
}
);
};
layerId = master01;
shapes = (
{
ref = idotless;
},
{
pos = (-90,0);
ref = acutecomb;
}
);
width = 233;
}
);
unicode = 237;
},
{
glyphname = ibreve;
lastChange = "2022-05-26 15:06:01 +0000";
layers = (
{
background = {
shapes = (
{
closed = 1;
nodes = (
(75,0,l),
(158,0,l),
(158,452,l),
(75,452,l,{
name = hr00;
})
);
},
{
closed = 1;
nodes = (
(209,614,o),
(192,567,o),
(116,567,cs),
(52,567,o),
(15,603,o),
(5,664,c),
(-24,664,l),
(-24,659,ls),
(-24,554,o),
(43,507,o),
(114,507,cs),
(242,507,o),
(254,633,o),
(257,664,c),
(228,664,l,{
name = hr00;
})
);
}
);
};
layerId = master01;
shapes = (
{
ref = idotless;
},
{
pos = (-50,0);
ref = brevecomb;
}
);
width = 233;
}
);
unicode = 301;
},
{
glyphname = icircumflex;
lastChange = "2022-05-26 15:06:01 +0000";
layers = (
{
background = {
shapes = (
{
closed = 1;
nodes = (
(75,0,l),
(158,0,l),
(158,452,l),
(75,452,l,{
name = hr00;
})
);
},
{
closed = 1;
nodes = (
(140,674,l),
(92,674,l),
(-33,507,l),
(7,507,l),
(116,600,l),
(226,507,l),
(266,507,l,{
name = hr00;
})
);
}
);
};
layerId = master01;
shapes = (
{
ref = idotless;
},
{
pos = (-50,0);
ref = circumflexcomb;
}
);
width = 233;
}
);
unicode = 238;
},
{
glyphname = idieresis;
lastChange = "2022-05-26 15:06:01 +0000";
layers = (
{
background = {
shapes = (
{
closed = 1;
nodes = (
(75,0,l),
(158,0,l),
(158,452,l),
(75,452,l,{
name = hr00;
})
);
},
{
closed = 1;
nodes = (
(165,563,o),
(187,541,o),
(215,541,cs),
(243,541,o),
(265,563,o),
(265,591,cs),
(265,619,o),
(243,641,o),
(215,641,cs),
(187,641,o),
(165,619,o),
(165,591,c,{
name = hr00;
})
);
},
{
closed = 1;
nodes = (
(-32,563,o),
(-10,541,o),
(18,541,cs),
(46,541,o),
(68,563,o),
(68,591,cs),
(68,619,o),
(46,641,o),
(18,641,cs),
(-10,641,o),
(-32,619,o),
(-32,591,cs)
);
}
);
};
layerId = master01;
shapes = (
{
ref = idotless;
},
{
pos = (-50,0);
ref = dieresiscomb;
}
);
width = 233;
}
);
unicode = 239;
},
{
color = 9;
glyphname = idotaccent;
lastChange = "2022-05-26 15:06:01 +0000";
layers = (
{
background = {
shapes = (
{
closed = 1;
nodes = (
(75,0,l),
(158,0,l),
(158,452,l),
(75,452,l,{
name = hr00;
})
);
},
{
closed = 1;
nodes = (
(320,645,o),
(298,622,o),
(298,593,cs),
(298,566,o),
(320,541,o),
(349,541,cs),
(377,541,o),
(401,566,o),
(401,593,cs),
(401,622,o),
(377,645,o),
(349,645,cs,{
name = hr00;
})
);
}
);
};
layerId = master01;
shapes = (
{
ref = idotless;
},
{
ref = dotaccentcomb;
}
);
width = 233;
}
);
},
{
glyphname = igrave;
lastChange = "2022-05-26 15:06:01 +0000";
layers = (
{
background = {
shapes = (
{
closed = 1;
nodes = (
(75,0,l),
(158,0,l),
(158,452,l),
(75,452,l,{
name = hr00;
})
);
},
{
closed = 1;
nodes = (
(191,507,l),
(3,645,l),
(59,695,l),
(231,507,l,{
name = hr00;
})
);
}
);
};
layerId = master01;
shapes = (
{
ref = idotless;
},
{
pos = (-11,0);
ref = gravecomb;
}
);
width = 233;
}
);
unicode = 236;
},
{
glyphname = ij;
lastChange = "2022-05-26 15:06:01 +0000";
layers = (
{
background = {
shapes = (
{
closed = 1;
nodes = (
(75,0,l),
(158,0,l),
(158,452,l),
(75,452,l,{
name = hr00;
})
);
},
{
closed = 1;
nodes = (
(87,645,o),
(65,622,o),
(65,593,cs),
(65,566,o),
(87,541,o),
(116,541,cs),
(144,541,o),
(168,566,o),
(168,593,cs),
(168,622,o),
(144,645,o),
(116,645,cs,{
name = hr00;
})
);
},
{
closed = 1;
nodes = (
(219,-176,o),
(164,-162,o),
(133,-146,c),
(123,-211,l),
(147,-217,o),
(175,-223,o),
(199,-223,cs),
(317,-223,o),
(392,-119,o),
(392,17,cs),
(393,452,l),
(308,452,l),
(308,17,ls),
(308,-36,o),
(293,-150,o),
(242,-176,c,{
name = hr00;
})
);
},
{
closed = 1;
nodes = (
(321,645,o),
(299,622,o),
(299,593,cs),
(299,566,o),
(321,541,o),
(350,541,cs),
(378,541,o),
(402,566,o),
(402,593,cs),
(402,622,o),
(378,645,o),
(350,645,cs,{
name = hr00;
})
);
}
);
};
layerId = master01;
shapes = (
{
ref = i;
},
{
pos = (233,0);
ref = j;
}
);
width = 468;
}
);
unicode = 307;
},
{
glyphname = imacron;
lastChange = "2022-05-26 15:06:01 +0000";
layers = (
{
background = {
shapes = (
{
closed = 1;
nodes = (
(75,0,l),
(158,0,l),
(158,452,l),
(75,452,l,{
name = hr00;
})
);
},
{
closed = 1;
nodes = (
(-39,601,l),
(-39,547,l),
(272,547,l),
(272,601,l,{
name = hr00;
})
);
}
);
};
layerId = master01;
shapes = (
{
ref = idotless;
},
{
pos = (-50,0);
ref = macroncomb;
}
);
width = 233;
}
);
unicode = 299;
},
{
glyphname = iogonek;
lastChange = "2022-05-26 15:06:01 +0000";
layers = (
{
background = {
shapes = (
{
closed = 1;
nodes = (
(75,0,l),
(158,0,l),
(158,452,l),
(75,452,l,{
name = hr00;
})
);
},
{
closed = 1;
nodes = (
(87,645,o),
(65,622,o),
(65,593,cs),
(65,566,o),
(87,541,o),
(116,541,cs),
(144,541,o),
(168,566,o),
(168,593,cs),
(168,622,o),
(144,645,o),
(116,645,cs,{
name = hr00;
})
);
},
{
closed = 1;
nodes = (
(51,-20,o),
(26,-54,o),
(26,-97,cs),
(26,-135,o),
(61,-165,o),
(105,-165,cs),
(149,-165,o),
(194,-127,o),
(207,-80,c),
(191,-73,l),
(180,-97,o),
(150,-116,o),
(125,-116,cs),
(100,-116,o),
(80,-103,o),
(80,-75,cs),
(80,-41,o),
(102,-19,o),
(126,0,c),
(82,0,l,{
name = hr00;
})
);
}
);
};
layerId = master01;
shapes = (
{
ref = idotless;
},
{
ref = dotaccentcomb;
},
{
pos = (-33,10);
ref = ogonekcomb;
}
);
width = 233;
}
);
unicode = 303;
},
{
glyphname = itilde;
lastChange = "2022-05-26 15:06:01 +0000";
layers = (
{
background = {
shapes = (
{
closed = 1;
nodes = (
(75,0,l),
(158,0,l),
(158,452,l),
(75,452,l,{
name = hr00;
})
);
},
{
closed = 1;
nodes = (
(230,611,o),
(217,593,o),
(191,593,cs),
(171,593,o),
(99,634,o),
(60,634,c,{
name = hr01;
}),
(4,616,o),
(-28,579,o),
(-42,545,c),
(-15,530,l),
(3,555,o),
(16,573,o),
(42,573,cs),
(62,573,o),
(134,532,o),
(173,532,c,{
name = hr02;
}),
(229,550,o),
(261,587,o),
(275,621,c),
(248,636,l)
);
}
);
};
layerId = master01;
shapes = (
{
ref = idotless;
},
{
pos = (-50,0);
ref = tildecomb;
}
);
width = 233;
}
);
unicode = 297;
},
{
glyphname = j;
lastChange = "2022-05-26 15:06:01 +0000";
layers = (
{
background = {
shapes = (
{
closed = 1;
nodes = (
(-14,-176,o),
(-69,-162,o),
(-100,-146,c),
(-110,-211,l),
(-86,-217,o),
(-58,-223,o),
(-34,-223,cs),
(84,-223,o),
(159,-119,o),
(159,17,cs),
(160,452,l),
(75,452,l),
(75,17,ls),
(75,-36,o),
(60,-150,o),
(9,-176,c,{
name = hr00;
})
);
},
{
closed = 1;
nodes = (
(88,645,o),
(66,622,o),
(66,593,cs),
(66,566,o),
(88,541,o),
(117,541,cs),
(145,541,o),
(169,566,o),
(169,593,cs),
(169,622,o),
(145,645,o),
(117,645,cs,{
name = hr00;
})
);
}
);
};
layerId = master01;
shapes = (
{
ref = jdotless;
},
{
pos = (1,0);
ref = dotaccentcomb;
}
);
width = 235;
}
);
unicode = 106;
},
{
glyphname = jdotless;
lastChange = "2022-05-26 15:05:57 +0000";
layers = (
{
anchors = (
{
name = bottom;
pos = (118,-224);
},
{
name = top;
pos = (118,452);
}
);
background = {
shapes = (
{
closed = 1;
nodes = (
(-14,-176,o),
(-69,-162,o),
(-100,-146,c),
(-110,-211,l),
(-86,-217,o),
(-58,-223,o),
(-34,-223,cs),
(84,-223,o),
(159,-119,o),
(159,17,cs),
(160,452,l),
(75,452,l),
(75,17,ls),
(75,-36,o),
(60,-150,o),
(9,-176,c,{
name = hr00;
})
);
}
);
};
layerId = master01;
shapes = (
{
closed = 1;
nodes = (
(-14,-176,o),
(-69,-162,o),
(-100,-146,c),
(-110,-211,l),
(-86,-217,o),
(-58,-223,o),
(-34,-223,cs),
(84,-223,o),
(159,-119,o),
(159,17,cs),
(160,452,l),
(75,452,l),
(75,17,ls),
(75,-36,o),
(60,-150,o),
(9,-176,c,{
name = hr00;
})
);
}
);
width = 235;
}
);
unicode = 567;
},
{
glyphname = jcircumflex;
lastChange = "2022-05-26 15:06:01 +0000";
layers = (
{
background = {
shapes = (
{
closed = 1;
nodes = (
(-14,-176,o),
(-69,-162,o),
(-100,-146,c),
(-110,-211,l),
(-86,-217,o),
(-58,-223,o),
(-34,-223,cs),
(84,-223,o),
(159,-119,o),
(159,17,cs),
(160,452,l),
(75,452,l),
(75,17,ls),
(75,-36,o),
(60,-150,o),
(9,-176,c,{
name = hr00;
})
);
},
{
closed = 1;
nodes = (
(141,674,l),
(93,674,l),
(-32,507,l),
(8,507,l),
(117,600,l),
(227,507,l),
(267,507,l,{
name = hr00;
})
);
}
);
};
layerId = master01;
shapes = (
{
ref = jdotless;
},
{
pos = (-49,0);
ref = circumflexcomb;
}
);
width = 235;
}
);
unicode = 309;
},
{
glyphname = k;
lastChange = "2022-05-26 15:05:57 +0000";
layers = (
{
anchors = (
{
name = bottom;
pos = (247,0);
},
{
name = top;
pos = (247,928);
}
);
background = {
shapes = (
{
closed = 1;
nodes = (
(471,0,l),
(221,274,l),
(456,452,l),
(390,452,l),
(159,260,l),
(159,683,l),
(75,683,l),
(75,0,l),
(159,0,l),
(159,251,l),
(371,-13,l,{
name = hr00;
})
);
}
);
};
layerId = master01;
shapes = (
{
closed = 1;
nodes = (
(471,0,l),
(221,274,l),
(456,452,l),
(390,452,l),
(159,260,l),
(159,683,l),
(75,683,l),
(75,0,l),
(159,0,l),
(159,251,l),
(371,-13,l,{
name = hr00;
})
);
}
);
width = 493;
}
);
unicode = 107;
},
{
glyphname = kcommaaccent;
lastChange = "2022-05-26 15:06:01 +0000";
layers = (
{
background = {
shapes = (
{
closed = 1;
nodes = (
(471,0,l),
(221,274,l),
(456,452,l),
(390,452,l),
(159,260,l),
(159,683,l),
(75,683,l),
(75,0,l),
(159,0,l),
(159,251,l),
(371,-13,l,{
name = hr00;
})
);
},
{
closed = 1;
nodes = (
(256,-46,o),
(209,-71,o),
(190,-99,c),
(190,-135,o),
(224,-154,o),
(252,-154,c),
(252,-197,o),
(224,-242,o),
(185,-273,c),
(197,-292,l),
(258,-258,o),
(309,-205,o),
(309,-122,cs),
(309,-98,o),
(305,-71,o),
(295,-42,c,{
name = hr00;
})
);
}
);
};
layerId = master01;
shapes = (
{
ref = k;
},
{
pos = (369,0);
ref = commaaccentcomb;
}
);
width = 493;
}
);
unicode = 311;
},
{
glyphname = kgreenlandic;
lastChange = "2022-05-26 15:05:57 +0000";
layers = (
{
anchors = (
{
name = bottom;
pos = (226,0);
},
{
name = top;
pos = (226,452);
}
);
background = {
shapes = (
{
closed = 1;
nodes = (
(441,0,l),
(241,254,l),
(436,452,l),
(360,452,l),
(159,240,l),
(159,452,l),
(75,452,l),
(75,0,l),
(159,0,l),
(159,231,l),
(346,-13,l,{
name = hr00;
})
);
}
);
};
layerId = master01;
shapes = (
{
closed = 1;
nodes = (
(441,0,l),
(241,254,l),
(436,452,l),
(360,452,l),
(159,240,l),
(159,452,l),
(75,452,l),
(75,0,l),
(159,0,l),
(159,231,l),
(346,-13,l,{
name = hr00;
})
);
}
);
width = 451;
}
);
unicode = 312;
},
{
glyphname = l;
lastChange = "2022-05-26 15:05:57 +0000";
layers = (
{
anchors = (
{
name = bottom;
pos = (117,0);
},
{
name = center;
pos = (117,464);
},
{
name = top;
pos = (117,928);
},
{
name = topright;
pos = (214,928);
}
);
background = {
shapes = (
{
closed = 1;
nodes = (
(159,683,l),
(75,683,l),
(75,0,l),
(159,0,l,{
name = hr00;
})
);
}
);
};
layerId = master01;
shapes = (
{
closed = 1;
nodes = (
(159,683,l),
(75,683,l),
(75,0,l),
(159,0,l,{
name = hr00;
})
);
}
);
width = 234;
}
);
unicode = 108;
},
{
glyphname = lacute;
lastChange = "2022-05-26 15:06:28 +0000";
layers = (
{
background = {
shapes = (
{
closed = 1;
nodes = (
(159,683,l),
(75,683,l),
(75,0,l),
(159,0,l,{
name = hr00;
})
);
},
{
closed = 1;
nodes = (
(80,717,l),
(268,855,l),
(212,905,l),
(40,717,l,{
name = hr00;
})
);
}
);
};
layerId = master01;
shapes = (
{
ref = l;
},
{
pos = (-53,266);
ref = acutecomb.case;
}
);
width = 234;
}
);
unicode = 314;
},
{
glyphname = lcaron;
lastChange = "2022-05-26 15:06:01 +0000";
layers = (
{
background = {
shapes = (
{
closed = 1;
nodes = (
(159,683,l),
(75,683,l),
(75,0,l),
(159,0,l,{
name = hr00;
})
);
},
{
closed = 1;
nodes = (
(271,714,o),
(224,689,o),
(205,661,c),
(205,625,o),
(239,606,o),
(267,606,c),
(267,563,o),
(239,518,o),
(200,487,c),
(212,468,l),
(273,502,o),
(324,555,o),
(324,638,cs),
(324,662,o),
(320,689,o),
(310,718,c,{
name = hr00;
})
);
}
);
};
layerId = master01;
shapes = (
{
ref = l;
},
{
pos = (-49,476);
ref = caroncomb;
}
);
width = 234;
}
);
unicode = 318;
},
{
glyphname = lcommaaccent;
lastChange = "2022-05-26 15:06:01 +0000";
layers = (
{
background = {
shapes = (
{
closed = 1;
nodes = (
(159,683,l),
(75,683,l),
(75,0,l),
(159,0,l,{
name = hr00;
})
);
},
{
closed = 1;
nodes = (
(126,-46,o),
(79,-71,o),
(60,-99,c),
(60,-135,o),
(94,-154,o),
(122,-154,c),
(122,-197,o),
(94,-242,o),
(55,-273,c),
(67,-292,l),
(128,-258,o),
(179,-205,o),
(179,-122,cs),
(179,-98,o),
(175,-71,o),
(165,-42,c,{
name = hr00;
})
);
}
);
};
layerId = master01;
shapes = (
{
ref = l;
},
{
pos = (239,0);
ref = commaaccentcomb;
}
);
width = 234;
}
);
unicode = 316;
},
{
glyphname = ldot;
lastChange = "2022-05-26 15:06:01 +0000";
layers = (
{
background = {
shapes = (
{
closed = 1;
nodes = (
(159,683,l),
(75,683,l),
(75,0,l),
(159,0,l,{
name = hr00;
})
);
},
{
closed = 1;
nodes = (
(285,279,o),
(320,296,o),
(320,333,cs),
(320,364,o),
(294,390,o),
(264,390,cs),
(234,390,o),
(209,365,o),
(209,333,cs),
(209,295,o),
(243,279,o),
(264,279,c,{
name = hr00;
})
);
}
);
};
layerId = master01;
shapes = (
{
ref = l;
},
{
ref = periodcentered.loclCAT;
}
);
width = 234;
}
);
unicode = 320;
},
{
glyphname = lslash;
lastChange = "2022-05-26 14:56:42 +0000";
layers = (
{
background = {
shapes = (
{
closed = 1;
nodes = (
(159,683,l),
(75,683,l),
(75,0,l),
(159,0,l,{
name = hr00;
})
);
},
{
closed = 1;
nodes = (
(10,300,l),
(224,444,l),
(224,493,l),
(10,349,l,{
name = hr00;
})
);
}
);
};
layerId = master01;
shapes = (
{
alignment = -1;
ref = l;
},
{
alignment = -1;
ref = eslash;
}
);
width = 234;
}
);
unicode = 322;
},
{
glyphname = m;
lastChange = "2022-05-26 15:05:57 +0000";
layers = (
{
anchors = (
{
name = bottom;
pos = (389,0);
},
{
name = top;
pos = (389,452);
}
);
background = {
shapes = (
{
closed = 1;
nodes = (
(508,464,o),
(447,407,o),
(426,383,c),
(415,425,o),
(384,464,o),
(318,464,cs),
(264,464,o),
(220,436,o),
(163,388,c),
(83,461,l),
(32,423,l),
(48,410,o),
(83,383,o),
(83,314,cs),
(83,0,l),
(167,0,l),
(167,345,ls),
(167,350,o),
(228,404,o),
(283,404,cs),
(335,404,o),
(352,365,o),
(352,298,cs),
(352,0,l),
(437,0,l),
(437,347,l),
(456,376,o),
(506,404,o),
(548,404,cs),
(621,404,o),
(622,345,o),
(622,293,cs),
(622,0,l),
(706,0,l),
(706,285,ls),
(706,360,o),
(692,464,o),
(588,464,c,{
name = hr00;
})
);
}
);
};
layerId = master01;
shapes = (
{
closed = 1;
nodes = (
(508,464,o),
(447,407,o),
(426,383,c),
(415,425,o),
(384,464,o),
(318,464,cs),
(264,464,o),
(220,436,o),
(163,388,c),
(83,461,l),
(32,423,l),
(48,410,o),
(83,383,o),
(83,314,cs),
(83,0,l),
(167,0,l),
(167,345,ls),
(167,350,o),
(228,404,o),
(283,404,cs),
(335,404,o),
(352,365,o),
(352,298,cs),
(352,0,l),
(437,0,l),
(437,347,l),
(456,376,o),
(506,404,o),
(548,404,cs),
(621,404,o),
(622,345,o),
(622,293,cs),
(622,0,l),
(706,0,l),
(706,285,ls),
(706,360,o),
(692,464,o),
(588,464,c,{
name = hr00;
})
);
}
);
width = 778;
}
);
unicode = 109;
},
{
glyphname = n;
lastChange = "2022-05-26 15:05:57 +0000";
layers = (
{
anchors = (
{
name = bottom;
pos = (250,0);
},
{
name = top;
pos = (250,452);
}
);
background = {
shapes = (
{
closed = 1;
nodes = (
(249,464,o),
(211,434,o),
(162,388,c),
(80,461,l),
(29,423,l),
(45,410,o),
(80,383,o),
(80,314,cs),
(80,0,l),
(165,0,l),
(165,345,l),
(203,383,o),
(234,401,o),
(264,401,cs),
(323,401,o),
(341,365,o),
(341,303,cs),
(341,0,l),
(426,0,l),
(426,313,ls),
(426,437,o),
(354,464,o),
(308,464,c,{
name = hr00;
})
);
}
);
};
layerId = master01;
shapes = (
{
closed = 1;
nodes = (
(249,464,o),
(211,434,o),
(162,388,c),
(80,461,l),
(29,423,l),
(45,410,o),
(80,383,o),
(80,314,cs),
(80,0,l),
(165,0,l),
(165,345,l),
(203,383,o),
(234,401,o),
(264,401,cs),
(323,401,o),
(341,365,o),
(341,303,cs),
(341,0,l),
(426,0,l),
(426,313,ls),
(426,437,o),
(354,464,o),
(308,464,c,{
name = hr00;
})
);
}
);
width = 500;
}
);
unicode = 110;
},
{
glyphname = nacute;
lastChange = "2022-05-26 15:06:01 +0000";
layers = (
{
background = {
shapes = (
{
closed = 1;
nodes = (
(249,464,o),
(211,434,o),
(162,388,c),
(80,461,l),
(29,423,l),
(45,410,o),
(80,383,o),
(80,314,cs),
(80,0,l),
(165,0,l),
(165,345,l),
(203,383,o),
(234,401,o),
(264,401,cs),
(323,401,o),
(341,365,o),
(341,303,cs),
(341,0,l),
(426,0,l),
(426,313,ls),
(426,437,o),
(354,464,o),
(308,464,c,{
name = hr00;
})
);
},
{
closed = 1;
nodes = (
(193,507,l),
(381,645,l),
(325,695,l),
(153,507,l,{
name = hr00;
})
);
}
);
};
layerId = master01;
shapes = (
{
ref = n;
},
{
pos = (43,0);
ref = acutecomb;
}
);
width = 500;
}
);
unicode = 324;
},
{
glyphname = napostrophe;
lastChange = "2022-05-26 14:56:42 +0000";
layers = (
{
background = {
shapes = (
{
closed = 1;
nodes = (
(249,464,o),
(211,434,o),
(162,388,c),
(80,461,l),
(29,423,l),
(45,410,o),
(80,383,o),
(80,314,cs),
(80,0,l),
(165,0,l),
(165,345,l),
(203,383,o),
(234,401,o),
(264,401,cs),
(323,401,o),
(341,365,o),
(341,303,cs),
(341,0,l),
(426,0,l),
(426,313,ls),
(426,437,o),
(354,464,o),
(308,464,c,{
name = hr00;
})
);
},
{
closed = 1;
nodes = (
(49,714,o),
(2,689,o),
(-17,661,c),
(-17,625,o),
(17,606,o),
(45,606,c),
(45,563,o),
(17,518,o),
(-22,487,c),
(-10,468,l),
(51,502,o),
(102,555,o),
(102,638,cs),
(102,662,o),
(98,689,o),
(88,718,c,{
name = hr00;
})
);
}
);
};
layerId = master01;
shapes = (
{
alignment = -1;
ref = n;
},
{
alignment = -1;
pos = (-73,0);
ref = caron.salt;
}
);
width = 500;
}
);
unicode = 329;
},
{
glyphname = ncaron;
lastChange = "2022-05-26 15:06:01 +0000";
layers = (
{
background = {
shapes = (
{
closed = 1;
nodes = (
(249,464,o),
(211,434,o),
(162,388,c),
(80,461,l),
(29,423,l),
(45,410,o),
(80,383,o),
(80,314,cs),
(80,0,l),
(165,0,l),
(165,345,l),
(203,383,o),
(234,401,o),
(264,401,cs),
(323,401,o),
(341,365,o),
(341,303,cs),
(341,0,l),
(426,0,l),
(426,313,ls),
(426,437,o),
(354,464,o),
(308,464,c,{
name = hr00;
})
);
},
{
closed = 1;
nodes = (
(226,506,l),
(274,506,l),
(399,673,l),
(359,673,l),
(250,580,l),
(140,673,l),
(100,673,l,{
name = hr00;
})
);
}
);
};
layerId = master01;
shapes = (
{
ref = n;
},
{
pos = (84,0);
ref = caroncomb;
}
);
width = 500;
}
);
unicode = 328;
},
{
glyphname = ncommaaccent;
lastChange = "2022-05-26 15:06:01 +0000";
layers = (
{
background = {
shapes = (
{
closed = 1;
nodes = (
(249,464,o),
(211,434,o),
(162,388,c),
(80,461,l),
(29,423,l),
(45,410,o),
(80,383,o),
(80,314,cs),
(80,0,l),
(165,0,l),
(165,345,l),
(203,383,o),
(234,401,o),
(264,401,cs),
(323,401,o),
(341,365,o),
(341,303,cs),
(341,0,l),
(426,0,l),
(426,313,ls),
(426,437,o),
(354,464,o),
(308,464,c,{
name = hr00;
})
);
},
{
closed = 1;
nodes = (
(259,-46,o),
(212,-71,o),
(193,-99,c),
(193,-135,o),
(227,-154,o),
(255,-154,c),
(255,-197,o),
(227,-242,o),
(188,-273,c),
(200,-292,l),
(261,-258,o),
(312,-205,o),
(312,-122,cs),
(312,-98,o),
(308,-71,o),
(298,-42,c,{
name = hr00;
})
);
}
);
};
layerId = master01;
shapes = (
{
ref = n;
},
{
pos = (372,0);
ref = commaaccentcomb;
}
);
width = 500;
}
);
unicode = 326;
},
{
glyphname = ntilde;
lastChange = "2022-05-26 15:06:01 +0000";
layers = (
{
background = {
shapes = (
{
closed = 1;
nodes = (
(249,464,o),
(211,434,o),
(162,388,c),
(80,461,l),
(29,423,l),
(45,410,o),
(80,383,o),
(80,314,cs),
(80,0,l),
(165,0,l),
(165,345,l),
(203,383,o),
(234,401,o),
(264,401,cs),
(323,401,o),
(341,365,o),
(341,303,cs),
(341,0,l),
(426,0,l),
(426,313,ls),
(426,437,o),
(354,464,o),
(308,464,c,{
name = hr00;
})
);
},
{
closed = 1;
nodes = (
(363,611,o),
(350,593,o),
(324,593,cs),
(304,593,o),
(232,634,o),
(193,634,c,{
name = hr01;
}),
(137,616,o),
(105,579,o),
(91,545,c),
(118,530,l),
(136,555,o),
(149,573,o),
(175,573,cs),
(195,573,o),
(267,532,o),
(306,532,c,{
name = hr02;
}),
(362,550,o),
(394,587,o),
(408,621,c),
(381,636,l)
);
}
);
};
layerId = master01;
shapes = (
{
ref = n;
},
{
pos = (83,0);
ref = tildecomb;
}
);
width = 500;
}
);
unicode = 241;
},
{
glyphname = eng;
lastChange = "2022-05-26 15:05:57 +0000";
layers = (
{
anchors = (
{
name = bottom;
pos = (250,0);
},
{
name = top;
pos = (250,452);
}
);
background = {
shapes = (
{
closed = 1;
nodes = (
(341,-36,o),
(326,-150,o),
(275,-176,c),
(252,-176,o),
(197,-162,o),
(166,-146,c),
(156,-211,l),
(180,-217,o),
(208,-223,o),
(232,-223,cs),
(350,-223,o),
(421,-119,o),
(425,17,cs),
(426,313,ls),
(426,437,o),
(354,464,o),
(308,464,cs),
(249,464,o),
(211,434,o),
(162,388,c),
(80,461,l),
(29,423,l),
(45,410,o),
(80,383,o),
(80,314,cs),
(80,0,l),
(165,0,l),
(165,345,l),
(203,383,o),
(234,401,o),
(264,401,cs),
(323,401,o),
(341,365,o),
(341,303,cs),
(341,17,l,{
name = hr00;
})
);
}
);
};
layerId = master01;
shapes = (
{
closed = 1;
nodes = (
(341,-36,o),
(326,-150,o),
(275,-176,c),
(252,-176,o),
(197,-162,o),
(166,-146,c),
(156,-211,l),
(180,-217,o),
(208,-223,o),
(232,-223,cs),
(350,-223,o),
(421,-119,o),
(425,17,cs),
(426,313,ls),
(426,437,o),
(354,464,o),
(308,464,cs),
(249,464,o),
(211,434,o),
(162,388,c),
(80,461,l),
(29,423,l),
(45,410,o),
(80,383,o),
(80,314,cs),
(80,0,l),
(165,0,l),
(165,345,l),
(203,383,o),
(234,401,o),
(264,401,cs),
(323,401,o),
(341,365,o),
(341,303,cs),
(341,17,l,{
name = hr00;
})
);
}
);
width = 500;
}
);
unicode = 331;
},
{
glyphname = o;
lastChange = "2022-05-26 15:05:57 +0000";
layers = (
{
anchors = (
{
name = bottom;
pos = (250,0);
},
{
name = center;
pos = (250,226);
},
{
name = ogonek;
pos = (450,10);
},
{
name = top;
pos = (250,452);
},
{
name = topright;
pos = (480,452);
}
);
background = {
shapes = (
{
closed = 1;
nodes = (
(165,464,o),
(27,402,o),
(27,213,cs),
(27,68,o),
(117,-12,o),
(229,-12,cs),
(332,-12,o),
(471,50,o),
(471,239,cs),
(471,384,o),
(381,464,o),
(268,464,c,{
name = hr00;
})
);
},
{
closed = 1;
nodes = (
(154,22,o),
(118,117,o),
(118,224,cs),
(118,311,o),
(154,395,o),
(234,426,c),
(344,426,o),
(379,333,o),
(379,224,cs),
(379,137,o),
(342,22,o),
(248,22,c)
);
}
);
};
layerId = master01;
shapes = (
{
closed = 1;
nodes = (
(165,464,o),
(27,402,o),
(27,213,cs),
(27,68,o),
(117,-12,o),
(229,-12,cs),
(332,-12,o),
(471,50,o),
(471,239,cs),
(471,384,o),
(381,464,o),
(268,464,c,{
name = hr00;
})
);
},
{
closed = 1;
nodes = (
(154,22,o),
(118,117,o),
(118,224,cs),
(118,311,o),
(154,395,o),
(234,426,c),
(344,426,o),
(379,333,o),
(379,224,cs),
(379,137,o),
(342,22,o),
(248,22,c)
);
}
);
width = 500;
}
);
unicode = 111;
},
{
glyphname = oacute;
lastChange = "2022-05-26 15:06:01 +0000";
layers = (
{
background = {
shapes = (
{
closed = 1;
nodes = (
(165,464,o),
(27,402,o),
(27,213,cs),
(27,68,o),
(117,-12,o),
(229,-12,cs),
(332,-12,o),
(471,50,o),
(471,239,cs),
(471,384,o),
(381,464,o),
(268,464,c,{
name = hr00;
})
);
},
{
closed = 1;
nodes = (
(154,22,o),
(118,117,o),
(118,224,cs),
(118,311,o),
(154,395,o),
(234,426,c),
(344,426,o),
(379,333,o),
(379,224,cs),
(379,137,o),
(342,22,o),
(248,22,c)
);
},
{
closed = 1;
nodes = (
(193,507,l),
(381,645,l),
(325,695,l),
(153,507,l,{
name = hr00;
})
);
}
);
};
layerId = master01;
shapes = (
{
ref = o;
},
{
pos = (43,0);
ref = acutecomb;
}
);
width = 500;
}
);
unicode = 243;
},
{
glyphname = obreve;
lastChange = "2022-05-26 15:06:01 +0000";
layers = (
{
background = {
shapes = (
{
closed = 1;
nodes = (
(165,464,o),
(27,402,o),
(27,213,cs),
(27,68,o),
(117,-12,o),
(229,-12,cs),
(332,-12,o),
(471,50,o),
(471,239,cs),
(471,384,o),
(381,464,o),
(268,464,c,{
name = hr00;
})
);
},
{
closed = 1;
nodes = (
(154,22,o),
(118,117,o),
(118,224,cs),
(118,311,o),
(154,395,o),
(234,426,c),
(344,426,o),
(379,333,o),
(379,224,cs),
(379,137,o),
(342,22,o),
(248,22,c)
);
},
{
closed = 1;
nodes = (
(342,614,o),
(325,567,o),
(249,567,cs),
(185,567,o),
(148,603,o),
(138,664,c),
(109,664,l),
(109,659,ls),
(109,554,o),
(176,507,o),
(247,507,cs),
(375,507,o),
(387,633,o),
(390,664,c),
(361,664,l,{
name = hr00;
})
);
}
);
};
layerId = master01;
shapes = (
{
ref = o;
},
{
pos = (83,0);
ref = brevecomb;
}
);
width = 500;
}
);
unicode = 335;
},
{
glyphname = ocircumflex;
lastChange = "2022-05-26 15:06:01 +0000";
layers = (
{
background = {
shapes = (
{
closed = 1;
nodes = (
(165,464,o),
(27,402,o),
(27,213,cs),
(27,68,o),
(117,-12,o),
(229,-12,cs),
(332,-12,o),
(471,50,o),
(471,239,cs),
(471,384,o),
(381,464,o),
(268,464,c,{
name = hr00;
})
);
},
{
closed = 1;
nodes = (
(154,22,o),
(118,117,o),
(118,224,cs),
(118,311,o),
(154,395,o),
(234,426,c),
(344,426,o),
(379,333,o),
(379,224,cs),
(379,137,o),
(342,22,o),
(248,22,c)
);
},
{
closed = 1;
nodes = (
(273,674,l),
(225,674,l),
(100,507,l),
(140,507,l),
(249,600,l),
(359,507,l),
(399,507,l,{
name = hr00;
})
);
}
);
};
layerId = master01;
shapes = (
{
ref = o;
},
{
pos = (83,0);
ref = circumflexcomb;
}
);
width = 500;
}
);
unicode = 244;
},
{
glyphname = odieresis;
lastChange = "2022-05-26 15:06:01 +0000";
layers = (
{
background = {
shapes = (
{
closed = 1;
nodes = (
(165,464,o),
(27,402,o),
(27,213,cs),
(27,68,o),
(117,-12,o),
(229,-12,cs),
(332,-12,o),
(471,50,o),
(471,239,cs),
(471,384,o),
(381,464,o),
(268,464,c,{
name = hr00;
})
);
},
{
closed = 1;
nodes = (
(154,22,o),
(118,117,o),
(118,224,cs),
(118,311,o),
(154,395,o),
(234,426,c),
(344,426,o),
(379,333,o),
(379,224,cs),
(379,137,o),
(342,22,o),
(248,22,c)
);
},
{
closed = 1;
nodes = (
(298,563,o),
(320,541,o),
(348,541,cs),
(376,541,o),
(398,563,o),
(398,591,cs),
(398,619,o),
(376,641,o),
(348,641,cs),
(320,641,o),
(298,619,o),
(298,591,c,{
name = hr00;
})
);
},
{
closed = 1;
nodes = (
(101,563,o),
(123,541,o),
(151,541,cs),
(179,541,o),
(201,563,o),
(201,591,cs),
(201,619,o),
(179,641,o),
(151,641,cs),
(123,641,o),
(101,619,o),
(101,591,cs)
);
}
);
};
layerId = master01;
shapes = (
{
ref = o;
},
{
pos = (83,0);
ref = dieresiscomb;
}
);
width = 500;
}
);
unicode = 246;
},
{
glyphname = ograve;
lastChange = "2022-05-26 15:06:01 +0000";
layers = (
{
background = {
shapes = (
{
closed = 1;
nodes = (
(165,464,o),
(27,402,o),
(27,213,cs),
(27,68,o),
(117,-12,o),
(229,-12,cs),
(332,-12,o),
(471,50,o),
(471,239,cs),
(471,384,o),
(381,464,o),
(268,464,c,{
name = hr00;
})
);
},
{
closed = 1;
nodes = (
(154,22,o),
(118,117,o),
(118,224,cs),
(118,311,o),
(154,395,o),
(234,426,c),
(344,426,o),
(379,333,o),
(379,224,cs),
(379,137,o),
(342,22,o),
(248,22,c)
);
},
{
closed = 1;
nodes = (
(324,507,l),
(136,645,l),
(192,695,l),
(364,507,l,{
name = hr00;
})
);
}
);
};
layerId = master01;
shapes = (
{
ref = o;
},
{
pos = (122,0);
ref = gravecomb;
}
);
width = 500;
}
);
unicode = 242;
},
{
glyphname = ohungarumlaut;
lastChange = "2022-05-26 15:06:01 +0000";
layers = (
{
background = {
shapes = (
{
closed = 1;
nodes = (
(165,464,o),
(27,402,o),
(27,213,cs),
(27,68,o),
(117,-12,o),
(229,-12,cs),
(332,-12,o),
(471,50,o),
(471,239,cs),
(471,384,o),
(381,464,o),
(268,464,c,{
name = hr00;
})
);
},
{
closed = 1;
nodes = (
(154,22,o),
(118,117,o),
(118,224,cs),
(118,311,o),
(154,395,o),
(234,426,c),
(344,426,o),
(379,333,o),
(379,224,cs),
(379,137,o),
(342,22,o),
(248,22,c)
);
},
{
closed = 1;
nodes = (
(138,507,l),
(326,645,l),
(270,695,l),
(98,507,l,{
name = hr00;
})
);
},
{
closed = 1;
nodes = (
(293,507,l),
(481,645,l),
(425,695,l),
(253,507,l)
);
}
);
};
layerId = master01;
shapes = (
{
ref = o;
},
{
pos = (23,0);
ref = hungarumlautcomb;
}
);
width = 500;
}
);
unicode = 337;
},
{
glyphname = omacron;
lastChange = "2022-05-26 15:06:01 +0000";
layers = (
{
background = {
shapes = (
{
closed = 1;
nodes = (
(165,464,o),
(27,402,o),
(27,213,cs),
(27,68,o),
(117,-12,o),
(229,-12,cs),
(332,-12,o),
(471,50,o),
(471,239,cs),
(471,384,o),
(381,464,o),
(268,464,c,{
name = hr00;
})
);
},
{
closed = 1;
nodes = (
(154,22,o),
(118,117,o),
(118,224,cs),
(118,311,o),
(154,395,o),
(234,426,c),
(344,426,o),
(379,333,o),
(379,224,cs),
(379,137,o),
(342,22,o),
(248,22,c)
);
},
{
closed = 1;
nodes = (
(94,601,l),
(94,547,l),
(405,547,l),
(405,601,l,{
name = hr00;
})
);
}
);
};
layerId = master01;
shapes = (
{
ref = o;
},
{
pos = (83,0);
ref = macroncomb;
}
);
width = 500;
}
);
unicode = 333;
},
{
glyphname = oslash;
lastChange = "2022-05-26 15:05:57 +0000";
layers = (
{
anchors = (
{
name = top;
pos = (250,452);
}
);
background = {
shapes = (
{
closed = 1;
nodes = (
(165,464,o),
(27,402,o),
(27,213,cs),
(27,68,o),
(117,-12,o),
(229,-12,cs),
(332,-12,o),
(471,50,o),
(471,239,cs),
(471,384,o),
(381,464,o),
(268,464,c,{
name = hr00;
})
);
},
{
closed = 1;
nodes = (
(154,22,o),
(118,117,o),
(118,224,cs),
(118,311,o),
(154,395,o),
(234,426,c),
(344,426,o),
(379,333,o),
(379,224,cs),
(379,137,o),
(342,22,o),
(248,22,c)
);
},
{
closed = 1;
nodes = (
(450,519,l),
(404,519,l),
(51,-68,l),
(100,-68,l,{
name = hr00;
})
);
}
);
};
layerId = master01;
shapes = (
{
alignment = -1;
ref = o;
},
{
alignment = -1;
pos = (-149,-56);
ref = fraction;
scale = (1,0.85);
}
);
width = 500;
}
);
unicode = 248;
},
{
glyphname = oslashacute;
lastChange = "2022-05-26 15:06:01 +0000";
layers = (
{
background = {
shapes = (
{
closed = 1;
nodes = (
(165,464,o),
(27,402,o),
(27,213,cs),
(27,68,o),
(117,-12,o),
(229,-12,cs),
(332,-12,o),
(471,50,o),
(471,239,cs),
(471,384,o),
(381,464,o),
(268,464,c,{
name = hr00;
})
);
},
{
closed = 1;
nodes = (
(154,22,o),
(118,117,o),
(118,224,cs),
(118,311,o),
(154,395,o),
(234,426,c),
(344,426,o),
(379,333,o),
(379,224,cs),
(379,137,o),
(342,22,o),
(248,22,c)
);
},
{
closed = 1;
nodes = (
(450,519,l),
(404,519,l),
(51,-68,l),
(100,-68,l,{
name = hr00;
})
);
},
{
closed = 1;
nodes = (
(176,507,l),
(364,645,l),
(308,695,l),
(136,507,l,{
name = hr00;
})
);
}
);
};
layerId = master01;
shapes = (
{
ref = oslash;
},
{
pos = (43,0);
ref = acutecomb;
}
);
width = 500;
}
);
unicode = 511;
},
{
glyphname = otilde;
lastChange = "2022-05-26 15:06:01 +0000";
layers = (
{
background = {
shapes = (
{
closed = 1;
nodes = (
(165,464,o),
(27,402,o),
(27,213,cs),
(27,68,o),
(117,-12,o),
(229,-12,cs),
(332,-12,o),
(471,50,o),
(471,239,cs),
(471,384,o),
(381,464,o),
(268,464,c,{
name = hr00;
})
);
},
{
closed = 1;
nodes = (
(154,22,o),
(118,117,o),
(118,224,cs),
(118,311,o),
(154,395,o),
(234,426,c),
(344,426,o),
(379,333,o),
(379,224,cs),
(379,137,o),
(342,22,o),
(248,22,c)
);
},
{
closed = 1;
nodes = (
(363,611,o),
(350,593,o),
(324,593,cs),
(304,593,o),
(232,634,o),
(193,634,c,{
name = hr01;
}),
(137,616,o),
(105,579,o),
(91,545,c),
(118,530,l),
(136,555,o),
(149,573,o),
(175,573,cs),
(195,573,o),
(267,532,o),
(306,532,c,{
name = hr02;
}),
(362,550,o),
(394,587,o),
(408,621,c),
(381,636,l)
);
}
);
};
layerId = master01;
shapes = (
{
ref = o;
},
{
pos = (83,0);
ref = tildecomb;
}
);
width = 500;
}
);
unicode = 245;
},
{
glyphname = oe;
lastChange = "2022-05-26 15:05:57 +0000";
layers = (
{
anchors = (
{
name = bottom;
pos = (396,0);
},
{
name = top;
pos = (396,452);
}
);
background = {
shapes = (
{
closed = 1;
nodes = (
(163,463,o),
(29,401,o),
(29,212,cs),
(29,67,o),
(116,-13,o),
(225,-13,cs),
(288,-13,o),
(361,12,o),
(405,79,c),
(443,19,o),
(509,-13,o),
(589,-13,cs),
(650,-13,o),
(704,10,o),
(746,34,c),
(746,69,l),
(713,54,o),
(674,42,o),
(622,42,cs),
(535,42,o),
(451,89,o),
(451,245,c),
(770,245,l),
(770,388,o),
(692,462,o),
(599,462,cs,{
name = hr01;
}),
(528,462,o),
(461,431,o),
(418,371,c),
(387,431,o),
(332,463,o),
(263,463,c)
);
},
{
closed = 1;
nodes = (
(589,415,o),
(680,395,o),
(689,275,c),
(455,275,l),
(466,341,o),
(502,393,o),
(548,415,c,{
name = hr03;
})
);
},
{
closed = 1;
nodes = (
(146,31,o),
(118,120,o),
(117,224,c),
(117,299,o),
(151,385,o),
(227,415,c),
(325,415,o),
(370,326,o),
(371,224,c),
(371,132,o),
(321,31,o),
(243,31,c)
);
}
);
};
layerId = master01;
shapes = (
{
closed = 1;
nodes = (
(163,463,o),
(29,401,o),
(29,212,cs),
(29,67,o),
(116,-13,o),
(225,-13,cs),
(288,-13,o),
(361,12,o),
(405,79,c),
(443,19,o),
(509,-13,o),
(589,-13,cs),
(650,-13,o),
(704,10,o),
(746,34,c),
(746,69,l),
(713,54,o),
(674,42,o),
(622,42,cs),
(535,42,o),
(451,89,o),
(451,245,c),
(770,245,l),
(770,388,o),
(692,462,o),
(599,462,cs,{
name = hr01;
}),
(528,462,o),
(461,431,o),
(418,371,c),
(387,431,o),
(332,463,o),
(263,463,c)
);
},
{
closed = 1;
nodes = (
(589,415,o),
(680,395,o),
(689,275,c),
(455,275,l),
(466,341,o),
(502,393,o),
(548,415,c,{
name = hr03;
})
);
},
{
closed = 1;
nodes = (
(146,31,o),
(118,120,o),
(117,224,c),
(117,299,o),
(151,385,o),
(227,415,c),
(325,415,o),
(370,326,o),
(371,224,c),
(371,132,o),
(321,31,o),
(243,31,c)
);
}
);
width = 791;
}
);
unicode = 339;
},
{
glyphname = p;
lastChange = "2022-05-26 15:05:57 +0000";
layers = (
{
anchors = (
{
name = bottom;
pos = (250,0);
},
{
name = top;
pos = (250,452);
}
);
background = {
shapes = (
{
closed = 1;
nodes = (
(247,464,o),
(209,434,o),
(160,388,c),
(75,464,l),
(23,426,l),
(40,413,o),
(75,386,o),
(75,317,cs),
(75,-212,l),
(160,-212,l),
(160,30,l),
(210,-4,o),
(255,-17,o),
(294,-17,cs),
(413,-17,o),
(476,120,o),
(476,219,cs),
(476,420,o),
(366,464,o),
(306,464,c,{
name = hr00;
})
);
},
{
closed = 1;
nodes = (
(345,401,o),
(385,321,o),
(385,207,cs),
(385,104,o),
(341,32,o),
(267,31,cs),
(236,31,o),
(200,40,o),
(160,59,c),
(160,327,ls),
(160,337,o),
(218,408,o),
(296,417,c)
);
}
);
};
layerId = master01;
shapes = (
{
closed = 1;
nodes = (
(247,464,o),
(209,434,o),
(160,388,c),
(75,464,l),
(23,426,l),
(40,413,o),
(75,386,o),
(75,317,cs),
(75,-212,l),
(160,-212,l),
(160,30,l),
(210,-4,o),
(255,-17,o),
(294,-17,cs),
(413,-17,o),
(476,120,o),
(476,219,cs),
(476,420,o),
(366,464,o),
(306,464,c,{
name = hr00;
})
);
},
{
closed = 1;
nodes = (
(345,401,o),
(385,321,o),
(385,207,cs),
(385,104,o),
(341,32,o),
(267,31,cs),
(236,31,o),
(200,40,o),
(160,59,c),
(160,327,ls),
(160,337,o),
(218,408,o),
(296,417,c)
);
}
);
width = 500;
}
);
unicode = 112;
},
{
glyphname = thorn;
lastChange = "2022-05-26 15:05:57 +0000";
layers = (
{
anchors = (
{
name = bottom;
pos = (250,0);
},
{
name = top;
pos = (250,452);
}
);
background = {
shapes = (
{
closed = 1;
nodes = (
(263,462,o),
(198,429,o),
(160,388,c),
(160,683,l),
(75,683,l),
(75,-212,l),
(160,-212,l),
(160,30,l),
(210,-4,o),
(255,-17,o),
(294,-17,cs),
(413,-17,o),
(476,121,o),
(476,219,cs),
(476,420,o),
(366,462,o),
(306,462,c,{
name = hr00;
})
);
},
{
closed = 1;
nodes = (
(345,399,o),
(385,321,o),
(385,207,cs),
(385,105,o),
(341,31,o),
(267,31,cs),
(236,31,o),
(200,40,o),
(160,59,c),
(160,327,ls),
(160,337,o),
(218,406,o),
(296,415,c)
);
}
);
};
layerId = master01;
shapes = (
{
closed = 1;
nodes = (
(263,462,o),
(198,429,o),
(160,388,c),
(160,683,l),
(75,683,l),
(75,-212,l),
(160,-212,l),
(160,30,l),
(210,-4,o),
(255,-17,o),
(294,-17,cs),
(413,-17,o),
(476,121,o),
(476,219,cs),
(476,420,o),
(366,462,o),
(306,462,c,{
name = hr00;
})
);
},
{
closed = 1;
nodes = (
(345,399,o),
(385,321,o),
(385,207,cs),
(385,105,o),
(341,31,o),
(267,31,cs),
(236,31,o),
(200,40,o),
(160,59,c),
(160,327,ls),
(160,337,o),
(218,406,o),
(296,415,c)
);
}
);
width = 500;
}
);
unicode = 254;
},
{
glyphname = q;
lastChange = "2022-05-26 15:05:57 +0000";
layers = (
{
anchors = (
{
name = bottom;
pos = (250,0);
},
{
name = top;
pos = (250,452);
}
);
background = {
shapes = (
{
closed = 1;
nodes = (
(371,423,l),
(329,450,o),
(285,464,o),
(245,464,cs),
(122,464,o),
(22,354,o),
(22,217,cs),
(22,60,o),
(103,-17,o),
(193,-17,cs),
(243,-17,o),
(297,7,o),
(341,56,c),
(341,-212,l),
(425,-212,l),
(425,462,l,{
name = hr00;
})
);
},
{
closed = 1;
nodes = (
(147,43,o),
(108,116,o),
(108,233,cs),
(108,341,o),
(165,413,o),
(248,413,cs),
(294,413,o),
(335,399,o),
(341,395,c),
(341,105,ls),
(341,91,o),
(282,35,o),
(204,29,c)
);
}
);
};
layerId = master01;
shapes = (
{
closed = 1;
nodes = (
(371,423,l),
(329,450,o),
(285,464,o),
(245,464,cs),
(122,464,o),
(22,354,o),
(22,217,cs),
(22,60,o),
(103,-17,o),
(193,-17,cs),
(243,-17,o),
(297,7,o),
(341,56,c),
(341,-212,l),
(425,-212,l),
(425,462,l,{
name = hr00;
})
);
},
{
closed = 1;
nodes = (
(147,43,o),
(108,116,o),
(108,233,cs),
(108,341,o),
(165,413,o),
(248,413,cs),
(294,413,o),
(335,399,o),
(341,395,c),
(341,105,ls),
(341,91,o),
(282,35,o),
(204,29,c)
);
}
);
width = 500;
}
);
unicode = 113;
},
{
glyphname = r;
lastChange = "2022-05-26 15:05:57 +0000";
layers = (
{
anchors = (
{
name = bottom;
pos = (159,0);
},
{
name = top;
pos = (159,452);
}
);
background = {
shapes = (
{
closed = 1;
nodes = (
(233,462,o),
(170,411,o),
(145,368,c),
(122,452,l),
(64,452,l),
(64,0,l),
(148,0,l),
(148,329,l),
(185,364,o),
(256,403,o),
(308,403,c),
(298,472,l,{
name = hr00;
})
);
}
);
};
layerId = master01;
shapes = (
{
closed = 1;
nodes = (
(233,462,o),
(170,411,o),
(145,368,c),
(122,452,l),
(64,452,l),
(64,0,l),
(148,0,l),
(148,329,l),
(185,364,o),
(256,403,o),
(308,403,c),
(298,472,l,{
name = hr00;
})
);
}
);
width = 318;
}
);
unicode = 114;
},
{
glyphname = racute;
lastChange = "2022-05-26 15:06:01 +0000";
layers = (
{
background = {
shapes = (
{
closed = 1;
nodes = (
(233,462,o),
(170,411,o),
(145,368,c),
(122,452,l),
(64,452,l),
(64,0,l),
(148,0,l),
(148,329,l),
(185,364,o),
(256,403,o),
(308,403,c),
(298,472,l,{
name = hr00;
})
);
},
{
closed = 1;
nodes = (
(102,507,l),
(290,645,l),
(234,695,l),
(62,507,l,{
name = hr00;
})
);
}
);
};
layerId = master01;
shapes = (
{
ref = r;
},
{
pos = (-48,0);
ref = acutecomb;
}
);
width = 318;
}
);
unicode = 341;
},
{
glyphname = rcaron;
lastChange = "2022-05-26 15:06:01 +0000";
layers = (
{
background = {
shapes = (
{
closed = 1;
nodes = (
(233,462,o),
(170,411,o),
(145,368,c),
(122,452,l),
(64,452,l),
(64,0,l),
(148,0,l),
(148,329,l),
(185,364,o),
(256,403,o),
(308,403,c),
(298,472,l,{
name = hr00;
})
);
},
{
closed = 1;
nodes = (
(135,506,l),
(183,506,l),
(308,673,l),
(268,673,l),
(159,580,l),
(49,673,l),
(9,673,l,{
name = hr00;
})
);
}
);
};
layerId = master01;
shapes = (
{
ref = r;
},
{
pos = (-7,0);
ref = caroncomb;
}
);
width = 318;
}
);
unicode = 345;
},
{
glyphname = rcommaaccent;
lastChange = "2022-05-26 15:06:01 +0000";
layers = (
{
background = {
shapes = (
{
closed = 1;
nodes = (
(233,462,o),
(170,411,o),
(145,368,c),
(122,452,l),
(64,452,l),
(64,0,l),
(148,0,l),
(148,329,l),
(185,364,o),
(256,403,o),
(308,403,c),
(298,472,l,{
name = hr00;
})
);
},
{
closed = 1;
nodes = (
(113,-46,o),
(66,-71,o),
(47,-99,c),
(47,-135,o),
(81,-154,o),
(109,-154,c),
(109,-197,o),
(81,-242,o),
(42,-273,c),
(54,-292,l),
(115,-258,o),
(166,-205,o),
(166,-122,cs),
(166,-98,o),
(162,-71,o),
(152,-42,c,{
name = hr00;
})
);
}
);
};
layerId = master01;
shapes = (
{
ref = r;
},
{
pos = (281,0);
ref = commaaccentcomb;
}
);
width = 318;
}
);
unicode = 343;
},
{
glyphname = s;
lastChange = "2022-05-26 15:05:57 +0000";
layers = (
{
anchors = (
{
name = bottom;
pos = (186,0);
},
{
name = top;
pos = (186,452);
}
);
background = {
shapes = (
{
closed = 1;
nodes = (
(202,417,o),
(253,401,o),
(306,372,c),
(316,438,l),
(293,447,o),
(248,464,o),
(177,464,cs),
(73,464,o),
(37,398,o),
(37,344,cs),
(37,206,o),
(256,202,o),
(256,101,cs),
(256,67,o),
(228,28,o),
(157,28,cs),
(111,28,o),
(52,50,o),
(28,62,c),
(28,24,l),
(53,10,o),
(109,-12,o),
(168,-12,cs),
(277,-12,o),
(337,47,o),
(337,119,cs),
(337,254,o),
(110,263,o),
(110,360,cs),
(110,389,o),
(133,422,o),
(169,422,c,{
name = hr00;
})
);
}
);
};
layerId = master01;
shapes = (
{
closed = 1;
nodes = (
(202,417,o),
(253,401,o),
(306,372,c),
(316,438,l),
(293,447,o),
(248,464,o),
(177,464,cs),
(73,464,o),
(37,398,o),
(37,344,cs),
(37,206,o),
(256,202,o),
(256,101,cs),
(256,67,o),
(228,28,o),
(157,28,cs),
(111,28,o),
(52,50,o),
(28,62,c),
(28,24,l),
(53,10,o),
(109,-12,o),
(168,-12,cs),
(277,-12,o),
(337,47,o),
(337,119,cs),
(337,254,o),
(110,263,o),
(110,360,cs),
(110,389,o),
(133,422,o),
(169,422,c,{
name = hr00;
})
);
}
);
width = 372;
}
);
unicode = 115;
},
{
glyphname = sacute;
lastChange = "2022-05-26 15:06:01 +0000";
layers = (
{
background = {
shapes = (
{
closed = 1;
nodes = (
(202,417,o),
(253,401,o),
(306,372,c),
(316,438,l),
(293,447,o),
(248,464,o),
(177,464,cs),
(73,464,o),
(37,398,o),
(37,344,cs),
(37,206,o),
(256,202,o),
(256,101,cs),
(256,67,o),
(228,28,o),
(157,28,cs),
(111,28,o),
(52,50,o),
(28,62,c),
(28,24,l),
(53,10,o),
(109,-12,o),
(168,-12,cs),
(277,-12,o),
(337,47,o),
(337,119,cs),
(337,254,o),
(110,263,o),
(110,360,cs),
(110,389,o),
(133,422,o),
(169,422,c,{
name = hr00;
})
);
},
{
closed = 1;
nodes = (
(129,507,l),
(317,645,l),
(261,695,l),
(89,507,l,{
name = hr00;
})
);
}
);
};
layerId = master01;
shapes = (
{
ref = s;
},
{
pos = (-21,0);
ref = acutecomb;
}
);
width = 372;
}
);
unicode = 347;
},
{
glyphname = scaron;
lastChange = "2022-05-26 15:06:01 +0000";
layers = (
{
background = {
shapes = (
{
closed = 1;
nodes = (
(202,417,o),
(253,401,o),
(306,372,c),
(316,438,l),
(293,447,o),
(248,464,o),
(177,464,cs),
(73,464,o),
(37,398,o),
(37,344,cs),
(37,206,o),
(256,202,o),
(256,101,cs),
(256,67,o),
(228,28,o),
(157,28,cs),
(111,28,o),
(52,50,o),
(28,62,c),
(28,24,l),
(53,10,o),
(109,-12,o),
(168,-12,cs),
(277,-12,o),
(337,47,o),
(337,119,cs),
(337,254,o),
(110,263,o),
(110,360,cs),
(110,389,o),
(133,422,o),
(169,422,c,{
name = hr00;
})
);
},
{
closed = 1;
nodes = (
(162,506,l),
(210,506,l),
(335,673,l),
(295,673,l),
(186,580,l),
(76,673,l),
(36,673,l,{
name = hr00;
})
);
}
);
};
layerId = master01;
shapes = (
{
ref = s;
},
{
pos = (20,0);
ref = caroncomb;
}
);
width = 372;
}
);
unicode = 353;
},
{
glyphname = scedilla;
lastChange = "2022-05-26 15:06:01 +0000";
layers = (
{
background = {
shapes = (
{
closed = 1;
nodes = (
(202,417,o),
(253,401,o),
(306,372,c),
(316,438,l),
(293,447,o),
(248,464,o),
(177,464,cs),
(73,464,o),
(37,398,o),
(37,344,cs),
(37,206,o),
(256,202,o),
(256,101,cs),
(256,67,o),
(228,28,o),
(157,28,cs),
(111,28,o),
(52,50,o),
(28,62,c),
(28,24,l),
(53,10,o),
(109,-12,o),
(168,-12,cs),
(277,-12,o),
(337,47,o),
(337,119,cs),
(337,254,o),
(110,263,o),
(110,360,cs),
(110,389,o),
(133,422,o),
(169,422,c,{
name = hr00;
})
);
},
{
closed = 1;
nodes = (
(128,-100,l),
(166,-100,o),
(199,-110,o),
(215,-141,c),
(215,-163,o),
(189,-180,o),
(157,-180,cs),
(149,-180,o),
(112,-175,o),
(95,-168,c),
(81,-199,l),
(103,-208,o),
(143,-215,o),
(169,-215,cs),
(236,-215,o),
(290,-178,o),
(290,-132,c),
(267,-88,o),
(219,-65,o),
(178,-65,c),
(203,0,l),
(168,0,l,{
name = hr00;
})
);
}
);
};
layerId = master01;
shapes = (
{
ref = s;
},
{
pos = (29,0);
ref = cedillacomb;
}
);
width = 372;
}
);
unicode = 351;
},
{
glyphname = scircumflex;
lastChange = "2022-05-26 15:06:01 +0000";
layers = (
{
background = {
shapes = (
{
closed = 1;
nodes = (
(202,417,o),
(253,401,o),
(306,372,c),
(316,438,l),
(293,447,o),
(248,464,o),
(177,464,cs),
(73,464,o),
(37,398,o),
(37,344,cs),
(37,206,o),
(256,202,o),
(256,101,cs),
(256,67,o),
(228,28,o),
(157,28,cs),
(111,28,o),
(52,50,o),
(28,62,c),
(28,24,l),
(53,10,o),
(109,-12,o),
(168,-12,cs),
(277,-12,o),
(337,47,o),
(337,119,cs),
(337,254,o),
(110,263,o),
(110,360,cs),
(110,389,o),
(133,422,o),
(169,422,c,{
name = hr00;
})
);
},
{
closed = 1;
nodes = (
(209,674,l),
(161,674,l),
(36,507,l),
(76,507,l),
(185,600,l),
(295,507,l),
(335,507,l,{
name = hr00;
})
);
}
);
};
layerId = master01;
shapes = (
{
ref = s;
},
{
pos = (19,0);
ref = circumflexcomb;
}
);
width = 372;
}
);
unicode = 349;
},
{
glyphname = scommaaccent;
lastChange = "2022-05-26 15:06:01 +0000";
layers = (
{
background = {
shapes = (
{
closed = 1;
nodes = (
(202,417,o),
(253,401,o),
(306,372,c),
(316,438,l),
(293,447,o),
(248,464,o),
(177,464,cs),
(73,464,o),
(37,398,o),
(37,344,cs),
(37,206,o),
(256,202,o),
(256,101,cs),
(256,67,o),
(228,28,o),
(157,28,cs),
(111,28,o),
(52,50,o),
(28,62,c),
(28,24,l),
(53,10,o),
(109,-12,o),
(168,-12,cs),
(277,-12,o),
(337,47,o),
(337,119,cs),
(337,254,o),
(110,263,o),
(110,360,cs),
(110,389,o),
(133,422,o),
(169,422,c,{
name = hr00;
})
);
},
{
closed = 1;
nodes = (
(195,-46,o),
(148,-71,o),
(129,-99,c),
(129,-135,o),
(163,-154,o),
(191,-154,c),
(191,-197,o),
(163,-242,o),
(124,-273,c),
(136,-292,l),
(197,-258,o),
(248,-205,o),
(248,-122,cs),
(248,-98,o),
(244,-71,o),
(234,-42,c,{
name = hr00;
})
);
}
);
};
layerId = master01;
shapes = (
{
ref = s;
},
{
pos = (308,0);
ref = commaaccentcomb;
}
);
width = 372;
}
);
unicode = 537;
},
{
glyphname = germandbls;
lastChange = "2022-05-26 15:05:57 +0000";
layers = (
{
anchors = (
{
name = bottom;
pos = (290,0);
},
{
name = top;
pos = (290,928);
}
);
background = {
shapes = (
{
closed = 1;
nodes = (
(236,4,o),
(286,-12,o),
(343,-12,cs),
(436,-12,o),
(553,43,o),
(553,180,cs),
(553,293,o),
(410,368,o),
(375,386,c),
(434,440,o),
(497,498,o),
(497,563,cs,{
name = hr01;
}),
(497,627,o),
(446,683,o),
(299,683,cs),
(208,683,o),
(134,664,o),
(104,655,c),
(104,452,l),
(20,452,l),
(20,432,l),
(103,416,l),
(103,0,l),
(185,0,l),
(185,607,l),
(241,624,o),
(286,635,o),
(329,635,c),
(374,621,o),
(409,587,o),
(409,549,cs),
(409,487,o),
(318,419,o),
(318,377,cs),
(318,333,o),
(466,307,o),
(466,180,cs,{
name = hr02;
}),
(466,82,o),
(405,39,o),
(343,30,c),
(317,39,o),
(265,61,o),
(231,78,c),
(208,14,l)
);
}
);
};
layerId = master01;
shapes = (
{
closed = 1;
nodes = (
(236,4,o),
(286,-12,o),
(343,-12,cs),
(436,-12,o),
(553,43,o),
(553,180,cs),
(553,293,o),
(410,368,o),
(375,386,c),
(434,440,o),
(497,498,o),
(497,563,cs,{
name = hr01;
}),
(497,627,o),
(446,683,o),
(299,683,cs),
(208,683,o),
(134,664,o),
(104,655,c),
(104,452,l),
(20,452,l),
(20,432,l),
(103,416,l),
(103,0,l),
(185,0,l),
(185,607,l),
(241,624,o),
(286,635,o),
(329,635,c),
(374,621,o),
(409,587,o),
(409,549,cs),
(409,487,o),
(318,419,o),
(318,377,cs),
(318,333,o),
(466,307,o),
(466,180,cs,{
name = hr02;
}),
(466,82,o),
(405,39,o),
(343,30,c),
(317,39,o),
(265,61,o),
(231,78,c),
(208,14,l)
);
}
);
width = 579;
}
);
unicode = 223;
},
{
glyphname = t;
lastChange = "2022-05-26 15:05:57 +0000";
layers = (
{
anchors = (
{
name = bottom;
pos = (165,0);
},
{
name = center;
pos = (165,226);
},
{
name = top;
pos = (165,452);
},
{
name = topright;
pos = (309,928);
}
);
background = {
shapes = (
{
closed = 1;
nodes = (
(187,28,o),
(175,50,o),
(175,88,cs),
(175,416,l),
(294,416,l),
(294,452,l),
(175,452,l),
(175,549,l),
(91,488,l),
(91,452,l),
(10,452,l),
(10,432,l),
(91,416,l),
(91,93,ls),
(91,17,o),
(133,-12,o),
(188,-12,cs),
(227,-12,o),
(264,1,o),
(294,15,c),
(294,43,l),
(273,35,o),
(248,28,o),
(230,28,c,{
name = hr00;
})
);
}
);
};
layerId = master01;
shapes = (
{
closed = 1;
nodes = (
(187,28,o),
(175,50,o),
(175,88,cs),
(175,416,l),
(294,416,l),
(294,452,l),
(175,452,l),
(175,549,l),
(91,488,l),
(91,452,l),
(10,452,l),
(10,432,l),
(91,416,l),
(91,93,ls),
(91,17,o),
(133,-12,o),
(188,-12,cs),
(227,-12,o),
(264,1,o),
(294,15,c),
(294,43,l),
(273,35,o),
(248,28,o),
(230,28,c,{
name = hr00;
})
);
}
);
width = 329;
}
);
unicode = 116;
},
{
glyphname = tbar;
lastChange = "2022-05-26 14:56:42 +0000";
layers = (
{
background = {
shapes = (
{
closed = 1;
nodes = (
(187,28,o),
(175,50,o),
(175,88,cs),
(175,416,l),
(294,416,l),
(294,452,l),
(175,452,l),
(175,549,l),
(91,488,l),
(91,452,l),
(10,452,l),
(10,432,l),
(91,416,l),
(91,93,ls),
(91,17,o),
(133,-12,o),
(188,-12,cs),
(227,-12,o),
(264,1,o),
(294,15,c),
(294,43,l),
(273,35,o),
(248,28,o),
(230,28,c,{
name = hr00;
})
);
},
{
closed = 1;
nodes = (
(0,282,l),
(0,233,l),
(273,233,l),
(273,282,l,{
name = hr00;
})
);
}
);
};
layerId = master01;
shapes = (
{
alignment = -1;
ref = t;
},
{
alignment = -1;
pos = (0,-92);
ref = ethbar;
scale = (0.7,1);
}
);
width = 329;
}
);
unicode = 359;
},
{
glyphname = tcaron;
lastChange = "2022-05-26 15:06:01 +0000";
layers = (
{
background = {
shapes = (
{
closed = 1;
nodes = (
(187,28,o),
(175,50,o),
(175,88,cs),
(175,416,l),
(294,416,l),
(294,452,l),
(175,452,l),
(175,549,l),
(91,488,l),
(91,452,l),
(10,452,l),
(10,432,l),
(91,416,l),
(91,93,ls),
(91,17,o),
(133,-12,o),
(188,-12,cs),
(227,-12,o),
(264,1,o),
(294,15,c),
(294,43,l),
(273,35,o),
(248,28,o),
(230,28,c,{
name = hr00;
})
);
},
{
closed = 1;
nodes = (
(295,714,o),
(248,689,o),
(229,661,c),
(229,625,o),
(263,606,o),
(291,606,c),
(291,563,o),
(263,518,o),
(224,487,c),
(236,468,l),
(297,502,o),
(348,555,o),
(348,638,cs),
(348,662,o),
(344,689,o),
(334,718,c,{
name = hr00;
})
);
}
);
};
layerId = master01;
shapes = (
{
ref = t;
},
{
pos = (-1,0);
ref = caroncomb;
}
);
width = 329;
}
);
unicode = 357;
},
{
glyphname = tcedilla;
lastChange = "2022-05-26 15:06:01 +0000";
layers = (
{
background = {
shapes = (
{
closed = 1;
nodes = (
(187,28,o),
(175,50,o),
(175,88,cs),
(175,416,l),
(294,416,l),
(294,452,l),
(175,452,l),
(175,549,l),
(91,488,l),
(91,452,l),
(10,452,l),
(10,432,l),
(91,416,l),
(91,93,ls),
(91,17,o),
(133,-12,o),
(188,-12,cs),
(227,-12,o),
(264,1,o),
(294,15,c),
(294,43,l),
(273,35,o),
(248,28,o),
(230,28,c,{
name = hr00;
})
);
},
{
closed = 1;
nodes = (
(107,-100,l),
(145,-100,o),
(178,-110,o),
(194,-141,c),
(194,-163,o),
(168,-180,o),
(136,-180,cs),
(128,-180,o),
(91,-175,o),
(74,-168,c),
(60,-199,l),
(82,-208,o),
(122,-215,o),
(148,-215,cs),
(215,-215,o),
(269,-178,o),
(269,-132,c),
(246,-88,o),
(198,-65,o),
(157,-65,c),
(182,0,l),
(147,0,l,{
name = hr00;
})
);
}
);
};
layerId = master01;
shapes = (
{
ref = t;
},
{
pos = (8,0);
ref = cedillacomb;
}
);
width = 329;
}
);
unicode = 355;
},
{
glyphname = tcommaaccent;
lastChange = "2022-05-26 15:06:01 +0000";
layers = (
{
background = {
shapes = (
{
closed = 1;
nodes = (
(187,28,o),
(175,50,o),
(175,88,cs),
(175,416,l),
(294,416,l),
(294,452,l),
(175,452,l),
(175,549,l),
(91,488,l),
(91,452,l),
(10,452,l),
(10,432,l),
(91,416,l),
(91,93,ls),
(91,17,o),
(133,-12,o),
(188,-12,cs),
(227,-12,o),
(264,1,o),
(294,15,c),
(294,43,l),
(273,35,o),
(248,28,o),
(230,28,c,{
name = hr00;
})
);
},
{
closed = 1;
nodes = (
(174,-46,o),
(127,-71,o),
(108,-99,c),
(108,-135,o),
(142,-154,o),
(170,-154,c),
(170,-197,o),
(142,-242,o),
(103,-273,c),
(115,-292,l),
(176,-258,o),
(227,-205,o),
(227,-122,cs),
(227,-98,o),
(223,-71,o),
(213,-42,c,{
name = hr00;
})
);
}
);
};
layerId = master01;
shapes = (
{
ref = t;
},
{
pos = (287,0);
ref = commaaccentcomb;
}
);
width = 329;
}
);
unicode = 539;
},
{
glyphname = u;
lastChange = "2022-05-26 15:05:57 +0000";
layers = (
{
anchors = (
{
name = bottom;
pos = (240,0);
},
{
name = ogonek;
pos = (432,10);
},
{
name = top;
pos = (240,452);
},
{
name = topright;
pos = (460,452);
}
);
background = {
shapes = (
{
closed = 1;
nodes = (
(312,452,l),
(312,99,l),
(280,61,o),
(243,35,o),
(213,35,cs),
(154,35,o),
(136,71,o),
(136,132,c),
(136,452,l),
(51,452,l),
(51,137,l),
(51,14,o),
(123,-12,o),
(169,-12,cs),
(228,-12,o),
(266,14,o),
(316,61,c),
(397,-12,l),
(449,25,l),
(432,38,o),
(397,66,o),
(397,134,c),
(397,452,l,{
name = hr00;
})
);
}
);
};
layerId = master01;
shapes = (
{
closed = 1;
nodes = (
(312,452,l),
(312,99,l),
(280,61,o),
(243,35,o),
(213,35,cs),
(154,35,o),
(136,71,o),
(136,132,c),
(136,452,l),
(51,452,l),
(51,137,l),
(51,14,o),
(123,-12,o),
(169,-12,cs),
(228,-12,o),
(266,14,o),
(316,61,c),
(397,-12,l),
(449,25,l),
(432,38,o),
(397,66,o),
(397,134,c),
(397,452,l,{
name = hr00;
})
);
}
);
width = 480;
}
);
unicode = 117;
},
{
glyphname = uacute;
lastChange = "2022-05-26 15:06:01 +0000";
layers = (
{
background = {
shapes = (
{
closed = 1;
nodes = (
(312,452,l),
(312,99,l),
(280,61,o),
(243,35,o),
(213,35,cs),
(154,35,o),
(136,71,o),
(136,132,c),
(136,452,l),
(51,452,l),
(51,137,l),
(51,14,o),
(123,-12,o),
(169,-12,cs),
(228,-12,o),
(266,14,o),
(316,61,c),
(397,-12,l),
(449,25,l),
(432,38,o),
(397,66,o),
(397,134,c),
(397,452,l,{
name = hr00;
})
);
},
{
closed = 1;
nodes = (
(183,507,l),
(371,645,l),
(315,695,l),
(143,507,l,{
name = hr00;
})
);
}
);
};
layerId = master01;
shapes = (
{
ref = u;
},
{
pos = (33,0);
ref = acutecomb;
}
);
width = 480;
}
);
unicode = 250;
},
{
glyphname = ubreve;
lastChange = "2022-05-26 15:06:01 +0000";
layers = (
{
background = {
shapes = (
{
closed = 1;
nodes = (
(312,452,l),
(312,99,l),
(280,61,o),
(243,35,o),
(213,35,cs),
(154,35,o),
(136,71,o),
(136,132,c),
(136,452,l),
(51,452,l),
(51,137,l),
(51,14,o),
(123,-12,o),
(169,-12,cs),
(228,-12,o),
(266,14,o),
(316,61,c),
(397,-12,l),
(449,25,l),
(432,38,o),
(397,66,o),
(397,134,c),
(397,452,l,{
name = hr00;
})
);
},
{
closed = 1;
nodes = (
(332,614,o),
(315,567,o),
(239,567,cs),
(175,567,o),
(138,603,o),
(128,664,c),
(99,664,l),
(99,659,ls),
(99,554,o),
(166,507,o),
(237,507,cs),
(365,507,o),
(377,633,o),
(380,664,c),
(351,664,l,{
name = hr00;
})
);
}
);
};
layerId = master01;
shapes = (
{
ref = u;
},
{
pos = (73,0);
ref = brevecomb;
}
);
width = 480;
}
);
unicode = 365;
},
{
glyphname = ucircumflex;
lastChange = "2022-05-26 15:06:01 +0000";
layers = (
{
background = {
shapes = (
{
closed = 1;
nodes = (
(312,452,l),
(312,99,l),
(280,61,o),
(243,35,o),
(213,35,cs),
(154,35,o),
(136,71,o),
(136,132,c),
(136,452,l),
(51,452,l),
(51,137,l),
(51,14,o),
(123,-12,o),
(169,-12,cs),
(228,-12,o),
(266,14,o),
(316,61,c),
(397,-12,l),
(449,25,l),
(432,38,o),
(397,66,o),
(397,134,c),
(397,452,l,{
name = hr00;
})
);
},
{
closed = 1;
nodes = (
(263,674,l),
(215,674,l),
(90,507,l),
(130,507,l),
(239,600,l),
(349,507,l),
(389,507,l,{
name = hr00;
})
);
}
);
};
layerId = master01;
shapes = (
{
ref = u;
},
{
pos = (73,0);
ref = circumflexcomb;
}
);
width = 480;
}
);
unicode = 251;
},
{
glyphname = udieresis;
lastChange = "2022-05-26 15:06:01 +0000";
layers = (
{
background = {
shapes = (
{
closed = 1;
nodes = (
(312,452,l),
(312,99,l),
(280,61,o),
(243,35,o),
(213,35,cs),
(154,35,o),
(136,71,o),
(136,132,c),
(136,452,l),
(51,452,l),
(51,137,l),
(51,14,o),
(123,-12,o),
(169,-12,cs),
(228,-12,o),
(266,14,o),
(316,61,c),
(397,-12,l),
(449,25,l),
(432,38,o),
(397,66,o),
(397,134,c),
(397,452,l,{
name = hr00;
})
);
},
{
closed = 1;
nodes = (
(288,563,o),
(310,541,o),
(338,541,cs),
(366,541,o),
(388,563,o),
(388,591,cs),
(388,619,o),
(366,641,o),
(338,641,cs),
(310,641,o),
(288,619,o),
(288,591,c,{
name = hr00;
})
);
},
{
closed = 1;
nodes = (
(91,563,o),
(113,541,o),
(141,541,cs),
(169,541,o),
(191,563,o),
(191,591,cs),
(191,619,o),
(169,641,o),
(141,641,cs),
(113,641,o),
(91,619,o),
(91,591,cs)
);
}
);
};
layerId = master01;
shapes = (
{
ref = u;
},
{
pos = (73,0);
ref = dieresiscomb;
}
);
width = 480;
}
);
unicode = 252;
},
{
glyphname = ugrave;
lastChange = "2022-05-26 15:06:01 +0000";
layers = (
{
background = {
shapes = (
{
closed = 1;
nodes = (
(312,452,l),
(312,99,l),
(280,61,o),
(243,35,o),
(213,35,cs),
(154,35,o),
(136,71,o),
(136,132,c),
(136,452,l),
(51,452,l),
(51,137,l),
(51,14,o),
(123,-12,o),
(169,-12,cs),
(228,-12,o),
(266,14,o),
(316,61,c),
(397,-12,l),
(449,25,l),
(432,38,o),
(397,66,o),
(397,134,c),
(397,452,l,{
name = hr00;
})
);
},
{
closed = 1;
nodes = (
(314,507,l),
(126,645,l),
(182,695,l),
(354,507,l,{
name = hr00;
})
);
}
);
};
layerId = master01;
shapes = (
{
ref = u;
},
{
pos = (112,0);
ref = gravecomb;
}
);
width = 480;
}
);
unicode = 249;
},
